<?xml version="1.0" encoding="utf-8"?>
<!-- Generator: Adobe Illustrator 25.2.1, SVG Export Plug-In . SVG Version: 6.00 Build 0)  -->
<svg version="1.1" id="Layer_1" xmlns="http://www.w3.org/2000/svg" xmlns:xlink="http://www.w3.org/1999/xlink" x="0px" y="0px"
	 viewBox="0 0 737.4 173.9" style="enable-background:new 0 0 737.4 173.9;" xml:space="preserve">
<style type="text/css">
	.st0{fill:#E43225;}
	.st1{fill:#F7971D;}
</style>
<g id="layer1" transform="translate(-76.290715,-142.89532)">
	<g id="g43" transform="matrix(0.26458333,0,0,0.26458333,38.931549,83.337617)">
		<g id="g32">
			<path id="path12" class="st0" d="M840.3,711.8V284.3h252.6v53.6H892.6v131.4h179.9v53.6H892.6v134H1107v53.6H840.3V711.8z"/>
			<path id="path14" class="st0" d="M1372.4,711.8l-86.8-113.6l-86.8,113.6h-61.2L1256.3,560l-125-156.9h68.9l85.5,117.4l86.8-117.4
				h67.6L1321.4,560l112.3,151.8H1372.4z"/>
			<path id="path16" class="st0" d="M1517.8,665.9v210.5h-52.3V561.2c0-80.4,61.2-165.9,156.9-165.9c97,0,169.7,61.2,169.7,162.1
				c0,98.3-74,165.9-158.2,165.9C1593.1,723.3,1538.2,705.4,1517.8,665.9L1517.8,665.9z M1737.3,557.4
				c0-68.9-44.7-109.7-123.8-105.9c-38.3,1.3-97,29.3-91.9,127.6c1.3,31.9,34.5,91.9,107.2,91.9
				C1691.4,671,1737.3,635.2,1737.3,557.4z"/>
			<path id="path18" class="st0" d="M1836.8,711.8V403h52.3v33.2c25.5-29.3,65.1-39.6,107.2-39.6v56.1c-6.4-1.3-68.9-8.9-107.2,72.7
				V713h-52.3V711.8z"/>
			<path id="path20" class="st0" d="M2010.4,557.4c0-89.3,63.8-162.1,151.8-162.1c109.7,0,150.6,72.7,150.6,165.9v25.5h-245
				c3.8,58.7,56.1,89.3,104.6,88c35.7-1.3,60-11.5,85.5-37l34.5,35.7c-31.9,30.6-72.7,51-122.5,51
				C2076.7,723.3,2010.4,654.4,2010.4,557.4L2010.4,557.4z M2158.4,447.7c-49.8,0-88,43.4-90.6,90.6h190.1
				C2257.9,492.3,2224.7,447.7,2158.4,447.7z"/>
			<path id="path22" class="st0" d="M2339.6,668.4l38.3-34.5c-1.3,0,19.1,20.4,21.7,21.7c8.9,7.7,17.9,12.8,29.3,15.3
				c33.2,8.9,93.1,6.4,98.3-39.6c2.6-25.5-16.6-39.6-38.3-48.5c-28.1-10.2-58.7-14-86.8-26.8c-31.9-14-52.3-38.3-52.3-74
				c0-93.1,132.7-108.5,192.7-65.1c2.6,2.6,31.9,29.3,30.6,29.3l-38.3,30.6c-19.1-23-37-34.5-77.8-34.5c-20.4,0-48.5,8.9-53.6,30.6
				c-7.7,30.6,26.8,42.1,49.8,48.5c30.6,7.7,63.8,12.8,90.6,29.3c37,23,45.9,72.7,31.9,111c-15.3,42.1-61.2,58.7-102.1,60
				c-48.5,2.6-90.6-12.8-125-47.2C2345.9,674.8,2339.6,668.4,2339.6,668.4z"/>
			<path id="path24" class="st0" d="M2608.8,668.4l38.3-34.5c-1.3,0,19.1,20.4,21.7,21.7c8.9,7.7,17.9,12.8,29.3,15.3
				c33.2,8.9,93.1,6.4,98.3-39.6c2.6-25.5-16.6-39.6-38.3-48.5c-28.1-10.2-58.7-14-86.8-26.8c-31.9-14-52.3-38.3-52.3-74
				c0-93.1,132.7-108.5,192.7-65.1c2.6,2.6,31.9,29.3,30.6,29.3L2804,477c-19.1-23-37-34.5-77.8-34.5c-20.4,0-48.5,8.9-53.6,30.6
				c-7.7,30.6,26.8,42.1,49.8,48.5c30.6,7.7,63.8,12.8,90.6,29.3c37,23,45.9,72.7,31.9,111c-15.3,42.1-61.2,58.7-102.1,60
				c-48.5,2.6-90.6-12.8-125-47.2C2615.2,674.8,2608.8,668.4,2608.8,668.4z"/>
			<g id="g30">
				<path id="path26" class="st0" d="M2857.6,403v-33.2h-11.5v-6.4h30.6v6.4h-11.5V403H2857.6z"/>
				<path id="path28" class="st0" d="M2915,403v-30.6l-11.5,30.6h-2.6l-11.5-30.6V403h-6.4v-39.6h10.2l10.2,26.8l10.2-26.8h10.2V403
					H2915z"/>
			</g>
		</g>
		<g id="g41">
			<path id="path34" class="st1" d="M485.5,711.8l-38.3-102.1H240.5l-38.3,102.1h-54.9l165.9-427.5h60l164.6,427.5H485.5z
				 M341.3,345.6l-77.8,211.8h162.1L341.3,345.6z"/>
			<path id="path36" class="st1" d="M572.3,711.8V284.3h53.6v427.5H572.3z"/>
			<path id="path38" class="st1" d="M706.3,711.8V409.4h53.6v302.4H706.3z"/>
			<path id="XMLID_1_" class="st1" d="M810.9,311.1c0-1.3,0-1.3,0-2.6c0-1.3,0-1.3,0-2.6c-40.8-1.3-74-34.5-75.3-75.3
				c-1.3,0-2.6,0-3.8,0c-1.3,0-2.6,0-3.8,0c-1.3,40.8-34.5,74-75.3,75.3c0,1.3,0,1.3,0,2.6c0,1.3,0,1.3,0,2.6
				c40.8,1.3,74,34.5,75.3,75.3c1.3,0,2.6,0,3.8,0c1.3,0,2.6,0,3.8,0C736.9,345.6,770.1,312.4,810.9,311.1z"/>
		</g>
	</g>
</g>
</svg>
