<?xml version="1.0" encoding="utf-8"?>
<!-- Generator: Adobe Illustrator 25.2.1, SVG Export Plug-In . SVG Version: 6.00 Build 0)  -->
<svg version="1.1" id="Layer_1" xmlns="http://www.w3.org/2000/svg" xmlns:xlink="http://www.w3.org/1999/xlink" x="0px" y="0px"
	 viewBox="0 0 737.4 173.9" style="enable-background:new 0 0 737.4 173.9;" xml:space="preserve">
<style type="text/css">
	.st0{fill:#282828;}
	.st1{fill:none;stroke:#282828;stroke-width:2.688;stroke-miterlimit:10;}
	.st2{fill:#F9773E;}
</style>
<g>
	<path class="st0" d="M62.4,69.8c10.8,6,17.2,13.9,18.2,25.7c1.4,20-10.5,34.1-31,37.1c-2.8,0.5-5.8,0.6-8.8,0.8
		c-12.1,0.2-24.3,0-35.9,0V16.7c16.4,0,31.5-1.1,46.4,0.3c11,1.1,19.1,8,22.1,19.4C76.5,49.4,74,60.5,62.4,69.8 M23.1,80.7v36.2
		c6.9,0,13.3,0.3,19.9-0.2c10.2-0.6,18.2-8.1,18.8-17.1c0.8-9.4-5.3-17.2-16.1-18.9C38.5,79.8,31.1,80.7,23.1,80.7 M23.9,64.5
		c11.3-0.8,23.2,3.1,29.8-9.4c3.3-6.3,3.4-13-1.7-18.3c-7.8-8-18.2-5.6-28-5.3V64.5z"/>
	<path class="st1" d="M62.4,69.8c10.8,6,17.2,13.9,18.2,25.7c1.4,20-10.5,34.1-31,37.1c-2.8,0.5-5.8,0.6-8.8,0.8
		c-12.1,0.2-24.3,0-35.9,0V16.7c16.4,0,31.5-1.1,46.4,0.3c11,1.1,19.1,8,22.1,19.4C76.5,49.4,74,60.5,62.4,69.8z M23.1,80.7v36.2
		c6.9,0,13.3,0.3,19.9-0.2c10.2-0.6,18.2-8.1,18.8-17.1c0.8-9.4-5.3-17.2-16.1-18.9C38.5,79.8,31.1,80.7,23.1,80.7z M23.9,64.5
		c11.3-0.8,23.2,3.1,29.8-9.4c3.3-6.3,3.4-13-1.7-18.3c-7.8-8-18.2-5.6-28-5.3V64.5z"/>
	<path class="st2" d="M337.9,116.6c-3.8,3.4-5.8,5.2-7.8,7c-15.7,13.9-37,10.2-46.5-8.5c-11.7-22.4-4.5-52.2,15.2-64.1
		c11.3-6.7,23.6-6.1,36.2-5.3c5,0.3,10,2,15,2.3c4.7,0.5,6.3,2.5,6.1,7c-1.1,27.9-1.4,55.8-3,83.6c-0.9,17.7-13.3,29-31,29.4
		c-10.8,0.3-21.8-1.1-32.6-1.1c-5.6-0.2-5.3-3.6-5.2-7.4c0.2-3.9,1.1-6.7,5.8-6.4c7.5,0.5,15,1.3,22.6,1.1
		c17.5-0.3,24.6-7.4,25.5-24.7C337.9,126.2,337.9,122.4,337.9,116.6 M338.5,74.8c0-3.4-0.2-6.3-0.8-9.2c-0.3-1.7-1.7-4.4-3.1-4.7
		c-15.5-4.4-33.7-2.5-37.9,19.7c-1.4,7.8-0.8,16.6,1.1,24.4c3.4,14.3,14.7,17.1,25.8,7.4c2-1.7,3.8-3.8,5.3-6
		C335.9,97.2,339.3,86.4,338.5,74.8"/>
	<path class="st2" d="M430,116.9c-4.7,4.1-7.8,7.4-11.3,9.9c-12.5,8.8-28.7,6.3-38.5-5.3C367,106,365.9,64.1,392.1,50.8
		c11.7-6,23.8-5.6,36.2-4.7c0.8,0.2,1.4,0.5,2,0.5c17.7,3.1,17.9,3.1,17.5,21.3c-0.5,22.1-0.8,44.2-1.4,66.2
		c-0.6,21.5-12.8,34-34.1,34.5c-9.7,0.2-19.4-1.1-29-1.1c-7,0-6-4.4-6-8.8c-0.2-5.8,3.8-5.2,7.4-5c9.4,0.2,18.9,0.8,28.2-0.2
		c11.1-1.1,16.6-8.1,17.1-19.1V116.9z M432.5,73.1c0.2-4.9-1.7-10.2-4.4-11.7c-14.3-7.8-33.4,0.3-37.9,15.5
		c-2.8,9.4-3,19.1,0.2,28.7c4.4,13.5,15,16.6,25.7,7.2C427.9,102.2,431.2,88.4,432.5,73.1"/>
	<path class="st0" d="M714.5,5.9h18.8c-0.8,42.1-1.4,84.1-2.2,125.8c-12.7,3.8-13.6,3-16.4-12.1c-1.1,0.9-2,1.6-2.7,2.3
		c-9.2,10.5-20.5,15.7-34.5,12.1c-13.6-3.8-19.9-14.4-21.9-27.2c-1.4-8.5-2-17.5-0.6-26c3.6-22.9,19.4-35.4,42.6-35.7
		c5.3-0.2,10.7,0,17.2,0C714.5,32.2,714.5,19.4,714.5,5.9 M713.9,75.7C713.1,75.6,714.5,75.9,713.9,75.7c0-3.1,0.3-6.3-0.2-9.4
		c-0.2-1.6-1.4-3.9-2.7-4.4c-15.2-4.9-32.9-1.9-36.6,17.1c-1.4,7.5-1.6,15.5-0.9,23c0.6,7.2,2.7,15,11.1,17.2
		c8.1,2,13.6-3.3,18.6-8.8c1.1-1.3,2.3-2.5,3.4-3.9c3.6-5.2,4.9-9.4,5.6-14.3C713,88.4,713.3,82.3,713.9,75.7"/>
	<path class="st1" d="M714.5,5.9h18.8c-0.8,42.1-1.4,84.1-2.2,125.8c-12.7,3.8-13.6,3-16.4-12.1c-1.1,0.9-2,1.6-2.7,2.3
		c-9.2,10.5-20.5,15.7-34.5,12.1c-13.6-3.8-19.9-14.4-21.9-27.2c-1.4-8.5-2-17.5-0.6-26c3.6-22.9,19.4-35.4,42.6-35.7
		c5.3-0.2,10.7,0,17.2,0C714.5,32.2,714.5,19.4,714.5,5.9z M713.9,75.7C713.1,75.6,714.5,75.9,713.9,75.7c0-3.1,0.3-6.3-0.2-9.4
		c-0.2-1.6-1.4-3.9-2.7-4.4c-15.2-4.9-32.9-1.9-36.6,17.1c-1.4,7.5-1.6,15.5-0.9,23c0.6,7.2,2.7,15,11.1,17.2
		c8.1,2,13.6-3.3,18.6-8.8c1.1-1.3,2.3-2.5,3.4-3.9c3.6-5.2,4.9-9.4,5.6-14.3C713,88.4,713.3,82.3,713.9,75.7z"/>
	<path class="st0" d="M167.3,132.7h-14.4c-0.5-4.2-1.1-8.5-1.6-12.5c-0.6-0.5-1.3-0.8-1.9-1.1c-0.6,1.3-1.1,2.7-2,3.8
		c-9.1,10.2-20.2,15-33.8,11.4c-13.3-3.6-20.4-13.8-21.6-26.5c-1.3-11.4-1.1-23.3,1.4-34.5c3.8-16.8,19.3-28,36.5-28
		c11.6,0,23.2,1.7,34.8,3c1.7,0.2,4.5,2.7,4.4,4.1C168.8,78.9,168,105.5,167.3,132.7 M150.4,74.6C150.1,74.6,150.7,74.8,150.4,74.6
		c0-3,0.3-6-0.2-8.8c-0.2-1.6-1.4-3.8-2.7-4.4c-14.7-7-33,0.8-36.5,16.8c-1.9,8.5-1.4,17.9-0.6,26.5c0.5,6.3,3.8,12.4,10.8,14.1
		c6.6,1.6,12.1-2,15.8-6.9c3.6-4.4,7.2-9.4,9.1-14.6C148.9,90.3,148.9,82.3,150.4,74.6"/>
	<path class="st1" d="M167.3,132.7h-14.4c-0.5-4.2-1.1-8.5-1.6-12.5c-0.6-0.5-1.3-0.8-1.9-1.1c-0.6,1.3-1.1,2.7-2,3.8
		c-9.1,10.2-20.2,15-33.8,11.4c-13.3-3.6-20.4-13.8-21.6-26.5c-1.3-11.4-1.1-23.3,1.4-34.5c3.8-16.8,19.3-28,36.5-28
		c11.6,0,23.2,1.7,34.8,3c1.7,0.2,4.5,2.7,4.4,4.1C168.8,78.9,168,105.5,167.3,132.7z M150.4,74.6C150.1,74.6,150.7,74.8,150.4,74.6
		c0-3,0.3-6-0.2-8.8c-0.2-1.6-1.4-3.8-2.7-4.4c-14.7-7-33,0.8-36.5,16.8c-1.9,8.5-1.4,17.9-0.6,26.5c0.5,6.3,3.8,12.4,10.8,14.1
		c6.6,1.6,12.1-2,15.8-6.9c3.6-4.4,7.2-9.4,9.1-14.6C148.9,90.3,148.9,82.3,150.4,74.6z"/>
	<path class="st0" d="M644.1,89.8c0,33.7-28.3,53.9-60.1,42.9c-10.8-3.8-18.2-10.8-21.9-21.6c-4.1-11.7-4.9-23.8-1.9-35.9
		c5.5-21.9,23.6-33,49.3-30.4c20.4,2,33.8,17.5,34.6,39.2V89.8z M625.4,92c0.2-1.1,0-2.2,0-2.8c0.2-4.7-0.5-6.6-0.9-9.4
		c-2.7-12.7-10.8-19.9-22.2-20c-11.7-0.2-21.3,7.2-23.5,19.7c-1.3,7.5-1.1,15.5,0.2,23c1.7,10.7,8.9,16.3,18.8,17.2
		c11.1,0.9,20-3.8,24.1-13.6C623.9,101.3,625.1,95.9,625.4,92"/>
	<path class="st1" d="M644.1,89.8c0,33.7-28.3,53.9-60.1,42.9c-10.8-3.8-18.2-10.8-21.9-21.6c-4.1-11.7-4.9-23.8-1.9-35.9
		c5.5-21.9,23.6-33,49.3-30.4c20.4,2,33.8,17.5,34.6,39.2V89.8z M625.4,92c0.2-1.1,0-2.2,0-2.8c0.2-4.7-0.5-6.6-0.9-9.4
		c-2.7-12.7-10.8-19.9-22.2-20c-11.7-0.2-21.3,7.2-23.5,19.7c-1.3,7.5-1.1,15.5,0.2,23c1.7,10.7,8.9,16.3,18.8,17.2
		c11.1,0.9,20-3.8,24.1-13.6C623.9,101.3,625.1,95.9,625.4,92z"/>
	<path class="st0" d="M549,89.7c0,32.9-26.5,53.1-58.1,44c-11.7-3.4-20-10.5-24.3-22.2c-4.4-12.2-5-24.7-1.6-37.3
		c5.8-21.3,23.8-31.9,49.5-29.1c19.7,2,33.2,17.2,34.3,38.8C549,85.8,549,87.6,549,89.7 M530.4,87.8c-0.3-2-0.5-5.3-1.3-8.3
		c-3-13-10.7-19.7-22.2-19.7c-11.9,0-21.3,7.4-23.2,19.9c-1.1,7.5-0.9,15.5,0.2,23c1.3,8.1,6.4,14.3,14.7,16.3
		c8.6,2,16.9,0.9,23.5-6C528.5,106.1,529.9,97.8,530.4,87.8"/>
	<path class="st1" d="M549,89.7c0,32.9-26.5,53.1-58.1,44c-11.7-3.4-20-10.5-24.3-22.2c-4.4-12.2-5-24.7-1.6-37.3
		c5.8-21.3,23.8-31.9,49.5-29.1c19.7,2,33.2,17.2,34.3,38.8C549,85.8,549,87.6,549,89.7z M530.4,87.8c-0.3-2-0.5-5.3-1.3-8.3
		c-3-13-10.7-19.7-22.2-19.7c-11.9,0-21.3,7.4-23.2,19.9c-1.1,7.5-0.9,15.5,0.2,23c1.3,8.1,6.4,14.3,14.7,16.3
		c8.6,2,16.9,0.9,23.5-6C528.5,106.1,529.9,97.8,530.4,87.8z"/>
	<path class="st0" d="M262.7,132.7h-18.2c0-14.6,0.2-29,0-43.5c0-6.1,0.2-12.2-0.6-18.2c-1.4-10.5-9.9-14.3-18.8-8.6
		c-11.9,7.8-17.2,19.7-17.9,33.4c-0.6,12.1-0.2,24.3-0.2,36.8h-18V46.8h14.4c0.8,4.4,1.4,8.6,2,12.8c5.3-4.2,9.4-8.8,14.7-11.4
		c19.7-10.6,40.9,0.8,42.1,23.3C263.7,91.6,262.7,111.8,262.7,132.7"/>
	<path class="st1" d="M262.7,132.7h-18.2c0-14.6,0.2-29,0-43.5c0-6.1,0.2-12.2-0.6-18.2c-1.4-10.5-9.9-14.3-18.8-8.6
		c-11.9,7.8-17.2,19.7-17.9,33.4c-0.6,12.1-0.2,24.3-0.2,36.8h-18V46.8h14.4c0.8,4.4,1.4,8.6,2,12.8c5.3-4.2,9.4-8.8,14.7-11.4
		c19.7-10.6,40.9,0.8,42.1,23.3C263.7,91.6,262.7,111.8,262.7,132.7z"/>
</g>
</svg>
