<?xml version="1.0" encoding="utf-8"?>
<!-- Generator: Adobe Illustrator 25.2.1, SVG Export Plug-In . SVG Version: 6.00 Build 0)  -->
<svg version="1.1" id="Layer_1" xmlns="http://www.w3.org/2000/svg" xmlns:xlink="http://www.w3.org/1999/xlink" x="0px" y="0px"
	 viewBox="0 0 540.3 95.5" style="enable-background:new 0 0 540.3 95.5;" xml:space="preserve">
<style type="text/css">
	.st0{fill:#FFEF00;}
	.st1{fill:#1C1C1C;}
</style>
<polygon class="st0" points="479.5,46.7 538.3,46.7 538.3,93.8 479.5,93.8 464.8,80 464.8,60.5 "/>
<path class="st1" d="M476.5,70.2c0,1.6-1.3,2.9-2.9,2.9c-1.6,0-2.9-1.3-2.9-2.9c0-1.6,1.3-2.9,2.9-2.9
	C475.2,67.3,476.5,68.6,476.5,70.2L476.5,70.2"/>
<path class="st1" d="M315.7,41l1.1-0.4c0.9-0.5,1.8-1.1,2.6-1.8c1.1-0.9,2.1-1.9,3.1-2.9c1.1-1.3,2-2.8,2.6-4.4
	c0.7-1.9,1.1-3.8,1.1-5.8c0-5.4-2.4-10-7.3-13.9C314.1,7.9,307.5,6,299.1,6h-36.2v74.4h38.4c9.9,0,30.3-1.8,30.3-21.3
	C331.6,44.2,316.1,41.1,315.7,41 M287,23.4h8.8c1.8,0,3.2,0.5,4.4,1.6c2.1,2,2.3,5.4,0.3,7.5c-0.1,0.1-0.2,0.2-0.3,0.3
	c-1.1,1-2.6,1.6-4.4,1.6H287V23.4z M303.5,61.2c-1.4,1.3-3.3,2-5.2,2H287V49.8h11.3c1.9-0.1,3.8,0.6,5.2,1.9
	c1.3,1.2,2.1,2.9,2.1,4.7C305.6,58.2,304.9,60,303.5,61.2"/>
<path class="st1" d="M374.2,50.1c0,4.9-4,8.9-8.9,8.9s-8.9-4-8.9-8.9V6h-24.2v43.1c0,17.8,14.4,32.2,32.2,32.2h1.5
	c17.8,0,32.2-14.4,32.2-32.2V6h-23.9V50.1z"/>
<polygon class="st1" points="439.2,31.3 423.4,6 399.3,6 427.1,53.8 427.1,80.4 451.2,80.4 451.2,53.8 479,6 454.9,6 "/>
<path class="st1" d="M57.4,41.1l1.1-0.4c0.9-0.5,1.8-1.1,2.6-1.8c1.1-0.9,2.1-1.9,3.1-2.9c1.1-1.3,2-2.8,2.6-4.4
	c0.7-1.9,1.1-3.8,1.1-5.8c0-5.4-2.4-10-7.3-13.9C55.9,8,49.2,6.1,40.9,6.1H4.6v74.4H43c9.9,0,30.3-1.8,30.3-21.3
	C73.3,44.3,57.7,41.3,57.4,41.1 M28.6,23.5h8.9c1.8,0,3.2,0.5,4.4,1.6c2.1,2,2.3,5.3,0.3,7.5c-0.1,0.1-0.2,0.2-0.3,0.3
	c-1.1,1-2.6,1.6-4.4,1.6h-8.9V23.5z M45.2,61.3c-1.4,1.3-3.3,2-5.2,2H28.6V49.9h11.3c2.1,0,3.8,0.6,5.2,1.9c1.3,1.2,2.1,2.9,2.1,4.7
	C47.3,58.3,46.5,60.1,45.2,61.3"/>
<polygon class="st1" points="134.9,62.4 98.9,62.4 98.9,50.7 128.3,50.7 128.3,33.7 98.9,33.7 98.9,24.2 135,24.2 135,6.1 74.8,6.1 
	74.8,80.5 134.9,80.5 "/>
<polygon class="st1" points="196.4,6.1 196.4,24.2 216.1,24.2 216.1,80.5 240,80.5 240,24.2 259.7,24.2 259.7,6.1 "/>
<path class="st1" d="M169.2,61.2c-1.3,1.1-3.1,1.7-5.5,1.7c-2.3,0-4.8-0.6-7.3-1.9c-2.5-1.3-4.2-2.3-5.1-3.1
	c-0.5-0.4-0.9-0.8-1.3-1.2l-14.2,13.5l0.9,0.9c1.2,1.2,2.6,2.3,4,3.2c2,1.4,4.1,2.6,6.3,3.7c2.4,1.2,5.3,2.3,8.9,3.2
	c3.6,0.9,7.3,1.3,11,1.3c9.4,0,16.9-2.4,22.5-7.3s8.4-10.8,8.4-17.6c0-4-0.8-7.5-2.4-10.5c-1.6-3-3.6-5.3-6-6.8
	c-2.5-1.6-5.1-2.9-7.8-4.1c-2.3-1-4.7-1.9-7.2-2.5l-0.6-0.2c-2.1-0.5-4.1-1.2-6-2.2c-1.6-0.9-2.4-1.9-2.4-3c0-1.3,0.6-2.6,1.7-3.4
	c1.1-0.9,2.7-1.3,4.7-1.3c4.9,0,7.8,2.2,9.4,3.8l14.2-13.5l-0.3-0.3c-0.6-0.8-1.7-1.7-3.2-2.7c-1.7-1.1-3.5-2.2-5.3-3.1
	c-2-1-4.6-1.9-7.9-2.7C175.4,4.3,172,4,168.6,4c-8.9,0-16.1,2.4-21.5,7.1s-8.2,10.3-8.2,16.6c-0.1,3.1,0.6,6.3,1.8,9.1
	c1.2,2.7,2.8,4.8,4.6,6.4c1.9,1.6,4,3,6.3,4.2c1.9,1,3.8,1.8,5.8,2.5c0.4,0.1,0.7,0.3,1.1,0.4c2.3,0.7,4.4,1.4,6.3,2.1
	c1.6,0.5,3.2,1.2,4.6,2c1.2,0.7,1.8,1.6,1.8,2.6C171.2,58.7,170.5,60.2,169.2,61.2"/>
</svg>
