<?xml version="1.0" encoding="UTF-8"?>
<svg id="Layer_1" data-name="Layer 1" xmlns="http://www.w3.org/2000/svg" version="1.1" viewBox="0 0 483.4 110">
  <defs>
    <style>
      .cls-1 {
        fill: #121118;
        stroke-width: 0px;
      }
    </style>
  </defs>
  <path class="cls-1" d="M132.8,53.1c6-.2,11.7,2.6,15.2,7.4V2.2c0-.8-.6-1.4-1.4-1.4-.3,0-.6,0-.8.3l-72.1,52.6h1.9c7.5,0,11.3,4.8,11.3,10,.1,3.5-1.8,6.8-5,8.4-.3.1-.4.5-.3.8,0,.1.2.2.3.3,3.6,1.6,5.8,5.2,5.8,9.1,0,5.9-3.9,10.7-11.4,10.7h-20.6c-.4,0-.8-.3-.8-.8v-24.8L1.3,106.6c-.5.4-.7,1.2-.3,1.7.2.3.6.5,1,.5h144.8c.7,0,1.2-.5,1.2-1.2v-19.8c-4.1,3.9-9.6,6-15.2,5.9-11.6,0-21-7.9-21-20.3s9.5-20.3,21-20.3ZM104.1,92.2c0,.4-.3.7-.7.7h-7c-.4,0-.7-.3-.7-.7v-37.8c0-.4.3-.7.7-.7h7c.4,0,.7.3.7.7v37.8ZM63.3,68.5v-7.1c0-.2.2-.4.4-.4,0,0,0,0,0,0h10.1c2.8,0,4.6,1.7,4.6,4.1s-1.7,4.1-4.6,4.1h-9.7c-.4,0-.8-.3-.8-.7,0,0,0,0,0,0ZM63.3,84.8v-7.4c0-.4.3-.8.7-.8,0,0,0,0,0,0h10.1c3.2,0,5,2,5,4.5s-1.9,4.5-5,4.5h-10.1c-.4,0-.8-.3-.8-.8,0,0,0,0,0,0ZM142.8,65.2l5.3-2.9v8.9h-16.5c-.5,0-.8.4-.8.8h0v5.6c0,.5.4.8.8.8h8.9c.3,0,.6.3.6.6v3.8c0,.2,0,.4-.2.5-2.3,1.8-5.2,2.8-8.1,2.8-7.2,0-12.4-5.5-12.4-12.9s5.2-12.9,12.4-12.9c3.5,0,6.8,1.7,8.9,4.5.3.3.7.4,1.1.2ZM154.2,73.3c0-12.1,8.7-20.3,19.9-20.3,6-.1,11.7,3,14.8,8.2.2.3.1.7-.2.9,0,0,0,0,0,0l-4.5,2.4c-.3.2-.7,0-.8-.2-2-3.2-5.5-5.1-9.2-5.2-7.5,0-13.1,5.9-13.1,14.2s5.6,14.2,13.1,14.2c3.8,0,7.2-2,9.2-5.2.2-.3.5-.4.8-.2l4.5,2.3c.3.1.5.5.3.9,0,0,0,.1,0,.1-2.9,4.4-7.6,8.3-14.9,8.3-11.2,0-19.9-8.3-19.9-20.3ZM192.8,73.3c0-9.8,5.6-17.3,14-19.6,14.3-3.8,27.4,9.6,24.3,24.5-1.6,9.1-9.7,15.7-18.9,15.4-11.4,0-19.4-8.6-19.4-20.3ZM224.8,73.3c0-8.1-5-14.2-12.6-14.2s-12.6,6.1-12.6,14.2,4.9,14.2,12.6,14.2,12.6-6.1,12.6-14.2ZM272.4,92.4v-29.8l-11.9,30.1c0,.1-.2.2-.3.2h-2.5c-.1,0-.3,0-.3-.2l-12-30.1v29.8c0,.3-.2.5-.5.5h-6c-.3,0-.5-.2-.5-.5v-38.3c0-.3.2-.5.5-.5h8.6c.4,0,.7.2.9.6l10.5,26.9,10.4-26.9c.1-.4.5-.6.9-.6h8.6c.3,0,.5.2.5.5v38.3c0,.3-.2.5-.5.5h-6c-.3,0-.5-.2-.4-.5h0ZM340.3,92.2v-37.8c0-.4.3-.7.7-.7h25.5c.4,0,.7.3.7.7v4.6c0,.4-.3.7-.7.7h-18.6c-.4,0-.7.3-.7.7v8.7c0,.4.3.7.7.7h18.2c.4,0,.7.3.7.7v4.6c0,.4-.3.7-.7.7h-18.2c-.4,0-.7.3-.7.7v9.5c0,.4.3.7.7.7h18.6c.4,0,.7.3.7.7v4.6c0,.4-.3.7-.7.7h-25.5c-.4,0-.7-.3-.7-.7h0ZM399.3,92.5l-8.2-14c-.1-.2-.4-.3-.6-.3h-5.8c-.4,0-.7.3-.7.7v13.3c0,.4-.3.7-.7.7h-5.5c-.4,0-.7-.3-.7-.7v-37.8c0-.4.3-.7.7-.7h16.6c7.8,0,12.9,5,12.9,12.3s-4,10.2-8.4,11.3c-.4,0-.6.5-.5.8,0,0,0,.1,0,.2l8.5,13.5c.2.3.1.8-.2,1-.1,0-.2.1-.4.1h-6.3c-.3,0-.5-.1-.6-.3h0ZM400.2,65.9c0-3.8-2.8-6.2-6.7-6.2h-8.8c-.4,0-.7.3-.7.7v11.1c0,.4.3.7.7.7,0,0,0,0,0,0h8.8c3.9,0,6.7-2.5,6.7-6.3h0ZM453.8,92.2v-37.8c0-.4.3-.7.7-.7,0,0,0,0,0,0h25.6c.4,0,.7.3.7.7,0,0,0,0,0,0v4.7c0,.4-.3.7-.7.7h-18.7c-.4,0-.7.3-.7.7v8.7c0,.4.3.7.7.7h18.2c.4,0,.7.3.7.7,0,0,0,0,0,0v4.7c0,.4-.3.7-.7.7,0,0,0,0,0,0h-18.2c-.4,0-.7.3-.7.7v9.6c0,.4.3.7.7.7h18.7c.4,0,.7.3.7.7h0v4.7c0,.4-.3.7-.7.7h-25.6c-.4,0-.7-.3-.7-.7h0s0,0,0,0ZM412.3,73.2c0-12.1,8.7-20.3,19.9-20.3,6-.1,11.7,3,14.8,8.2.2.3.1.7-.2.9,0,0,0,0,0,0l-4.5,2.4c-.3.2-.7,0-.8-.2-2-3.2-5.5-5.1-9.2-5.2-7.5,0-13.1,5.9-13.1,14.2s5.6,14.1,13.1,14.1c3.8,0,7.2-2,9.2-5.2.2-.3.5-.4.8-.2l4.5,2.4c.3.2.5.6.3.9,0,0,0,0,0,.1-2.9,4.4-7.6,8.3-14.9,8.3-11.2,0-19.9-8.3-19.9-20.3ZM323.3,92.5v-29.8l-11.9,30.1c0,.1-.2.2-.3.2h-2.5c-.1,0-.3,0-.3-.2l-12-30.1v29.8c0,.3-.2.5-.5.5h-6c-.3,0-.5-.2-.5-.5v-38.3c0-.3.2-.5.5-.5h8.6c.4,0,.7.2.9.6l10.5,26.9,10.5-26.9c.2-.3.5-.6.9-.6h8.6c.3,0,.5.2.5.5,0,0,0,0,0,0v38.3c0,.3-.2.5-.5.5h-6c-.3,0-.5-.2-.5-.5,0,0,0,0,0,0h0Z"/>
</svg>