<?xml version="1.0" encoding="UTF-8"?>
<svg id="Layer_1" data-name="Layer 1" xmlns="http://www.w3.org/2000/svg" version="1.1" viewBox="0 0 445 174.9">
  <defs>
    <style>
      .cls-1 {
        fill: #0000a4;
        stroke-width: 0px;
      }
    </style>
  </defs>
  <path id="path14" class="cls-1" d="M4.9,1.1h50.4v41.6c9.9-3.8,19.6-5.6,30-5.6,20.5,0,37,6.5,49.5,19.2,13.1,12.6,19.2,28.9,19.6,49.5,0,15.8-5.2,30.3-15.8,44-10.8,14-28,21.5-51.3,21.9H4.9V1.1ZM55.3,127.8c6.5.9,12.6,1.8,17.2,1.8,9.9,0,17.2-2.3,22.8-7,5.6-4.1,8.4-10.2,8.4-18.1s-2.9-14-7.9-18.7c-5.6-4.1-12.6-6.5-21.9-7-6.1,0-12.2.9-19.2,3.2v45.7h.5ZM160.8,105.4c0-17.8,6.1-33.5,18.1-47.2,12.2-14,31.8-21,58.3-21,27.6.5,47.5,7.9,59.2,21.9,11.7,13.5,17.8,28.9,17.2,46.3,0,18.1-6.1,34.1-18.7,47.2-12.6,14-31.8,21-57.9,21-27.1-.5-47.2-7.9-59.2-22.4-11.5-13.6-17.6-29.1-17-45.7ZM210.7,105.4c0,7.5,2.3,13.5,7.5,18.1,4.7,4.7,11.1,7,19.2,7s14.5-2.3,19.2-7c4.7-4.7,7.5-10.8,7.5-18.1s-2.3-14-7.5-18.7c-4.7-4.7-11.1-7-19.2-7s-14.5,2.3-19.2,7-7.5,10.6-7.5,18.7ZM320.5,1.1h50.4v169.9h-50.4V1.1ZM409.7,112.4c8.4,0,15.4,3.2,21,8.8,5.6,5.6,8.4,13.1,8.4,21.9s-2.9,15.8-8.4,21.5c-5.6,6.1-12.6,8.8-21,9.3-8.4,0-15.4-3.2-20.5-9.3-6.1-5.6-8.8-13.1-8.8-21.5s2.9-16.3,8.8-21.9c5-6.1,12-8.8,20.5-8.8Z"/>
</svg>