<?xml version="1.0" encoding="utf-8"?>
<!-- Generator: Adobe Illustrator 25.2.1, SVG Export Plug-In . SVG Version: 6.00 Build 0)  -->
<svg version="1.1" id="Layer_1" xmlns="http://www.w3.org/2000/svg" xmlns:xlink="http://www.w3.org/1999/xlink" x="0px" y="0px"
	 viewBox="0 0 445 92.7" style="enable-background:new 0 0 445 92.7;" xml:space="preserve">
<style type="text/css">
	.st0{fill:#2958EC;}
</style>
<g>
	<g>
		<path d="M336.4,6.3c0-0.6,0.1-1.5,0.9-1.4c2.2,0,4.4-0.1,6.6,0.1c0.2,5.1,0,10.3,0.1,15.4c0,17.6,0,35.3,0,52.9c-2.5,0-5,0-7.5,0
			c0-2.4,0.1-4.8,0-7.3c-0.7,0-1.1,0.5-1.5,1.1c-2,3-4.9,5.3-8.4,6.4c-4.7,1.4-10.1,1.1-14.4-1.3c-4.6-2.7-7.9-7.3-9.5-12.3
			c-1.8-6-1.6-12.6,0.7-18.5c1.6-4.1,4.5-7.9,8.4-10.1c5.9-3.6,13.9-3.5,19.5,0.7c1.9,1.2,3,3.3,4.8,4.6c0.1-0.6,0.3-1.2,0.3-1.8
			C336.4,25.3,336.4,15.8,336.4,6.3z M319.6,36.1c-3.1,0.7-5.8,2.8-7.6,5.4c-2.8,4.4-3.4,9.9-2.2,14.9c0.9,4.1,3.6,7.9,7.4,9.7
			c2.8,1.4,6.1,1.7,9.1,0.8c3.2-0.9,5.9-3.2,7.7-6c2.2-3.6,2.7-7.9,2.3-12c-0.5-3.7-2-7.4-4.8-9.9C328.3,36.2,323.7,35,319.6,36.1z"
			/>
	</g>
	<path d="M399.5,16.8c3.9-7.2,11.9-12.1,20.1-12c6.9,0,13.6,3.3,17.8,8.7c4.4,5.5,6.1,13,4.5,19.9c-1.1,5-4,9.5-7.9,12.8
		c-3.8,3.2-7.6,6.2-11.4,9.4c-0.5,0.4-1,0.7-1.6,0.9c-0.3-5.6,0-11.2-0.1-16.9c3.7-0.4,7.3-2.2,9.7-5c2.4-2.8,3.7-6.5,3.6-10.1
		c-0.1-4.3-2.1-8.5-5.4-11.2c-2.6-2.2-6-3.4-9.4-3.3c-4.2,0-8.3,2.1-10.9,5.3c-2.6,3.1-3.8,7.3-3.3,11.3c0.5,4.3,2.9,8.3,6.5,10.7
		c2,1.3,4.3,2.1,6.6,2.4c0,3.9,0,7.8,0,11.7c-7.2-0.2-14-4.4-17.8-10.4C395.7,33.9,395.4,24.2,399.5,16.8z"/>
	<path d="M411.9,24.3c2.3-1.1,5.6,0.6,5.4,3.4c-0.4,1.8-2.7,1.5-3.8,2.6c-1,0.6-1.3,2.3-2.7,2.1c-1.1,0-1.5-1.3-1.8-2.1
		C408.1,27.8,409.5,25.1,411.9,24.3z"/>
	<path d="M423.6,24.4c2.1-0.7,4.5,0.4,5.6,2.4c1,1.8,0.7,4.2-0.7,5.6c-0.6,0.3-1.5,0.3-2-0.3c-0.8-0.9-1.6-2-2.8-2.3
		c-0.9-0.3-2-0.5-2.4-1.5C420.8,26.6,422.1,24.9,423.6,24.4z"/>
	<g>
		<path d="M172.7,34.6c3.1-3.7,7.9-5.7,12.6-5.9c4.9-0.2,9.8,1.8,13.1,5.3c3.7,3.7,5.7,8.7,6.4,13.8c0.8,6.2-0.3,12.7-3.7,18
			c-2.8,4.5-7.5,7.8-12.7,8.5c-5.1,0.8-10.5-0.7-14.3-4.2c-1.3-1.2-2.2-2.8-3.6-3.8c-0.1,0.6-0.2,1.2-0.2,1.9c0,7.4,0,14.7,0,22.1
			c-2.5,0-5,0-7.5,0c0-20.1,0-40.2,0-60.3c2.4,0,4.9,0,7.3,0c0,2.5,0,4.9,0,7.4C171.4,36.7,171.9,35.5,172.7,34.6z M180.7,36.1
			c-4,1-7.3,4.1-8.8,7.9c-1.9,4.6-2,9.9-0.3,14.5c1.1,3,3.2,5.7,6.1,7.3c2.9,1.6,6.5,2.1,9.7,1.2c3.7-1,6.6-3.7,8.3-7.1
			c1.6-3.3,1.9-7,1.6-10.6c-0.5-4.2-2.2-8.4-5.7-10.9C188.5,36,184.4,35.1,180.7,36.1z"/>
	</g>
	<g>
		<path d="M215,34.2c3.4-3.9,8.6-5.3,13.6-5.5c4.9-0.1,10.2,0.8,13.9,4.2c3.7,3.3,5,8.4,5.2,13.1c0.1,6.8,0,13.6,0.1,20.5
			c1.6,0,3.2,0,4.8,0c0.1,2.2,0.2,4.5,0,6.7c-2.5,0.2-5,0-7.5,0.1c-2.1,0.1-3.9-1.6-4.4-3.5c-0.2-0.9-0.2-1.8-0.4-2.6
			c-1.2,1-2,2.3-3.3,3.2c-5.9,4.8-15.1,5.7-21.4,1.1c-5.5-4-6.5-12.7-2.2-17.8c2-2.4,5.3-2.9,8.2-3.4c4.5-0.8,9.1-1.5,13.5-2.6
			c1.5-0.5,3.4-0.9,4.1-2.5c0.9-2,0.1-4.4-1.1-6.1c-2-2.8-5.7-3.4-8.9-3.4c-3.4,0.1-7.2,1.2-9.1,4.2c-1.1,1.6-1.3,3.6-1.7,5.5
			c-2.5,0-5,0.1-7.5,0C210.9,41.2,212.2,37.2,215,34.2z M235.9,53.2c-3.3,0.7-6.6,1.5-9.9,2.1c-1.9,0.5-4,0.7-5.6,1.9
			c-2,1.6-2.1,4.6-1,6.8c1.2,2.2,3.6,3.1,5.9,3.7c2.9,0.3,6,0,8.7-1.4c3.1-1.4,5.5-4.3,6-7.7c0.3-2.3,0-4.7,0.1-7
			C238.7,52.2,237.4,52.9,235.9,53.2z"/>
	</g>
	<path d="M267.7,33.5c3.2-3.4,8-5.2,12.6-4.8c4.8,0.1,9.4,2.6,12.3,6.5c2.6,3.6,3.8,8.2,3.8,12.6c0,6.7,0,13.5,0,20.2
		c0,1.8,0.1,3.5-0.1,5.3c-2.5,0-5.1,0.1-7.6,0c-0.1-8.5,0.1-17-0.1-25.5c-0.2-3.8-1.4-7.9-4.6-10.1c-5.5-3.6-13.9-1.6-17.1,4.1
		c-1.7,2.6-1.8,5.8-1.8,8.9c0,7.5-0.1,15.1,0,22.6c-2.5,0-5.1,0-7.6,0c0-14.5,0-29,0-43.5c2.5,0,5.1-0.1,7.6,0c0.1,1.9,0,3.8,0,5.6
		c0,0.3,0.1,0.5,0.3,0.6C266.4,35.4,266.9,34.3,267.7,33.5z"/>
	<g>
		<path d="M356.8,32.7c3.4-2.7,7.8-3.8,12.1-4c4.6-0.1,9.5,0.8,13.2,3.7c3.7,3,5.3,7.7,5.6,12.3c0.2,7.2,0.1,14.5,0.1,21.7
			c1.6,0,3.2,0,4.9,0c0,2.3,0,4.5,0,6.8c-2.6,0-5.1,0-7.7,0c-1.5,0-2.9-1-3.7-2.3c-0.7-1.2-0.6-2.6-0.8-3.8c-1.3,1-2.2,2.3-3.4,3.3
			c-6,4.7-15.1,5.6-21.4,1c-5.2-3.8-6.2-11.8-2.7-17.1c1.4-2.1,3.8-3.2,6.2-3.6c5.4-1.1,10.9-1.8,16.2-3.2c1.6-0.4,3.5-1.1,4.1-2.8
			c0.7-2.3-0.2-4.8-1.8-6.5c-1.3-1.5-3.4-2.2-5.3-2.5c-3.4-0.5-7.1-0.2-10.1,1.8c-2.4,1.7-3.5,4.8-3.6,7.7c-2.5,0.1-5.1,0.1-7.6,0
			C350.9,40.5,353.1,35.7,356.8,32.7z M376.2,53.2c-3.5,0.7-6.9,1.6-10.4,2.2c-2.2,0.5-5,0.8-6.2,3c-1.3,2.5-0.7,5.9,1.7,7.5
			c1.9,1.2,4.1,2,6.3,1.8c4.5,0.1,9.4-2.1,11.6-6.2c1.6-3.1,1.1-6.7,1.1-10.1C378.9,52.2,377.6,52.9,376.2,53.2z"/>
	</g>
	<path d="M418.1,31.9c1.1-0.3,2.3-0.3,3.3,0.2c0.7,0.3,0.7,1.3,0.1,1.8c-1.1,0.9-2.8,0.8-3.9-0.1C416.9,33.2,417.2,32.1,418.1,31.9z
		"/>
</g>
<g>
	<path class="st0" d="M134.8,18.3c0-0.5,0-1.4,0.8-1.3c3.2,0,6.4,0,9.5,0c0,4.2,0,8.5,0,12.7c3.7,0,7.4,0,11.1,0c0,3,0,6,0,9
		c-3.7,0-7.4,0-11.1,0c-0.1,5.7-0.1,11.3-0.1,17c0,2.3-0.1,4.7,1.1,6.7c0.7,1.2,1.8,2,3.2,2.3c2.3,0.6,4.8,0.4,7-0.5
		c0.1,3.2,0.2,6.4,0.3,9.5c-4.1,0.6-8.5,1.2-12.5-0.2c-2.7-0.9-5.2-2.5-6.7-5c-2-3.2-2.5-7.1-2.5-10.7c0-6.3,0-12.6,0.1-18.9
		c-2.3,0-4.6,0-7,0c0-3,0-6,0-9.1c2.3,0,4.6,0,6.9,0C134.8,26,134.8,22.2,134.8,18.3z"/>
	<path class="st0" d="M18.9,29.1c5.2-1.2,10.8-0.3,15.3,2.4c2.2,1.3,4.3,2.8,5.9,4.8c2.2,2.7,3.4,6.1,4.1,9.4c-3.6,0-7.2,0-10.8,0
		c-0.9-2.5-2.4-5-4.7-6.3c-3.3-1.8-7.5-1.9-10.8-0.2c-3.1,1.7-5.1,4.9-5.9,8.3c-1.2,5.2-0.1,11.3,4,14.9c4,3.9,11.1,3.5,14.9-0.6
		c1.3-1.5,2.2-3.3,2.7-5.2c3.6,0,7.1,0,10.7,0c-0.7,5-3.3,9.9-7.2,13.1c-4.4,3.7-10.5,5-16.1,4.6c-6.1-0.4-11.8-3.8-15.5-8.6
		c-2.9-3.8-4.4-8.6-4.4-13.4C1,47,2.2,41.4,5.5,37.2C8.8,32.9,13.8,30.3,18.9,29.1z"/>
	<g>
		<path class="st0" d="M57.2,30.9c5.8-2.6,12.5-3,18.5-1c3.3,1,6.4,3,8.4,6c2,3.1,2.8,6.9,2.8,10.6c0,5.4,0,10.8,0,16.1
			c0,0.6-0.1,1.6,0.7,1.7c1.9,0.1,3.9,0,5.8,0.1c0,3,0,5.9,0,8.9c-4.2,0-8.5,0-12.7,0c-1.4,0.1-2.8-1-3-2.5
			c-0.3-1.4-0.3-2.9-0.4-4.3c-2.6,3.7-6.5,6.5-11,7.5c-5,1.1-10.6,0.1-14.4-3.5c-4.1-3.9-4.9-10.7-2.3-15.6c1.2-2.3,3.7-3.6,6.1-4
			c4.4-1,8.8-1.6,13.2-2.5c1.9-0.4,4-0.5,5.6-1.7c1.3-0.9,2-2.6,1.5-4.2c-0.6-2.2-2.5-3.7-4.6-4.3c-3.5-1-7.6-0.7-10.5,1.7
			c-1.8,1.4-2.3,3.7-2.5,5.8c-3.4,0-6.8,0-10.2,0c0.2-2.4,0.4-4.9,1.4-7.2C51.1,35.1,53.8,32.3,57.2,30.9z M72,54.1
			c-3.6,0.8-7.2,1.3-10.7,2.4c-2.4,0.8-3.1,3.9-2.1,6.1c0.8,1.6,2.6,2.2,4.2,2.7c3,0.9,6.2,0.3,8.9-1.2c1.8-1,3.3-2.5,3.8-4.5
			c0.6-2.4,0.2-4.9,0.4-7.4C75.2,53.3,73.6,53.8,72,54.1z"/>
	</g>
	<path class="st0" d="M110.9,32.4c3.5-3.7,9.5-4.5,13.9-2c0.2,3.5-0.1,7-0.1,10.5c-3.1-1-6.3-2.3-9.6-1.4c-4.5,1.3-7.5,5.9-7.5,10.5
		c-0.1,7.8,0,15.6-0.1,23.4c-3.4,0-6.8,0-10.2,0c0-14.5,0-29,0-43.4c3.3,0,6.6,0,9.9,0c0,1.6,0,3.3,0,4.9c0,0.6,0,1.4,0.4,1.9
		C108.8,35.4,109.5,33.6,110.9,32.4z"/>
</g>
</svg>
