<?xml version="1.0" encoding="utf-8"?>
<!-- Generator: Adobe Illustrator 25.2.1, SVG Export Plug-In . SVG Version: 6.00 Build 0)  -->
<svg version="1.1" id="Layer_1" xmlns="http://www.w3.org/2000/svg" xmlns:xlink="http://www.w3.org/1999/xlink" x="0px" y="0px"
	 viewBox="0 0 445 105.5" style="enable-background:new 0 0 445 105.5;" xml:space="preserve">
<style type="text/css">
	.st0{fill:#08ACEB;}
	.st1{fill:#FF7700;}
</style>
<path class="st0" d="M155.3,41.3c3.1-0.5,6.2-0.8,9.3-0.8c15.2,0,15.7,9.4,13.7,17.4c-1.3,5.6-4.5,10.7-8.9,14.3
	c-4.6,3.3-10.2,5-15.8,4.7c-2.5,0-5.1-0.1-7.6-0.4C145.9,76.6,155.3,41.3,155.3,41.3z M152.3,72.5c1.1,0.2,2.3,0.2,3.5,0.2
	c8,0,14.1-4.7,16.7-14.6c2.3-8.7-0.9-13.2-8.6-13.2c-1.4,0-2.9,0.1-4.3,0.4L152.3,72.5z M196.9,55.7c-0.5-0.1-1-0.2-1.5-0.2
	c-3.6,0-6.7,3-7.8,7.5l-3.7,13.7h-5.4l4.8-18c0.8-3,1.4-5.5,2-7.8h4.7l-1.1,4.7h0.2c1.7-3,4.7-5,8.1-5.3c0.4,0,0.9,0,1.3,0.1
	C198.4,50.5,196.9,55.7,196.9,55.7z M221.1,63.6c-2.6,9.7-9.8,13.7-15.7,13.7c-6.6,0-10.4-4.9-8.2-13.3c2.3-8.7,9-13.7,15.7-13.7
	S223.2,55.7,221.1,63.6z M211.8,54.4c-4.6,0-7.7,5-8.9,9.4c-1.4,5.1-0.1,9.4,3.8,9.4c4,0,7.5-4.3,8.8-9.4
	C216.7,59.5,216.3,54.4,211.8,54.4z M233.7,54.8c2.3-2.8,5.7-4.5,9.4-4.5c5.8,0,8.7,5.2,6.5,13.2c-2.5,9.5-9.1,13.7-14.5,13.7
	c-2.5,0.3-4.9-1.2-5.9-3.6h-0.1l-3.6,13.5h-5.4l7.5-28c0.9-3.4,1.5-6.1,2-8.4h4.7l-0.8,3.9L233.7,54.8z M231.1,66.3
	c-1.3,4.6,1.4,6.6,4,6.6c4.2,0,7.5-3.9,8.9-9.3c1.3-4.9,0.2-9-3.9-9c-3.8,0.4-6.9,3.2-7.8,6.9L231.1,66.3z M269.7,55.7
	c-1.3-1-2.9-1.5-4.5-1.5c-2.1-0.1-4,1.2-4.6,3.2c-0.5,1.8,0.5,2.7,3.2,4c3.8,1.7,5.4,4.1,4.4,7.8c-1.3,5-5.9,7.8-11.8,7.8
	c-2.3,0.1-4.6-0.5-6.5-1.7l2.3-4c1.6,1.1,3.5,1.7,5.4,1.7c2.3,0.3,4.5-1.1,5.2-3.4c0.5-2-0.3-3.1-3-4.4c-4.1-1.8-5.4-4.4-4.5-7.4
	c1.5-4.8,5.9-8,10.9-7.8c2-0.1,4,0.5,5.7,1.5C271.9,51.6,269.7,55.7,269.7,55.7z M292.7,76.7h-5.4l4-15.1c1-3.7,0.6-6.8-3-6.8
	c-3.4,0.3-6.3,2.8-7.1,6.1L277,76.7h-5.4l10-37.7h5.5L283,54.4c2.1-2.5,5.2-3.9,8.4-4.1c3.9,0,7.6,2.6,5.4,10.8
	C296.8,61.1,292.7,76.7,292.7,76.7z M304.8,76.7h-5.4l6.9-25.9h5.4L304.8,76.7z M310.1,46.9c-1.3,0.1-2.3-0.8-2.4-2.1
	c0-0.4,0-0.7,0.2-1.1c0.5-1.8,2.1-3.1,3.9-3.2c2,0,2.7,1.4,2.3,3.2C313.6,45.5,312,46.8,310.1,46.9z M322.6,54.8
	c2.3-2.8,5.7-4.5,9.4-4.5c5.8,0,8.7,5.2,6.5,13.2C336,73,329.4,77.2,324,77.2c-2.5,0.3-4.9-1.2-5.9-3.6H318l-3.6,13.5H309l7.5-28
	c0.9-3.4,1.5-6.1,2-8.4h4.7l-0.8,3.9L322.6,54.8z M319.9,66.3c-1.3,4.6,1.4,6.6,4,6.6c4.2,0,7.5-3.9,8.9-9.3c1.3-4.9,0.2-9-3.9-9
	c-3.8,0.4-6.9,3.2-7.8,6.9L319.9,66.3z M351,54.8c2.3-2.8,5.7-4.5,9.4-4.5c5.8,0,8.7,5.2,6.5,13.2c-2.5,9.5-9.1,13.7-14.5,13.7
	c-2.5,0.3-4.9-1.2-5.9-3.6l-3.6,13.5h-5.4l7.5-28c0.9-3.4,1.5-6.1,2-8.4h4.8L351,54.8L351,54.8z M348.4,66.3c-1.3,4.6,1.4,6.6,4,6.6
	c4.2,0,7.5-3.9,8.9-9.3c1.3-4.9,0.2-9-3.9-9c-3.8,0.4-6.9,3.2-7.8,6.9L348.4,66.3z M374,76.7h-5.4l7-25.9h5.4L374,76.7z M379.3,46.9
	c-1.3,0.1-2.3-0.8-2.4-2.1c0-0.4,0-0.7,0.2-1.1c0.5-1.9,2.2-3.2,4.1-3.2s2.7,1.4,2.3,3.2C382.9,45.6,381.3,46.9,379.3,46.9z
	 M402.1,76.7h-5.4l4-15.2c1-3.6,0.6-6.7-3.1-6.7c-3.5,0.3-6.4,2.9-7.2,6.3l-4.2,15.7H381l5-18.6c0.8-2.9,1.3-5.1,1.8-7.3h4.7
	l-0.7,3.9h0.1c2.2-2.8,5.5-4.4,9-4.6c3.9,0,7.8,2.6,5.6,10.6C406.4,60.9,402.1,76.7,402.1,76.7z M437.2,50.9
	c-0.6,1.8-1.3,3.9-2.2,7.5l-3.9,14.7c-1.4,5.2-4.4,14.7-16.5,14.7c-2.7,0.1-5.3-0.6-7.6-2l2.3-4.2c1.9,1.3,4.1,1.9,6.4,1.8
	c4.2,0,7.8-2.4,9.4-8.2l0.7-2.5h-0.1c-2,2.4-5,3.8-8.1,3.8c-6,0-8.7-5.4-6.8-12.6c2.4-8.8,8.9-13.7,14.5-13.7c3.8,0,5.4,2,5.9,4
	l1.2-3.5L437.2,50.9z M428.9,60.9c0.9-3.4-0.5-6.2-3.9-6.2c-3.7,0-7.3,3.6-8.8,9.1c-1.4,5.1,0,8.7,3.9,8.7c3.6-0.3,6.6-2.9,7.3-6.5
	C427.4,65.9,428.9,60.9,428.9,60.9z"/>
<path class="st1" d="M133.7,31.8c1.4,0,3.6,0.1,6.5,0.2c-2.2,14.6-5.4,25.7-9.6,33.3c-5.9,11.5-8.9,16.7-15.3,22.8
	c-6.2,5.8-15.6,15.6-35.6,10.3c-14.8-3.9-17.6-19-15.4-26.1c2.3-7.1,9.4-13.6,22.9-13.6c9,0,19.7,4,31.9,12l0.2,1.5l-3.8,2.4l-2,0.2
	C102.4,66.9,91.7,63,81.2,62.9c-10.8,0.4-14.6,10.1-14,12.9c-0.1,2.5,1.1,15.3,16.5,18.5c10.7,2.7,18.6,0,27-6.3
	c7.6-5.2,14.9-21.1,15.3-22.1s0-1.2-0.4-0.8c-2.1,2.2-5.5,2.2-7.7,0.2l-0.2-0.3c-0.8-1.4-1-3.1-0.4-4.7h1.5c2.3,3.5,4.1,4.2,5.5,1.9
	c1.5-2.5-1.5-5-2.6-5.9c-3.3-3.2-4.9-7.7-4.3-12.3c0.5-5.2,3.8-9.7,8.6-11.6C128.5,31.8,131.1,31.6,133.7,31.8z M90.3,7.5
	c1.5,1.5,2.3,3.6,2.3,5.7c0.7-0.3,1.5-0.5,2.2-0.5c0.9,0.1,1.5,0.8,1.4,1.7l0,0v0.3c-0.4,1.4-3.7,2.7-3.7,2.7s-3.1,7.8-4.2,9.5
	C87,29.6,79,39.8,72.9,44s-10.5,6.3-14,3.4c-3.5-3,1-9.9,2.7-12.7c3.4-4.5,7.5-8.4,12.1-11.6c9.1-7.1,11.8-7.7,12.5-8.1
	c0.7-0.4,0.5-3.3,0.4-3.5s-0.7-2.7-6.7-1.5S57.4,20.1,51.3,24.9S26.4,43.4,20.9,52.6l-0.6,1c-5.2,8.9-9.4,17.8-3.2,22.5
	c3.1,2.5,10.9,1.3,13.1,0.6c7.1-2.5,13.8-6,19.8-10.4c1.4-1.2,2.8-2.4,4.3-3.5c0.3-0.1,2.9-0.4,2.4,2.7S54,71.8,46.6,76.1
	c-7.4,4.3-20,9.8-28.4,6C9.7,78.2,8,72.3,8,67.5C8.5,60,11.2,52.9,15.7,47c4.2-5.9,9.1-11.2,14.5-16c2.5-2.2,6-4.8,10.5-7.9
	C54.6,14,65.7,8.5,74.1,6.5C86.7,3.5,88.6,6,90.3,7.5z M123.2,38.5c-2.2,2-2.8,5.2-1.4,7.9c1.4,2,2.9,3.8,4.7,5.5
	C128,53.1,129,55,129,57c1.1-2.7,1.9-5.5,2.5-8.4c0.4-2.4,1.1-6.3,2.3-11.8C128.9,36,125.3,36.5,123.2,38.5z M83.9,19.8
	C78,24.1,72.6,29,68,34.7c-7.7,9.2-5.3,8.1-4.1,7.7c1.2-0.4,8.7-7.6,13.4-13.1c4.9-6,6.9-8,7.2-8.9C84.9,19.5,83.9,19.8,83.9,19.8z"
	/>
</svg>
