<?xml version="1.0" encoding="utf-8"?>
<svg version="1.1" id="Layer_1" xmlns="http://www.w3.org/2000/svg" xmlns:xlink="http://www.w3.org/1999/xlink" x="0px" y="0px"
	 viewBox="0 0 863.1 174" style="enable-background:new 0 0 863.1 174;" xml:space="preserve">
<style type="text/css">
	.st0{fill:#FFFFFF;}
	.st1{fill:#757575;}
	.st2{fill:#4285F4;}
	.st3{fill:#EA4335;}
	.st4{fill:#FBBC05;}
	.st5{fill:#34A853;}
</style>
<g>
	<path class="st0" d="M335.6,77.4c3.5-3.7,9.1-5.1,14-3.8c3,0.8,5.9,2.7,7,5.7c-5.4,2.3-10.8,4.4-16.2,6.7c-3.2,1.3-6.3,2.8-9.7,3.7
		C330.7,85.2,332.2,80.6,335.6,77.4z"/>
</g>
<g>
	<path class="st1" d="M405.8,51.7c8.4-9.6,24.4-10.8,34.5-3.2c3.7,2.6,6.5,6.4,8.1,10.6c-2.6,1.2-5.2,3-8.1,3.1
		c-2.5-4-5.5-8.2-10.4-9.3c-3.3-1.1-6.3-1-9.8,0c-3.5,0.8-6.7,3-8.7,6c-1.3,2-1.1,4.4-1.1,6.6c-0.1,2.8,2,5.1,4.2,6.6
		c5.9,4,13,5.2,19.4,8.1c4.5,2.1,9,4.7,12.3,8.6c4.2,5.1,5.1,12.1,3.9,18.4c-1.5,7.2-7.2,13-13.9,15.5c-5.1,2.1-10.7,2.2-16.1,1.6
		c-10.3-2-19.4-10.2-21.8-20.6c2.6-1.2,5.3-2.4,8.1-3c1.8,4.5,4.2,9.1,8.3,11.9c3.1,2.4,6.9,3.5,10.8,3.3c4.8,0.3,9.8-1.5,13.2-5.1
		c3-3.6,4.1-8.9,2.2-13.3c-1.7-4.4-6.1-6.9-10.1-8.7c-6.6-3.1-14-4.5-20.1-8.5c-3.3-2.1-6.5-4.7-8.1-8.4
		C399.9,65.3,401,57.1,405.8,51.7z"/>
	<path class="st1" d="M722.2,44.6c1.9-0.1,4,0.5,5.2,2c1.6,1.8,1.6,4.4,1.2,6.6c-0.8,2.5-3.4,4.3-5.9,4.5c-3.4-0.3-6.8-3.4-6.5-7
		C716.1,47.5,719.1,44.7,722.2,44.6z"/>
	<path class="st1" d="M463.1,45.5c2.8-0.3,5.5-0.4,8.3-0.1l0.4,0.4c0.2,10,0,20,0,29.9c3-3.1,5.9-6.6,10.1-8.2
		c3.5-1.8,7.5-1.2,11.3-1.3c6.7-0.1,12.9,4.5,15.5,10.5c1.4,3.5,2.2,7.2,2.1,10.9c0,11.8,0.1,23.6,0,35.5c-2.9,0.1-5.7,0.1-8.6,0
		c-0.1-10.6,0-21.1,0-31.7c0.2-4-0.2-8.3-2.3-11.8c-2.5-4.1-7.6-5.8-12.2-5.8c-9,0.7-15.7,9.5-15.8,18.2c0,10.4,0.1,20.7,0,31.1
		c-2.9,0.1-5.8,0.1-8.6,0C463.1,97.3,463.2,71.4,463.1,45.5z"/>
	<g>
		<path class="st1" d="M545.5,66.2c7.4-1.1,15.2,0.7,21.2,5.1c7.5,5.4,11.4,14.8,11.6,23.9c-0.1,7.8-2.9,15.9-8.5,21.4
			c-5.2,5.3-12.7,8.5-20.2,8c-7.1,0.4-14.2-2.7-19.3-7.7c-7.9-7.5-10.6-19.5-7.7-29.8C525,76.3,534.4,67.6,545.5,66.2z M546.2,74.3
			c-5.6,1.2-10.7,4.6-13.3,9.7c-3.7,6.8-3.7,15.3-0.3,22.1c2.4,4.6,6.6,8.2,11.6,9.7c5.4,1.8,11.6,0.8,16.3-2.4
			c9.1-6,11.2-19.1,6.7-28.6C563.5,77.3,554.4,72.4,546.2,74.3z"/>
	</g>
	<g>
		<path class="st1" d="M820.5,66.4c6-1.2,12.6-0.3,17.8,3.2c2.5,1.6,4.3,4,6.6,5.8c0.2-2.6,0.1-5.2,0.1-7.7c2.8-0.1,5.7-0.1,8.6,0.1
			c0,18.1,0,36.1,0,54.1c-0.4,6.2-1.7,12.6-5.7,17.5c-3.9,4.7-9.7,7.6-15.7,8.6c-3.3,0.3-6.6,0.2-9.9,0.1
			c-8.6-0.8-16.8-6.5-19.9-14.6c2.2-1.8,4.9-2.8,7.6-3.6c2.1,3.3,4.5,6.7,8.1,8.4c6,3,13.6,2.6,19.4-0.7c4.3-2.4,6.6-7.3,7.3-12
			c0.3-3.5,0.1-7,0-10.5c-3.9,4.2-8.3,8.2-14,9.3c-4.8,0.6-9.9,0.8-14.5-1.2c-6.8-2.7-12.1-8.7-14.6-15.5
			c-3.4-9.5-2.8-20.5,2.4-29.3C807.7,72.4,813.6,67.7,820.5,66.4z M823.4,74.2c-7.4,1.4-13.1,7.8-14.6,15.1
			c-1,6.3-0.8,13.2,2.7,18.8c4.3,7.8,14.9,10.8,22.8,6.9c5.7-2.6,9.3-8.4,10.4-14.4c0.8-5.7,0.6-11.8-2.2-16.9
			C839.1,76.8,830.9,72.6,823.4,74.2z"/>
	</g>
	<g>
		<path class="st1" d="M604.2,69.3c2.9-1.8,6.2-3.2,9.6-3c3.6,0.1,7.5-0.4,10.9,1c6.8,2.4,12.3,7.9,15.1,14.5
			c3.8,8.7,3.7,19.1-0.3,27.8c-3.5,7.6-10.6,13.5-18.9,14.9c-4.6,0.3-9.5,0.5-13.8-1.6c-4.1-1.6-6.9-5-10-8c0,10.5,0,21,0.1,31.6
			c-2.7,0.6-5.6,0.5-8.3,0c0.1-26.3,0-52.5,0-78.8c2.7-0.1,5.4-0.1,8.1,0c0,2.8,0,5.6,0.1,8.5C599.3,73.8,601.3,71,604.2,69.3z
			 M612.4,74.2c-3.7,0.8-7.3,2.6-9.9,5.3c-3.9,4.2-6.1,10-5.7,15.7c-0.2,4.4,0.9,9,3.3,12.7c3.9,6.5,12.2,10.3,19.6,8.2
			c6.4-1.7,11.5-7.1,13.2-13.5c2.9-9.1,0.2-20.3-8-25.8C621.1,74.7,616.7,73.1,612.4,74.2z"/>
	</g>
	<g>
		<path class="st1" d="M668.5,69.2c2.8-1.6,5.8-3,9.1-2.9c2.9,0,5.7-0.2,8.6,0.2c7.3,1.6,13.5,6.8,16.9,13.4c6.3,12,4.7,28.4-5.3,38
			c-3.5,3.4-8,5.8-12.8,6.6c-4.6,0.3-9.5,0.6-13.7-1.5c-4.1-1.6-7.2-4.8-10.1-7.9c0,10.5,0.1,21,0,31.4c-2.9,0.4-5.8,0.3-8.7,0.2
			c-0.1-26.3,0-52.7-0.1-79c2.7-0.2,5.5-0.2,8.2,0c0,2.8-0.1,5.6,0.1,8.4C663.3,73.8,665.4,70.9,668.5,69.2z M676.1,74.3
			c-4.4,1-8.4,3.5-11.1,7.1c-6.6,9-5.8,23,2.5,30.7c4.5,4,11,5.9,16.8,3.9c5.9-1.7,10.6-6.7,12.4-12.5c1.2-3.9,1.9-8,1-12
			c-0.8-6.4-4.6-12.7-10.6-15.5C683.8,74.4,679.9,73.1,676.1,74.3z"/>
	</g>
	<path class="st1" d="M750.4,76.1c4.1-4.3,8.7-9.1,15-9.7c4.3,0,8.9-0.7,12.9,1.2c7,2.8,11,10.4,11,17.7c0,12.6,0,25.2,0,37.8
		c-2.9,0.2-5.8,0.2-8.6,0.1c-0.1-12.2,0-24.5-0.1-36.7c-0.1-4.2-2.1-8.6-6-10.6c-2.6-1.3-5.6-2.2-8.5-2.1
		c-6.1,0.5-11.5,4.8-13.7,10.5c-2.1,4.6-1.5,9.7-1.5,14.6c0,8,0,16,0,24c-2.9,0.5-5.8,0.3-8.7,0.3c-0.1-18.5,0-37.1,0-55.6
		c2.7-0.1,5.4-0.1,8.1,0C750.4,70.4,750.3,73.2,750.4,76.1z"/>
	<path class="st1" d="M718.6,67.6c2.7-0.1,5.5-0.1,8.2,0c0,18.5,0.1,37,0,55.6c-2.7,0.1-5.4,0.1-8.1,0
		C718.5,104.7,718.6,86.1,718.6,67.6z"/>
</g>
<path class="st2" d="M54.6,72.2v12.2h29c-0.9,6.8-3.2,11.8-6.6,15.3c-4.2,4.2-10.9,8.9-22.4,8.9c-17.9,0-31.9-14.4-31.9-32.3
	s14-32.3,31.9-32.3c9.6,0,16.7,3.8,21.9,8.7l8.5-8.5c-7.2-7-16.9-12.3-30.4-12.3c-24.5,0-45.1,20-45.1,44.5s20.6,44.5,45.1,44.5
	c13.2,0,23.2-4.3,31-12.4c8-8,10.5-19.3,10.5-28.4c0-2.8-0.2-5.4-0.6-7.6H54.6z"/>
<path class="st3" d="M132.5,62.3c-15.9,0-28.8,12.1-28.8,28.7c0,16.5,12.9,28.7,28.8,28.7s28.8-12.2,28.8-28.7
	C161.3,74.4,148.3,62.3,132.5,62.3z M132.5,108.4c-8.7,0-16.2-7.2-16.2-17.4c0-10.3,7.5-17.4,16.2-17.4s16.2,7.1,16.2,17.4
	C148.7,101.2,141.1,108.4,132.5,108.4z"/>
<path class="st2" d="M273.6,68.7h-0.4c-2.8-3.4-8.2-6.4-15.1-6.4c-14.3,0-26.8,12.5-26.8,28.7c0,16.1,12.5,28.7,26.8,28.7
	c6.9,0,12.3-3.1,15.1-6.5h0.4v4c0,11-5.9,16.8-15.3,16.8c-7.7,0-12.5-5.5-14.5-10.2l-11,4.5c3.2,7.6,11.5,16.9,25.4,16.9
	c14.8,0,27.3-8.7,27.3-29.9V63.8h-12V68.7z M259.1,108.4c-8.7,0-15.3-7.4-15.3-17.4c0-10.1,6.6-17.4,15.3-17.4
	c8.6,0,15.3,7.4,15.3,17.5C274.5,101.1,267.7,108.4,259.1,108.4z"/>
<path class="st4" d="M196.7,62.3c-15.9,0-28.8,12.1-28.8,28.7c0,16.5,12.9,28.7,28.8,28.7s28.8-12.2,28.8-28.7
	C225.5,74.4,212.5,62.3,196.7,62.3z M196.7,108.4c-8.7,0-16.2-7.2-16.2-17.4c0-10.3,7.5-17.4,16.2-17.4s16.2,7.1,16.2,17.4
	C212.9,101.2,205.4,108.4,196.7,108.4z"/>
<path class="st5" d="M295.5,32.9h12.4v86.8h-12.4V32.9z"/>
<path class="st3" d="M346.1,108.4c-6.4,0-11-2.9-13.9-8.7l38.4-15.9l-1.3-3.3c-2.4-6.4-9.7-18.3-24.5-18.3
	c-14.8,0-27.1,11.6-27.1,28.7c0,16.1,12.2,28.7,28.5,28.7c13.1,0,20.7-8.1,23.9-12.7l-9.8-6.5C357,105.2,352.5,108.4,346.1,108.4
	L346.1,108.4z M345.2,73.1c5.1,0,9.4,2.6,10.9,6.3l-25.9,10.7C330.2,78.1,338.7,73.1,345.2,73.1z"/>
</svg>
