<?xml version="1.0" encoding="UTF-8"?>
<svg id="Layer_1" data-name="Layer 1" xmlns="http://www.w3.org/2000/svg" version="1.1" viewBox="0 0 1103.4 189.2">
  <defs>
    <style>
      .cls-1 {
        fill: #231815;
      }

      .cls-1, .cls-2 {
        stroke-width: 0px;
      }

      .cls-2 {
        fill: #e71a0f;
      }
    </style>
  </defs>
  <g>
    <path class="cls-2" d="M137.2,8.7c0,37.4,0,74.8,0,112.2,29.3-37.4,58.5-74.8,87.7-112.1,0,54.9,0,109.8,0,164.8h-38.9v-62.5c-16.3,20.8-32.6,41.6-48.9,62.5h-25.9v-100c-26.1,33.3-52.2,66.7-78.2,100-8.2,0-16.5,0-24.7,0v-.3c3.1-3.7,6.1-7.6,9.1-11.4C57.3,110.8,97.3,59.8,137.2,8.7Z"/>
    <path class="cls-2" d="M41.1,173.5c21.2-27.1,42.5-54.3,63.7-81.4,0,9.9,0,19.8,0,29.8.3,1.8-1.1,3.2-2,4.5-12.3,15.7-24.6,31.4-36.9,47.1h-24.8Z"/>
  </g>
  <g>
    <path class="cls-1" d="M476.2,70.3h17.4c0,29.7,0,59.4,0,89.2-14.1,3.1-28.9,5.9-43.2,2.5-10.6-2.5-18.1-12.2-19.7-22.7-2.1-12.6-1.8-27.9,8.3-37.1,10.3-8.4,25.3-8.7,37.3-4.1,0-9.2,0-18.4,0-27.7ZM454.2,111.4c-5.7,3-7.4,10-7.3,15.9-.1,7.1,1.4,15.7,8.1,19.5,6.6,3.5,14.4,1.6,21.3.3,0-11.6,0-23.1,0-34.7-6.9-2.7-15.1-4.6-22.1-1.1Z"/>
    <path class="cls-1" d="M618.5,70.3h17.4v17.4h-17.4v-17.4Z"/>
    <path class="cls-1" d="M792.3,72.8c16.3-4.8,34.1-4,50.1,1.3,0,5.3,0,10.5,0,15.8-13.2-5.1-28.1-7.1-41.8-2.9-8,2.4-14.4,9.1-16.5,17.2-2.4,9.6-2,20.1,1.9,29.2,3.2,7.5,10.5,12.7,18.4,14.5,12.7,2.9,26,.8,38-3.8,0,5.3,0,10.5,0,15.8-16,5.2-33.7,6.1-49.9,1.2-11.4-3.4-21-12.5-24.6-23.9-4.2-13.1-4.4-27.6-.4-40.7,3.5-11.5,13.3-20.3,24.7-23.6Z"/>
    <path class="cls-1" d="M929,70.3h17.3v17.4h-17.3c0-5.8,0-11.6,0-17.4Z"/>
    <path class="cls-1" d="M249.7,163.6v-93.2h22.1c9.1,22.8,18.1,45.5,27.2,68.2,9.1-22.7,18.1-45.5,27.2-68.2,7.3,0,14.7,0,22.1,0v93.2h-16.1c0-21.5,0-43,0-64.5-8.6,21.5-17.1,43-25.7,64.5-4.9,0-9.9,0-14.8,0-8.6-21.6-17.2-43.2-25.8-64.7,0,21.6,0,43.1,0,64.7h-16Z"/>
    <path class="cls-1" d="M853.7,163.6c0-31.1,0-62.2,0-93.2,5.8,0,11.6,0,17.3,0,0,11.4.1,22.9-.1,34.3,8.7-10.2,24.5-12.6,35.9-5.9,6.6,4.1,9.1,12.3,9.2,19.7.2,15.1,0,30.1,0,45.2h-17.4c0-14.1,0-28.2,0-42.2,0-4-.8-9-4.9-10.9-7.8-3.4-17.3.3-22.5,6.5-.6,15.5,0,31.1-.3,46.7h-17.3Z"/>
    <path class="cls-1" d="M364.5,98.2c13.6-2.8,28.2-5.2,41.7-.8,7.8,2.4,13.6,9.7,13.7,17.9.4,16,0,32.1.2,48.2h-12.2c-.8-1.9-1.7-3.9-2.5-5.8-11.1,6.1-25.1,8.1-36.8,2.7-8.9-4.3-11.3-15.7-8.8-24.6,1.6-6.1,7.1-10.3,13-12.1,9.8-3,20.1-2.2,30.1-.9-.2-4.8,0-11.5-5.9-12.9-10.7-2.7-21.9.1-32.5,2.1v-13.8ZM381.1,134.8c-6.9,2.2-6.2,13.7.6,15.5,7.2,2.2,14.6-.7,20.9-4.3,0-3.8,0-7.6,0-11.4-7.1-.7-14.5-2.3-21.4.1Z"/>
    <path class="cls-1" d="M510.6,104.1c6.9-7.8,18.1-9.5,27.9-9,8.5.3,17.6,3.4,22.6,10.7,6,8.6,5.8,19.5,5,29.5-15.4.1-30.8,0-46.2.1,1.2,4.9,3.2,10.3,8.5,12.1,10.9,4,22.9,1.8,34.1.4v13.8c-14.2,2-29.6,3.8-43.1-2.2-9.6-4.3-15.2-14.5-16-24.7-.9-10.5-.1-22.3,7.1-30.6ZM527.4,110.5c-4.8,2.4-5.8,8.1-7.2,12.7,10,0,20,0,30,0-1-4.4-1.4-9.8-5.7-12.3-5.1-2.8-11.8-2.9-17.1-.4Z"/>
    <path class="cls-1" d="M618.5,95h17.4v68.6h-17.4v-68.6Z"/>
    <path class="cls-1" d="M648.8,95h12.2c.8,3.2,1.6,6.4,2.4,9.6,10.1-10,27.4-13.1,39.6-5.2,6.3,4.6,8.3,13,8.3,20.4,0,14.6,0,29.2,0,43.7h-17.3c0-14.1,0-28.2,0-42.2,0-4.4-1.1-9.8-5.8-11.3-7.6-2.6-16.6.9-21.6,6.9-.6,15.5,0,31.1-.3,46.6h-17.3c0-22.9,0-45.7,0-68.6Z"/>
    <path class="cls-1" d="M928.9,95h17.4c0,22.8,0,45.7,0,68.6h-17.4v-68.6Z"/>
    <path class="cls-1" d="M959.2,95h12.2c.8,3.2,1.6,6.4,2.4,9.6,9.4-9.3,24.5-12.4,36.6-7,7.8,3.6,11.1,12.5,11.2,20.6.3,15.1,0,30.2,0,45.3h-17.4c0-14.1,0-28.2,0-42.3,0-4.1-.9-9.1-5-10.9-6.2-2.8-13.5-.5-18.8,3.2-1.6,1.2-3.9,2.4-3.7,4.8-.3,15.1,0,30.1-.1,45.2h-17.4v-68.6Z"/>
    <path class="cls-1" d="M1036.8,98.2c13.7-2.9,28.4-5.2,42-.7,7.6,2.4,13.3,9.7,13.4,17.8.4,16.1,0,32.1.2,48.2h-12.1c-.9-2-1.7-3.9-2.5-5.8-11,6.1-25,8.1-36.7,2.8-9-4.3-11.4-16-8.8-24.8,1.7-6,7.2-10.2,13-11.8,9.8-3,20.1-2.2,30.1-.9-.3-4.7-.1-11.4-5.8-12.9-10.8-2.8-22,0-32.7,2,0-4.6,0-9.2,0-13.8ZM1053.5,134.8c-7,2.2-6.4,13.7.5,15.6,7.3,2.2,14.7-.7,21-4.4,0-3.7,0-7.5,0-11.2-7.1-.7-14.5-2.3-21.4,0Z"/>
    <path class="cls-1" d="M574.6,136.2v-13.8h32.8v13.8h-32.8Z"/>
    <path class="cls-1" d="M722.5,122.4h32.7v13.8h-32.7v-13.8Z"/>
  </g>
</svg>