<?xml version="1.0" encoding="utf-8"?>
<svg version="1.1" id="Layer_1" xmlns="http://www.w3.org/2000/svg" xmlns:xlink="http://www.w3.org/1999/xlink" x="0px" y="0px"
	 viewBox="0 0 549.6 141.9" style="enable-background:new 0 0 549.6 141.9;" xml:space="preserve">
<style type="text/css">
	.st0{fill:#2D3277;}
	.st1{fill:#FFFFFF;}
	.st2{fill:#FFD100;}
</style>
<g>
	<g id="g30" transform="matrix(3.8022868,0,0,3.8022868,76.174083,280.3883)">
		<path id="path2" class="st0" d="M33.2-56.3C33.2-65.8,21.4-73.4,7-73.4H6.7C2-73.4-2.6-72.6-7-70.9c-7.3,2.9-12.3,8.1-12.6,14
			c0,0.2,0,0.3,0,0.5c0,0.2,0,0.1,0,0.2v0.1c0,0,0,0.1,0,0.1v0.8c0,0,0,0.1,0,0.1v0.1c0,0.1,0,0.3,0,0.4s0,0.2,0,0.4
			c0.3,4.7,2.8,9,7.3,12.1c4.8,3.4,11.3,5.2,18.9,5.2H7c7.8-0.1,14.4-2,19.2-5.5c4.6-3.4,7.1-8,7.1-13L33.2-56.3z"/>
		<path id="path4" class="st1" d="M4.2-49c0.2-0.1,0.5-0.2,0.7-0.2c0.3-0.1,0.6,0,0.8,0c0.3,0.1,0.5,0.2,0.8,0.4s0.4,0.4,0.5,0.7
			c0.1,0.3,0.2,0.5,0.2,0.8s-0.1,0.6-0.2,0.8c-0.1,0.3-0.3,0.5-0.5,0.7c-0.2,0.2-0.5,0.3-0.8,0.4s-0.6,0.1-0.8,0l0,0
			c-0.5,0-1-0.2-1.3-0.5c-0.4-0.3-0.6-0.8-0.6-1.3c0-0.4-0.3-0.5-0.4-0.5c-0.1,0-0.1,0-0.2,0.1s-0.1,0.1-0.2,0.1
			C2.1-47.2,1.8-47,1.4-47c-0.2,0-0.4,0-0.6-0.1c-0.3-0.1-0.6-0.3-0.8-0.6c-0.2-0.3-0.3-0.6-0.2-1c0-0.1,0-0.1,0-0.2
			c0-0.1,0-0.1-0.1-0.2c-0.1-0.1-0.1-0.1-0.2-0.1c-0.1,0-0.1,0-0.2,0c-0.1,0-0.1,0-0.2,0.1c-0.3,0.2-0.6,0.4-0.9,0.4
			c-0.2,0-0.3,0-0.5-0.1c-0.5-0.1-0.9-0.5-1.1-0.9C-3.6-50-3.7-50.5-3.6-51c0-0.1,0-0.1,0-0.2s-0.1-0.1-0.1-0.2
			c-0.2-0.1-0.3,0.1-0.4,0.2c-0.1,0.1-0.3,0.2-0.4,0.3c-0.2,0.1-0.3,0.1-0.5,0c-0.4,0-0.8-0.2-1-0.5c-0.3-0.3-0.4-0.6-0.5-1
			c0-0.2,0-0.4,0.1-0.6s0.2-0.3,0.3-0.5c0.1-0.1,0.3-0.2,0.5-0.3c0.2-0.1,0.4-0.1,0.6-0.1c0.3,0,0.7,0,0.9,0.2
			c0.3,0.2,0.5,0.5,0.5,0.8c0,0,0,0.1,0,0.1s0,0.3,0.2,0.3c0.1,0,0.3-0.1,0.3-0.2c0,0,0-0.1,0.1-0.1l0-0.1c0.2-0.3,0.4-0.5,0.7-0.6
			c0.3-0.1,0.6-0.2,0.9-0.1c0.2,0,0.4,0,0.6,0.1c0.3,0.1,0.6,0.3,0.7,0.6c0.2,0.3,0.3,0.6,0.2,0.9c0,0.1,0,0.2,0.1,0.3
			c0.1,0.1,0.2,0.1,0.2,0.1l0,0c0.1,0,0.1,0,0.2,0c0.1,0,0.1-0.1,0.1-0.1C1-51.8,1.2-51.9,1.4-52c0.2-0.1,0.4-0.2,0.6-0.2
			c0.3,0,0.6,0.1,0.8,0.2c1.4,0.6,0.8,2.4,0.8,2.4c-0.1,0.2-0.2,0.6,0.1,0.7l0.1,0h0.1C4-48.9,4.1-48.9,4.2-49L4.2-49z"/>
		<path id="path6" class="st1" d="M31.8-58.4c-3.7,0.9-7.3,2.1-10.8,3.6c-2.5-2.1-8.3-7.1-9.9-8.2c-0.6-0.5-1.3-0.9-2.1-1.2
			c-0.3-0.1-0.7-0.2-1.1-0.2c-0.4,0-0.9,0.1-1.3,0.2c-1.1,0.5-2.1,1.1-3,1.9l-0.1,0c-0.9,0.7-1.8,1.5-2.5,1.6
			c-0.3,0.1-0.6,0.1-0.9,0.1l0,0c-0.6,0-1.1-0.1-1.6-0.5c0,0,0-0.1,0.1-0.1l2.2-2.4c1.7-1.7,3.3-3.3,7-3.4H8c1.7,0,3.3,0.4,4.9,1.1
			c2.1,1,4.4,1.6,6.8,1.6c2.5-0.1,5-0.7,7.3-1.8C29.5-63.8,31.2-61.2,31.8-58.4z"/>
		<path id="path8" class="st2" d="M6.7-72.3H7c3.5,0,7,0.5,10.3,1.4l0.2,0.1l0.5,0.1c2.8,0.8,5.4,2.1,7.7,3.8
			c-1.9,0.9-4,1.3-6.1,1.4h-0.1c-2.1,0-4.2-0.5-6.1-1.4c-1.7-0.8-3.5-1.2-5.4-1.2H7.7c-2.2,0-4.4,0.8-6.1,2.2c-1,0.1-2.1,0.3-3,0.6
			c-0.7,0.2-1.4,0.4-2.1,0.4h-0.7h-0.1c-2.5-0.4-5-1.1-7.5-2C-7.1-70.3-0.4-72.2,6.7-72.3z"/>
		<path id="path10" class="st1" d="M-13-66c3.3,1.3,7.2,2.3,8.4,2.4h0.3c0.3,0,0.5,0,0.8,0c0.8,0,1.7-0.2,2.5-0.5
			c0.3-0.1,0.6-0.2,1-0.3l0,0.1l-2.2,2.4c-0.2,0.2-0.3,0.4-0.4,0.7c-0.1,0.3,0,0.5,0.1,0.8c0.1,0.3,0.4,0.5,0.6,0.7
			c0.8,0.4,1.6,0.6,2.5,0.6c0.3,0,0.7,0,1-0.1c1-0.2,1.9-1,3-1.9c0.8-0.7,1.8-1.3,2.8-1.7C7.5-62.9,7.7-63,8-63h0.2
			c0.8,0.1,1.5,0.5,2.1,1c1.8,1.3,9.2,7.8,10.1,8.5c0.1,0.1,0.3,0.3,0.3,0.5c0.1,0.2,0.1,0.4,0.1,0.6c0,0.2-0.1,0.4-0.2,0.5
			c-0.1,0.2-0.2,0.3-0.4,0.4c-0.3,0.2-0.6,0.3-1,0.3c-0.3,0-0.6-0.1-0.8-0.2l-0.2-0.2c-0.7-0.6-2.8-2.5-3.7-3.2
			c-0.2-0.2-0.4-0.3-0.6-0.3c-0.1,0-0.1,0-0.2,0S13.7-55,13.7-55c-0.2,0.2-0.1,0.6,0.3,0.9l3.3,3.2c0.2,0.2,0.4,0.5,0.4,0.8
			c0,0.2,0,0.5-0.2,0.7c-0.1,0.2-0.3,0.4-0.5,0.5c-0.3,0.2-0.7,0.4-1.1,0.4c-0.3,0-0.6-0.1-0.8-0.2l-0.5-0.5
			c-0.8-0.8-1.7-1.7-2.4-2.2c-0.2-0.2-0.4-0.3-0.6-0.3l0,0c-0.1,0-0.1,0-0.2,0c-0.1,0-0.1,0.1-0.1,0.1c-0.1,0.1-0.2,0.3,0.1,0.6
			c0.1,0.1,0.1,0.1,0.2,0.2l2.4,2.6c0.1,0.1,0.2,0.3,0.2,0.5c0,0.2,0,0.3-0.1,0.5l-0.1,0.1c-0.1,0.1-0.1,0.1-0.2,0.2
			c-0.3,0.2-0.7,0.3-1.1,0.3c-0.1,0-0.2,0-0.3,0c-0.3,0-0.3-0.1-0.4-0.1l-0.1-0.1c-0.7-0.7-1.4-1.4-2.1-2c-0.1-0.2-0.3-0.3-0.6-0.3
			l0,0c-0.1,0-0.1,0-0.2,0c-0.1,0-0.1,0.1-0.1,0.1c-0.2,0.2-0.1,0.5,0.2,0.9l1.8,2c0,0.1-0.2,0.3-0.9,0.4c-0.1,0-0.2,0-0.3,0
			c-0.6,0-1.2-0.2-1.8-0.5c0.2-0.4,0.2-0.8,0.2-1.2c0-0.8-0.3-1.6-0.9-2.2c-0.6-0.6-1.4-0.9-2.2-0.9c0-0.6-0.1-1.1-0.4-1.6
			c-0.3-0.5-0.7-0.9-1.3-1.1c-0.4-0.2-0.8-0.3-1.3-0.3c-0.3,0-0.6,0-0.8,0.1c-0.3-0.6-0.9-1-1.5-1.2c-0.4-0.1-0.7-0.2-1.1-0.2
			c-0.6,0-1.2,0.2-1.7,0.5c-0.3-0.3-0.6-0.5-0.9-0.7c-0.3-0.2-0.7-0.2-1.1-0.2l0,0c-0.7,0-1.3,0.3-1.8,0.7c-0.8-0.5-3.3-2-9.8-3.5
			c-0.3-0.1-0.9-0.2-1.5-0.4C-17.6-61.1-15.8-63.7-13-66z"/>
		<path id="path12" class="st2" d="M32-55.3c0,0.2,0,0.4-0.1,0.6c-0.6,3.7-3.1,7.1-7.2,9.8C20-41.8,13.7-40.1,6.9-40H6.6
			c-13.8,0-25-7.1-25.1-15.9c0-0.3,0-0.6,0-0.9l1.4,0.3c6.4,1.4,8.7,2.8,9.3,3.2c-0.1,0.3-0.2,0.6-0.2,0.9c0,0.7,0.3,1.4,0.8,1.9
			c0.5,0.5,1.2,0.8,1.9,0.8c0.1,0,0.2,0,0.4,0c0.1,0.5,0.4,1,0.7,1.3c0.4,0.4,0.8,0.7,1.3,0.8c0.5,0.2,1,0.2,1.5,0.1
			c0.3,0.7,0.9,1.2,1.6,1.4c0.3,0.1,0.7,0.2,1.1,0.2c0.2,0,0.4-0.1,0.6-0.1c0.3,0.5,0.7,1,1.2,1.3C3.8-44.2,4.3-44,4.9-44l0,0
			c0.8,0,1.6-0.3,2.2-0.9c0.8,0.4,1.6,0.7,2.5,0.7c0.1,0,0.3,0,0.4,0c0.4,0,0.7-0.1,1-0.3c0.3-0.2,0.6-0.4,0.8-0.7l0.1-0.1
			c0.2,0.1,0.5,0.1,0.7,0.1c0.6,0,1.2-0.2,1.7-0.6c0.5-0.3,0.8-0.8,1-1.4h0.4c0.6,0,1.3-0.2,1.8-0.6c0.4-0.2,0.7-0.5,0.9-0.9
			c0.2-0.4,0.4-0.8,0.4-1.2c0.1,0,0.3,0,0.4,0c0.6,0,1.2-0.2,1.7-0.5c0.3-0.2,0.6-0.5,0.8-0.8c0.2-0.3,0.3-0.7,0.3-1.1
			c0-0.5-0.1-1-0.3-1.4c3.3-1.3,6.7-2.4,10.1-3.2c0,0.3,0.1,0.6,0.1,0.9C32-55.9,32.1-55.6,32-55.3L32-55.3z"/>
		<path id="path14" class="st0" d="M122.9-67.1c-0.9-1.2-2.4-1.8-4.3-1.8s-3.4,0.6-4.3,1.8c-0.9,1.2-1.4,2.7-1.4,4.2
			c0,1.5,0.5,3,1.4,4.2c0.9,1.2,2.4,1.8,4.3,1.8s3.4-0.6,4.3-1.8c0.9-1.2,1.4-2.7,1.4-4.2C124.4-64.4,123.9-65.9,122.9-67.1
			L122.9-67.1z M120.6-60.3c-0.2,0.3-0.6,0.5-0.9,0.7c-0.3,0.2-0.7,0.2-1.1,0.2c-0.4,0-0.8-0.1-1.1-0.2c-0.3-0.2-0.6-0.4-0.9-0.7
			c-0.5-0.8-0.7-1.7-0.7-2.6c0-0.9,0.2-1.8,0.7-2.6c0.2-0.3,0.6-0.5,0.9-0.7c0.3-0.2,0.7-0.2,1.1-0.2c0.4,0,0.8,0.1,1.1,0.2
			c0.3,0.2,0.6,0.4,0.9,0.7c0.5,0.8,0.7,1.7,0.7,2.6C121.3-62,121-61.1,120.6-60.3z"/>
		<path id="path16" class="st0" d="M98.6-68.1c-1-0.5-2.2-0.8-3.3-0.7c-1.9,0-3.2,0.5-4,1.5c-0.5,0.7-0.8,1.6-0.8,2.4h2.9
			c0-0.4,0.2-0.7,0.4-1c0.2-0.2,0.4-0.3,0.7-0.4s0.5-0.1,0.8-0.1c0.5,0,1,0.1,1.4,0.3c0.2,0.1,0.3,0.2,0.4,0.4
			c0.1,0.2,0.1,0.4,0.1,0.5c0,0.2-0.1,0.4-0.2,0.5c-0.1,0.2-0.3,0.3-0.5,0.3c-0.4,0.1-0.8,0.2-1.2,0.3l-1,0.1
			c-0.9,0.1-1.8,0.3-2.6,0.7c-0.5,0.3-1,0.7-1.2,1.3c-0.3,0.5-0.4,1.1-0.4,1.7c0,0.5,0,0.9,0.2,1.4c0.2,0.4,0.4,0.8,0.8,1.1
			c0.7,0.6,1.6,0.9,2.6,0.9c6.5,0.3,6.4-3.4,6.5-4.2v-4.2C100.1-66.7,99.6-67.6,98.6-68.1L98.6-68.1z M97.1-61.6
			c0,0.4,0,0.8-0.2,1.1c-0.1,0.4-0.4,0.7-0.7,0.9c-0.5,0.4-1.1,0.6-1.8,0.6c-0.4,0-0.7-0.1-1-0.3c-0.2-0.1-0.3-0.3-0.3-0.5
			C93-60.1,93-60.3,93-60.5c0-0.3,0-0.5,0.2-0.7c0.1-0.2,0.3-0.4,0.5-0.5c0.4-0.2,0.9-0.3,1.4-0.4l0.6-0.1c0.3,0,0.5-0.1,0.8-0.2
			c0.2-0.1,0.4-0.2,0.6-0.3L97.1-61.6z"/>
		<path id="path18" class="st0" d="M83.9-66.3c0.3,0,0.6,0,0.9,0.1c0.3,0.1,0.5,0.3,0.7,0.5c0.2,0.3,0.4,0.7,0.4,1.1h3.2
			c-0.2-1.6-0.7-2.7-1.7-3.4c-1.1-0.7-2.4-1-3.7-1c-0.8,0-1.5,0.1-2.2,0.4c-0.7,0.3-1.4,0.7-1.9,1.3c-1.1,1.3-1.6,2.9-1.5,4.5
			c-0.1,1.5,0.4,3,1.4,4.2c0.9,1.1,2.3,1.6,4.2,1.6c0.8,0.1,1.7-0.1,2.4-0.4c0.8-0.3,1.4-0.9,1.9-1.5c0.6-0.7,0.9-1.6,1-2.5H86
			c0,0.5-0.2,1-0.6,1.4c-0.2,0.2-0.4,0.4-0.7,0.5c-0.3,0.1-0.6,0.1-0.8,0.1c-0.5,0-0.9-0.1-1.3-0.3c-0.4-0.3-0.7-0.6-0.8-1.1
			c-0.2-0.6-0.3-1.3-0.3-2c0-0.7,0.1-1.4,0.3-2.1c0.1-0.5,0.4-0.8,0.8-1.1S83.4-66.3,83.9-66.3z"/>
		<path id="path20" class="st0" d="M77.3-68.8c-6.5,0-6.2,5.8-6.2,5.8v5.9h3v-5.5c0-0.7,0.1-1.4,0.3-2c0.4-0.8,1.2-1.2,2.4-1.2h0.4
			c0.1,0,0.3,0,0.5,0v-3h-0.3L77.3-68.8z"/>
		<path id="path22" class="st0" d="M66.4-60.2c-0.1,0.2-0.3,0.3-0.4,0.5c-0.5,0.3-1.1,0.5-1.7,0.4c-0.6,0-1.1-0.1-1.6-0.4
			c-0.4-0.3-0.7-0.6-0.9-1c-0.2-0.4-0.3-0.9-0.3-1.3h8.2c0-0.7,0-1.5-0.1-2.2c-0.1-0.8-0.4-1.6-0.9-2.3c-0.5-0.7-1.1-1.3-1.9-1.7
			c-0.8-0.4-1.7-0.5-2.6-0.5c-0.7,0-1.5,0.1-2.2,0.4c-0.7,0.3-1.3,0.7-1.9,1.2c-1,1-1.6,2.5-1.6,4.5c0,2.1,0.6,3.6,1.7,4.5
			c1.1,0.9,2.5,1.4,4,1.4c0.8,0,1.6-0.1,2.3-0.4s1.4-0.7,1.9-1.3c0.5-0.5,0.8-1.1,1-1.7L66.4-60.2z M62.4-65.7
			c0.2-0.2,0.5-0.4,0.8-0.5c0.3-0.1,0.6-0.2,0.9-0.1c0.6,0,1.3,0.2,1.8,0.6c0.2,0.2,0.4,0.5,0.6,0.8c0.1,0.3,0.2,0.6,0.2,1h-5.1
			C61.7-64.6,62-65.2,62.4-65.7z"/>
		<path id="path24" class="st0" d="M57.4-57.1h-2.7v-6.8c0-0.3,0-0.6-0.1-0.8s-0.2-0.5-0.4-0.7c-0.2-0.2-0.4-0.4-0.7-0.5
			c-0.3-0.1-0.5-0.1-0.8-0.1c-0.3,0-0.6,0-0.8,0.1c-0.3,0.1-0.5,0.3-0.7,0.5c-0.2,0.2-0.3,0.4-0.4,0.7c-0.1,0.3-0.1,0.5-0.1,0.8v6.8
			H48v-6.8c0-0.3,0-0.5-0.1-0.8c-0.1-0.3-0.2-0.5-0.4-0.7c-0.2-0.2-0.4-0.4-0.7-0.5c-0.3-0.1-0.5-0.1-0.8-0.1c-0.3,0-0.6,0-0.8,0.1
			s-0.5,0.3-0.7,0.5c-0.2,0.2-0.3,0.4-0.4,0.7c-0.1,0.3-0.1,0.5-0.1,0.8v6.8h-2.7v-6.8c0-2.8,1.9-5,4.8-5c0.6,0,1.3,0.1,1.9,0.4
			c0.6,0.3,1.1,0.7,1.5,1.2c0.4-0.5,0.9-0.9,1.5-1.2c0.6-0.3,1.2-0.4,1.9-0.4c3,0,4.7,2,4.7,5L57.4-57.1z"/>
		<path id="path26" class="st0" d="M112-72.4c0,0-3-0.3-3,2.1v3.2c-0.3-0.5-0.8-0.9-1.3-1.2c-0.6-0.3-1.2-0.5-1.8-0.5
			c-0.7,0-1.4,0.1-2,0.4c-0.6,0.3-1.2,0.7-1.6,1.3c-0.9,1.3-1.4,3-1.3,4.6c-0.1,1.5,0.4,2.9,1.4,4.1c0.9,1.1,2.7,1.5,4.2,1.5
			c5.5,0,5.4-4.7,5.4-4.7L112-72.4z M108.4-60.2c-0.2,0.3-0.5,0.6-0.8,0.7c-0.3,0.2-0.7,0.2-1.1,0.2c-0.4,0-0.7-0.1-1.1-0.2
			c-0.3-0.2-0.6-0.4-0.8-0.7c-0.4-0.8-0.7-1.7-0.6-2.6c0-0.8,0.2-1.7,0.6-2.4c0.2-0.3,0.5-0.6,0.8-0.8c0.3-0.2,0.7-0.3,1.1-0.2
			c0.5,0,1.1,0.2,1.5,0.5c0.7,0.6,1,1.7,1,3C109.1-61.8,108.8-61,108.4-60.2L108.4-60.2z"/>
		<path id="path28" class="st0" d="M59.1-51.3h2.2l-4,11.4h-3l-4-11.4h3.2l2.3,8l2-7c0.1-0.3,0.2-0.6,0.5-0.8
			C58.5-51.2,58.8-51.3,59.1-51.3z M67.7-51.6H68v3.1l-0.5,0c-0.1,0-0.3,0-0.4,0c-1.2,0-2,0.4-2.4,1.2c-0.3,0.6-0.4,1.3-0.3,2v5.5
			h-3v-5.8c0,0-0.4-5.8,6.2-5.8L67.7-51.6z M79.4-47.1c-0.1-0.8-0.4-1.6-0.9-2.3c-0.5-0.7-1.1-1.3-1.9-1.7c-0.8-0.4-1.7-0.5-2.7-0.5
			c-0.7,0-1.5,0.1-2.2,0.4C71-51,70.4-50.6,69.9-50c-1,1-1.6,2.5-1.6,4.5c0,2.1,0.6,3.6,1.7,4.5c1.1,0.9,2.5,1.4,4,1.4
			c0.8,0,1.6-0.1,2.3-0.4c0.7-0.3,1.4-0.7,1.9-1.3c0.5-0.5,0.8-1.1,1-1.7h-3.2c-0.1,0.2-0.3,0.3-0.4,0.4c-0.5,0.3-1.1,0.5-1.7,0.5
			c-0.6,0-1.1-0.1-1.6-0.4c-0.4-0.3-0.7-0.6-0.9-1c-0.2-0.4-0.3-0.9-0.3-1.3h8.2C79.5-45.6,79.5-46.3,79.4-47.1L79.4-47.1z
			 M71.4-46.5c0.1-0.7,0.3-1.3,0.8-1.8c0.2-0.2,0.5-0.4,0.8-0.5c0.3-0.1,0.6-0.2,0.9-0.1c0.6,0,1.3,0.2,1.8,0.6
			c0.2,0.2,0.4,0.5,0.6,0.8c0.1,0.3,0.2,0.6,0.2,1L71.4-46.5z M44-55.3v15.4h-2.8v-13.2C41.1-55.4,44-55.3,44-55.3L44-55.3z
			 M46.3-51.3h3v11.4h-3L46.3-51.3z M46.3-55h3v3h-3L46.3-55z"/>
	</g>
</g>
</svg>
