<?xml version="1.0" encoding="utf-8"?>
<!-- Generator: Adobe Illustrator 25.2.1, SVG Export Plug-In . SVG Version: 6.00 Build 0)  -->
<svg version="1.1" id="Layer_1" xmlns="http://www.w3.org/2000/svg" xmlns:xlink="http://www.w3.org/1999/xlink" x="0px" y="0px"
	 viewBox="0 0 737.4 173.9" style="enable-background:new 0 0 737.4 173.9;" xml:space="preserve">
<style type="text/css">
	.st0{fill:#5356EE;}
	.st1{fill-rule:evenodd;clip-rule:evenodd;fill:#5356EE;}
</style>
<g id="Canvas">
	<g id="Mercari_Logo-01">
		<path id="Shape" class="st0" d="M213.2,161.4v-19.9h-50.3v-18.5h48v-19.7h-48V83.9h50.3V63.9h-71.8v97.5H213.2z"/>
		<path id="Shape_2" class="st1" d="M316.9,55.5c7,5.7,10.6,13.6,10.6,23.5c0.2,12.9-7.1,24.7-18.6,30.4l21.4,35.1h-24.4L287,113.5
			h-15.4v30.9h-21.5V47h40.2C301.1,47,310.1,49.9,316.9,55.5z M286.8,66.9h-15.2v26.8h15.2c13.1,0,19.4-4.6,19.4-13.6
			C306.2,71.1,300,66.9,286.8,66.9z"/>
		<path id="Shape_3" class="st0" d="M432.4,129.4c-6.5,8.8-15,13.2-25.5,13.2c-7.7,0.2-15.1-2.7-20.5-8.1
			c-5.5-5.4-8.3-12.9-8.3-22.1s2.8-16.5,8.3-21.7c5.1-5.2,12.1-8.1,19.4-8.1c9.9-0.2,19.3,4.6,25,12.8l0.4,0.5l14.5-14.8l-0.3-0.4
			c-9.8-12.2-22.8-18.3-38.6-18.3c-14.5,0-26.6,4.6-36.2,13.9c-9.6,9.3-14.5,21.5-14.5,36.6c0,14.9,4.9,27.1,14.5,36.3
			c9.6,9.1,22.2,13.7,36.8,13.7c16.2,0,29.5-6.2,39.4-18.3l0.3-0.4l-14.3-15.3L432.4,129.4z"/>
		<path id="Shape_4" class="st1" d="M504.5,47h20.2l0.1,0.3l37.8,97.1h-22.2l-7.1-17.5h-37.5l-6.9,17.5h-22.2l0.3-0.8L504.5,47z
			 M502.9,107.8h23.3l-11.7-30.9L502.9,107.8z"/>
		<path id="Shape_5" class="st1" d="M657.3,72.4c7,5.7,10.6,13.6,10.6,23.5c0.2,12.9-7.1,24.7-18.6,30.3l21.4,35.1h-24.4l-18.9-30.9
			H612v30.9h-21.5V63.9h40.2C641.5,63.9,650.3,66.7,657.3,72.4z M627.2,83.9H612v26.8h15.2c13.1,0,19.4-4.6,19.4-13.6
			C646.6,88,640.4,83.9,627.2,83.9z"/>
		<path id="Rectangle-path" class="st0" d="M702.8,55.5h21.3v89h-21.3V55.5z"/>
		<path id="Rectangle-path_2" class="st0" d="M700.7,26.4L710.5,3l23.5,9.9l-9.9,23.4L700.7,26.4z"/>
		<path id="Shape_6" class="st0" d="M53.9,99.8L81.4,47h21.9v97.4H81.7V88.8h-0.3l-20.8,37.6h-14L25.8,88.9h-0.3v55.5H4V47h21.9
			l27.6,52.7H53.9z"/>
	</g>
</g>
</svg>
