<?xml version="1.0" encoding="utf-8"?>
<!-- Generator: Adobe Illustrator 25.2.1, SVG Export Plug-In . SVG Version: 6.00 Build 0)  -->
<svg version="1.1" id="Layer_1" xmlns="http://www.w3.org/2000/svg" xmlns:xlink="http://www.w3.org/1999/xlink" x="0px" y="0px"
	 viewBox="0 0 549.6 141.9" style="enable-background:new 0 0 549.6 141.9;" xml:space="preserve">
<style type="text/css">
	.st0{fill:#2D3277;}
	.st1{fill:#FFFFFF;}
	.st2{fill:#FFD100;}
</style>
<g>
	<g id="g30" transform="matrix(3.8022868,0,0,3.8022868,76.174083,280.3883)">
		<path id="path2" class="st0" d="M33.2-56.3c0-9.5-11.8-17.1-26.2-17.1H6.7C2-73.4-2.6-72.6-7-70.9c-7.3,2.9-12.3,8.1-12.6,14
			c0,0.2,0,0.3,0,0.5s0,0.1,0,0.2v0.1v0.1v0.8v0.1v0.1c0,0.1,0,0.3,0,0.4s0,0.2,0,0.4c0.3,4.7,2.8,9,7.3,12.1
			c4.8,3.4,11.3,5.2,18.9,5.2H7c7.8-0.1,14.4-2,19.2-5.5c4.6-3.4,7.1-8,7.1-13L33.2-56.3z"/>
		<path id="path4" class="st1" d="M4.2-49c0.2-0.1,0.5-0.2,0.7-0.2c0.3-0.1,0.6,0,0.8,0C6-49.1,6.2-49,6.5-48.8s0.4,0.4,0.5,0.7
			s0.2,0.5,0.2,0.8S7.1-46.7,7-46.5c-0.1,0.3-0.3,0.5-0.5,0.7S6-45.5,5.7-45.4c-0.3,0.1-0.6,0.1-0.8,0l0,0c-0.5,0-1-0.2-1.3-0.5
			C3.2-46.2,3-46.7,3-47.2c0-0.4-0.3-0.5-0.4-0.5c-0.1,0-0.1,0-0.2,0.1s-0.1,0.1-0.2,0.1C2.1-47.2,1.8-47,1.4-47
			c-0.2,0-0.4,0-0.6-0.1c-0.3-0.1-0.6-0.3-0.8-0.6s-0.3-0.6-0.2-1c0-0.1,0-0.1,0-0.2c0-0.1,0-0.1-0.1-0.2c-0.1-0.1-0.1-0.1-0.2-0.1
			s-0.1,0-0.2,0s-0.1,0-0.2,0.1c-0.3,0.2-0.6,0.4-0.9,0.4c-0.2,0-0.3,0-0.5-0.1c-0.5-0.1-0.9-0.5-1.1-0.9C-3.6-50-3.7-50.5-3.6-51
			c0-0.1,0-0.1,0-0.2s-0.1-0.1-0.1-0.2c-0.2-0.1-0.3,0.1-0.4,0.2c-0.1,0.1-0.3,0.2-0.4,0.3c-0.2,0.1-0.3,0.1-0.5,0
			c-0.4,0-0.8-0.2-1-0.5c-0.3-0.3-0.4-0.6-0.5-1c0-0.2,0-0.4,0.1-0.6s0.2-0.3,0.3-0.5c0.1-0.1,0.3-0.2,0.5-0.3s0.4-0.1,0.6-0.1
			c0.3,0,0.7,0,0.9,0.2c0.3,0.2,0.5,0.5,0.5,0.8v0.1c0,0,0,0.3,0.2,0.3c0.1,0,0.3-0.1,0.3-0.2c0,0,0-0.1,0.1-0.1v-0.1
			c0.2-0.3,0.4-0.5,0.7-0.6s0.6-0.2,0.9-0.1c0.2,0,0.4,0,0.6,0.1c0.3,0.1,0.6,0.3,0.7,0.6c0.2,0.3,0.3,0.6,0.2,0.9
			c0,0.1,0,0.2,0.1,0.3s0.2,0.1,0.2,0.1l0,0c0.1,0,0.1,0,0.2,0s0.1-0.1,0.1-0.1C1-51.8,1.2-51.9,1.4-52s0.4-0.2,0.6-0.2
			c0.3,0,0.6,0.1,0.8,0.2c1.4,0.6,0.8,2.4,0.8,2.4c-0.1,0.2-0.2,0.6,0.1,0.7h0.1h0.1C4-48.9,4.1-48.9,4.2-49L4.2-49z"/>
		<path id="path6" class="st1" d="M31.8-58.4c-3.7,0.9-7.3,2.1-10.8,3.6c-2.5-2.1-8.3-7.1-9.9-8.2c-0.6-0.5-1.3-0.9-2.1-1.2
			c-0.3-0.1-0.7-0.2-1.1-0.2c-0.4,0-0.9,0.1-1.3,0.2c-1.1,0.5-2.1,1.1-3,1.9H3.5c-0.9,0.7-1.8,1.5-2.5,1.6c-0.3,0.1-0.6,0.1-0.9,0.1
			l0,0c-0.6,0-1.1-0.1-1.6-0.5c0,0,0-0.1,0.1-0.1l2.2-2.4c1.7-1.7,3.3-3.3,7-3.4H8c1.7,0,3.3,0.4,4.9,1.1c2.1,1,4.4,1.6,6.8,1.6
			c2.5-0.1,5-0.7,7.3-1.8C29.5-63.8,31.2-61.2,31.8-58.4z"/>
		<path id="path8" class="st2" d="M6.7-72.3H7c3.5,0,7,0.5,10.3,1.4l0.2,0.1l0.5,0.1c2.8,0.8,5.4,2.1,7.7,3.8
			c-1.9,0.9-4,1.3-6.1,1.4h-0.1c-2.1,0-4.2-0.5-6.1-1.4c-1.7-0.8-3.5-1.2-5.4-1.2H7.7c-2.2,0-4.4,0.8-6.1,2.2c-1,0.1-2.1,0.3-3,0.6
			c-0.7,0.2-1.4,0.4-2.1,0.4h-0.7h-0.1c-2.5-0.4-5-1.1-7.5-2C-7.1-70.3-0.4-72.2,6.7-72.3z"/>
		<path id="path10" class="st1" d="M-13-66c3.3,1.3,7.2,2.3,8.4,2.4h0.3c0.3,0,0.5,0,0.8,0c0.8,0,1.7-0.2,2.5-0.5
			c0.3-0.1,0.6-0.2,1-0.3v0.1l-2.2,2.4c-0.2,0.2-0.3,0.4-0.4,0.7c-0.1,0.3,0,0.5,0.1,0.8s0.4,0.5,0.6,0.7c0.8,0.4,1.6,0.6,2.5,0.6
			c0.3,0,0.7,0,1-0.1c1-0.2,1.9-1,3-1.9c0.8-0.7,1.8-1.3,2.8-1.7C7.5-62.9,7.7-63,8-63h0.2c0.8,0.1,1.5,0.5,2.1,1
			c1.8,1.3,9.2,7.8,10.1,8.5c0.1,0.1,0.3,0.3,0.3,0.5c0.1,0.2,0.1,0.4,0.1,0.6c0,0.2-0.1,0.4-0.2,0.5c-0.1,0.2-0.2,0.3-0.4,0.4
			c-0.3,0.2-0.6,0.3-1,0.3c-0.3,0-0.6-0.1-0.8-0.2l-0.2-0.2c-0.7-0.6-2.8-2.5-3.7-3.2c-0.2-0.2-0.4-0.3-0.6-0.3c-0.1,0-0.1,0-0.2,0
			s0,0.1,0,0.1c-0.2,0.2-0.1,0.6,0.3,0.9l3.3,3.2c0.2,0.2,0.4,0.5,0.4,0.8c0,0.2,0,0.5-0.2,0.7c-0.1,0.2-0.3,0.4-0.5,0.5
			c-0.3,0.2-0.7,0.4-1.1,0.4c-0.3,0-0.6-0.1-0.8-0.2l-0.5-0.5c-0.8-0.8-1.7-1.7-2.4-2.2c-0.2-0.2-0.4-0.3-0.6-0.3l0,0
			c-0.1,0-0.1,0-0.2,0c-0.1,0-0.1,0.1-0.1,0.1c-0.1,0.1-0.2,0.3,0.1,0.6c0.1,0.1,0.1,0.1,0.2,0.2l2.4,2.6c0.1,0.1,0.2,0.3,0.2,0.5
			s0,0.3-0.1,0.5L14-47.1c-0.1,0.1-0.1,0.1-0.2,0.2c-0.3,0.2-0.7,0.3-1.1,0.3c-0.1,0-0.2,0-0.3,0c-0.3,0-0.3-0.1-0.4-0.1l-0.1-0.1
			c-0.7-0.7-1.4-1.4-2.1-2c-0.1-0.2-0.3-0.3-0.6-0.3l0,0c-0.1,0-0.1,0-0.2,0c-0.1,0-0.1,0.1-0.1,0.1c-0.2,0.2-0.1,0.5,0.2,0.9l1.8,2
			c0,0.1-0.2,0.3-0.9,0.4c-0.1,0-0.2,0-0.3,0c-0.6,0-1.2-0.2-1.8-0.5c0.2-0.4,0.2-0.8,0.2-1.2c0-0.8-0.3-1.6-0.9-2.2
			c-0.6-0.6-1.4-0.9-2.2-0.9c0-0.6-0.1-1.1-0.4-1.6S3.9-53,3.3-53.2c-0.4-0.2-0.8-0.3-1.3-0.3c-0.3,0-0.6,0-0.8,0.1
			c-0.3-0.6-0.9-1-1.5-1.2c-0.4-0.1-0.7-0.2-1.1-0.2c-0.6,0-1.2,0.2-1.7,0.5C-3.4-54.6-3.7-54.8-4-55s-0.7-0.2-1.1-0.2l0,0
			c-0.7,0-1.3,0.3-1.8,0.7c-0.8-0.5-3.3-2-9.8-3.5c-0.3-0.1-0.9-0.2-1.5-0.4C-17.6-61.1-15.8-63.7-13-66z"/>
		<path id="path12" class="st2" d="M32-55.3c0,0.2,0,0.4-0.1,0.6c-0.6,3.7-3.1,7.1-7.2,9.8c-4.7,3.1-11,4.8-17.8,4.9H6.6
			c-13.8,0-25-7.1-25.1-15.9c0-0.3,0-0.6,0-0.9l1.4,0.3c6.4,1.4,8.7,2.8,9.3,3.2C-7.9-53-8-52.7-8-52.4c0,0.7,0.3,1.4,0.8,1.9
			s1.2,0.8,1.9,0.8c0.1,0,0.2,0,0.4,0c0.1,0.5,0.4,1,0.7,1.3c0.4,0.4,0.8,0.7,1.3,0.8c0.5,0.2,1,0.2,1.5,0.1
			c0.3,0.7,0.9,1.2,1.6,1.4c0.3,0.1,0.7,0.2,1.1,0.2c0.2,0,0.4-0.1,0.6-0.1c0.3,0.5,0.7,1,1.2,1.3C3.8-44.2,4.3-44,4.9-44l0,0
			c0.8,0,1.6-0.3,2.2-0.9c0.8,0.4,1.6,0.7,2.5,0.7c0.1,0,0.3,0,0.4,0c0.4,0,0.7-0.1,1-0.3s0.6-0.4,0.8-0.7l0.1-0.1
			c0.2,0.1,0.5,0.1,0.7,0.1c0.6,0,1.2-0.2,1.7-0.6c0.5-0.3,0.8-0.8,1-1.4h0.4c0.6,0,1.3-0.2,1.8-0.6c0.4-0.2,0.7-0.5,0.9-0.9
			c0.2-0.4,0.4-0.8,0.4-1.2c0.1,0,0.3,0,0.4,0c0.6,0,1.2-0.2,1.7-0.5c0.3-0.2,0.6-0.5,0.8-0.8c0.2-0.3,0.3-0.7,0.3-1.1
			c0-0.5-0.1-1-0.3-1.4c3.3-1.3,6.7-2.4,10.1-3.2c0,0.3,0.1,0.6,0.1,0.9C32-55.9,32.1-55.6,32-55.3L32-55.3z"/>
		<path id="path14" class="st0" d="M122.9-67.1c-0.9-1.2-2.4-1.8-4.3-1.8s-3.4,0.6-4.3,1.8c-0.9,1.2-1.4,2.7-1.4,4.2
			c0,1.5,0.5,3,1.4,4.2s2.4,1.8,4.3,1.8s3.4-0.6,4.3-1.8s1.4-2.7,1.4-4.2C124.4-64.4,123.9-65.9,122.9-67.1L122.9-67.1z M120.6-60.3
			c-0.2,0.3-0.6,0.5-0.9,0.7s-0.7,0.2-1.1,0.2s-0.8-0.1-1.1-0.2c-0.3-0.2-0.6-0.4-0.9-0.7c-0.5-0.8-0.7-1.7-0.7-2.6
			c0-0.9,0.2-1.8,0.7-2.6c0.2-0.3,0.6-0.5,0.9-0.7s0.7-0.2,1.1-0.2s0.8,0.1,1.1,0.2c0.3,0.2,0.6,0.4,0.9,0.7
			c0.5,0.8,0.7,1.7,0.7,2.6C121.3-62,121-61.1,120.6-60.3z"/>
		<path id="path16" class="st0" d="M98.6-68.1c-1-0.5-2.2-0.8-3.3-0.7c-1.9,0-3.2,0.5-4,1.5c-0.5,0.7-0.8,1.6-0.8,2.4h2.9
			c0-0.4,0.2-0.7,0.4-1c0.2-0.2,0.4-0.3,0.7-0.4s0.5-0.1,0.8-0.1c0.5,0,1,0.1,1.4,0.3c0.2,0.1,0.3,0.2,0.4,0.4
			c0.1,0.2,0.1,0.4,0.1,0.5c0,0.2-0.1,0.4-0.2,0.5c-0.1,0.2-0.3,0.3-0.5,0.3c-0.4,0.1-0.8,0.2-1.2,0.3l-1,0.1
			c-0.9,0.1-1.8,0.3-2.6,0.7c-0.5,0.3-1,0.7-1.2,1.3c-0.3,0.5-0.4,1.1-0.4,1.7c0,0.5,0,0.9,0.2,1.4c0.2,0.4,0.4,0.8,0.8,1.1
			c0.7,0.6,1.6,0.9,2.6,0.9c6.5,0.3,6.4-3.4,6.5-4.2v-4.2C100.1-66.7,99.6-67.6,98.6-68.1L98.6-68.1z M97.1-61.6
			c0,0.4,0,0.8-0.2,1.1c-0.1,0.4-0.4,0.7-0.7,0.9c-0.5,0.4-1.1,0.6-1.8,0.6c-0.4,0-0.7-0.1-1-0.3c-0.2-0.1-0.3-0.3-0.3-0.5
			C93-60.1,93-60.3,93-60.5c0-0.3,0-0.5,0.2-0.7c0.1-0.2,0.3-0.4,0.5-0.5c0.4-0.2,0.9-0.3,1.4-0.4l0.6-0.1c0.3,0,0.5-0.1,0.8-0.2
			c0.2-0.1,0.4-0.2,0.6-0.3V-61.6z"/>
		<path id="path18" class="st0" d="M83.9-66.3c0.3,0,0.6,0,0.9,0.1s0.5,0.3,0.7,0.5c0.2,0.3,0.4,0.7,0.4,1.1h3.2
			c-0.2-1.6-0.7-2.7-1.7-3.4c-1.1-0.7-2.4-1-3.7-1c-0.8,0-1.5,0.1-2.2,0.4s-1.4,0.7-1.9,1.3c-1.1,1.3-1.6,2.9-1.5,4.5
			c-0.1,1.5,0.4,3,1.4,4.2c0.9,1.1,2.3,1.6,4.2,1.6c0.8,0.1,1.7-0.1,2.4-0.4c0.8-0.3,1.4-0.9,1.9-1.5c0.6-0.7,0.9-1.6,1-2.5h-3
			c0,0.5-0.2,1-0.6,1.4c-0.2,0.2-0.4,0.4-0.7,0.5c-0.3,0.1-0.6,0.1-0.8,0.1c-0.5,0-0.9-0.1-1.3-0.3c-0.4-0.3-0.7-0.6-0.8-1.1
			c-0.2-0.6-0.3-1.3-0.3-2s0.1-1.4,0.3-2.1c0.1-0.5,0.4-0.8,0.8-1.1S83.4-66.3,83.9-66.3z"/>
		<path id="path20" class="st0" d="M77.3-68.8c-6.5,0-6.2,5.8-6.2,5.8v5.9h3v-5.5c0-0.7,0.1-1.4,0.3-2c0.4-0.8,1.2-1.2,2.4-1.2h0.4
			c0.1,0,0.3,0,0.5,0v-3h-0.3H77.3z"/>
		<path id="path22" class="st0" d="M66.4-60.2c-0.1,0.2-0.3,0.3-0.4,0.5c-0.5,0.3-1.1,0.5-1.7,0.4c-0.6,0-1.1-0.1-1.6-0.4
			c-0.4-0.3-0.7-0.6-0.9-1s-0.3-0.9-0.3-1.3h8.2c0-0.7,0-1.5-0.1-2.2c-0.1-0.8-0.4-1.6-0.9-2.3c-0.5-0.7-1.1-1.3-1.9-1.7
			c-0.8-0.4-1.7-0.5-2.6-0.5c-0.7,0-1.5,0.1-2.2,0.4s-1.3,0.7-1.9,1.2c-1,1-1.6,2.5-1.6,4.5c0,2.1,0.6,3.6,1.7,4.5
			c1.1,0.9,2.5,1.4,4,1.4c0.8,0,1.6-0.1,2.3-0.4s1.4-0.7,1.9-1.3c0.5-0.5,0.8-1.1,1-1.7L66.4-60.2z M62.4-65.7
			c0.2-0.2,0.5-0.4,0.8-0.5s0.6-0.2,0.9-0.1c0.6,0,1.3,0.2,1.8,0.6c0.2,0.2,0.4,0.5,0.6,0.8c0.1,0.3,0.2,0.6,0.2,1h-5.1
			C61.7-64.6,62-65.2,62.4-65.7z"/>
		<path id="path24" class="st0" d="M57.4-57.1h-2.7v-6.8c0-0.3,0-0.6-0.1-0.8s-0.2-0.5-0.4-0.7s-0.4-0.4-0.7-0.5S53-66,52.7-66
			s-0.6,0-0.8,0.1c-0.3,0.1-0.5,0.3-0.7,0.5s-0.3,0.4-0.4,0.7c-0.1,0.3-0.1,0.5-0.1,0.8v6.8H48v-6.8c0-0.3,0-0.5-0.1-0.8
			s-0.2-0.5-0.4-0.7s-0.4-0.4-0.7-0.5S46.3-66,46-66s-0.6,0-0.8,0.1s-0.5,0.3-0.7,0.5s-0.3,0.4-0.4,0.7C44-64.4,44-64.2,44-63.9v6.8
			h-2.7v-6.8c0-2.8,1.9-5,4.8-5c0.6,0,1.3,0.1,1.9,0.4c0.6,0.3,1.1,0.7,1.5,1.2c0.4-0.5,0.9-0.9,1.5-1.2c0.6-0.3,1.2-0.4,1.9-0.4
			c3,0,4.7,2,4.7,5L57.4-57.1z"/>
		<path id="path26" class="st0" d="M112-72.4c0,0-3-0.3-3,2.1v3.2c-0.3-0.5-0.8-0.9-1.3-1.2c-0.6-0.3-1.2-0.5-1.8-0.5
			c-0.7,0-1.4,0.1-2,0.4s-1.2,0.7-1.6,1.3c-0.9,1.3-1.4,3-1.3,4.6c-0.1,1.5,0.4,2.9,1.4,4.1c0.9,1.1,2.7,1.5,4.2,1.5
			c5.5,0,5.4-4.7,5.4-4.7L112-72.4z M108.4-60.2c-0.2,0.3-0.5,0.6-0.8,0.7c-0.3,0.2-0.7,0.2-1.1,0.2s-0.7-0.1-1.1-0.2
			c-0.3-0.2-0.6-0.4-0.8-0.7c-0.4-0.8-0.7-1.7-0.6-2.6c0-0.8,0.2-1.7,0.6-2.4c0.2-0.3,0.5-0.6,0.8-0.8c0.3-0.2,0.7-0.3,1.1-0.2
			c0.5,0,1.1,0.2,1.5,0.5c0.7,0.6,1,1.7,1,3C109.1-61.8,108.8-61,108.4-60.2L108.4-60.2z"/>
	</g>
</g>
<path class="st0" d="M241.1,69.5h3v59.7h-11.3V76.8C232.8,75.1,236.4,69.5,241.1,69.5z"/>
<path class="st0" d="M303,82.8L303,82.8c-5.5,0-9.8,2.3-12.8,7V69.5h-1.3c-5.5,0-8.5,3-10,5.5V109c0,13.4,7,20.3,21.1,20.3
	c14.1-0.2,20.9-7.9,20.9-22.8C320.9,90.9,314.9,83.2,303,82.8z M299.6,119.4c-6.4,0-9.6-4.7-9.4-13.6c0.4-8.7,3.4-13,9.6-13
	c6.2,0,9.2,4.3,9.6,13C309.4,115,305.9,119.4,299.6,119.4z"/>
<path class="st0" d="M327.5,105.8c0.4-14.5,7.5-22.6,22.6-22.6h3.4v11.7h-5.3c-6.4,0-9.2,4.1-9.2,10.7V129h-11.5L327.5,105.8z"/>
<path class="st0" d="M399.1,99.2c-0.9-3.2-2.1-6-3.8-8.3c-1.7-2.3-4.1-4.3-6.8-5.8c-2.8-1.5-6.2-2.1-9.8-2.1c-3.4,0-6.4,0.4-9.2,1.7
	c-2.8,1.3-5.1,2.8-7,4.9c-1.9,1.9-3.4,4.5-4.5,7.2c-1.1,2.8-1.7,6-1.7,9.2c0,3.4,0.4,6.6,1.5,9.4c1.1,2.8,2.6,5.1,4.5,7.2
	c1.9,1.9,4.3,3.6,7,4.7c2.8,1.1,6,1.7,9.4,1.7c5.1,0,9.2-1.1,12.8-3.4c3.6-2.3,6.2-6,7.9-11.3h-10.7c-0.4,1.3-1.5,2.6-3.2,3.8
	c-1.7,1.3-3.8,1.9-6.2,1.9c-3.4,0-6-0.9-7.9-2.6l0,0c-1.7-1.7-2.8-4.5-3.2-8.5H400C400.2,105.6,400,102.2,399.1,99.2z M368.2,101.5
	c0.2-0.9,0.2-1.9,0.6-3s0.9-1.9,1.7-3c0.6-0.9,1.7-1.7,3-2.3c1.3-0.6,3-1.1,4.9-1.1c3,0,5.1,0.9,6.6,2.3h0c1.5,1.5,2.6,3.8,2.8,7
	H368.2z"/>
<rect x="256.3" y="69.5" class="st0" width="11.3" height="10.2"/>
<rect x="256.3" y="84.9" class="st0" width="11.3" height="44.1"/>
</svg>
