<?xml version="1.0" encoding="UTF-8"?>
<svg id="Layer_1" data-name="Layer 1" xmlns="http://www.w3.org/2000/svg" version="1.1" viewBox="0 0 412.3 88.6">
  <defs>
    <style>
      .cls-1 {
        fill: #017ce9;
      }

      .cls-1, .cls-2 {
        stroke-width: 0px;
      }

      .cls-2 {
        fill: #2e2d79;
      }
    </style>
  </defs>
  <g>
    <path class="cls-2" d="M188.4,73.5v-39.1l-17,25.6h-.4l-16.8-25.4v38.9h-13V13.4h14.4l15.9,25.4,15.9-25.4h14.4v60.1s-13.3,0-13.3,0Z"/>
    <path class="cls-2" d="M244.3,66.2c-.9,1.8-2.2,3.3-3.8,4.6-1.5,1.1-3.5,2.2-5.5,2.7-2.2.7-4.4.9-6.8.9s-6.6-.7-9.9-1.8-6.6-2.9-9.7-5.3l5.5-8.6c2.4,1.8,5.1,3.3,7.5,4.2s4.9,1.3,7.1,1.3,3.3-.2,4.2-.9,1.3-1.5,1.3-2.4v-.2c0-.7-.2-1.3-.7-1.8-.4-.4-1.3-.9-2.2-1.3s-2-.7-3.1-1.1-2.4-.7-3.5-1.1c-1.5-.4-3.3-1.1-4.9-1.8s-3.1-1.5-4.4-2.7-2.4-2.4-3.3-4c-.9-1.5-1.3-3.5-1.3-5.7v-.2c0-2.4.4-4.4,1.3-6.2s2-3.3,3.5-4.6c1.5-1.3,3.3-2.2,5.3-2.9s4.2-.9,6.6-.9,6,.4,8.8,1.3c3.1.9,5.7,2.2,8.4,4l-5.1,9.1c-2.2-1.3-4.4-2.4-6.6-3.1s-4.2-1.1-5.7-1.1-2.9.2-3.5.9c-.9.7-1.1,1.3-1.1,2.2v.2c0,.7.2,1.1.7,1.8.4.4,1.1.9,2,1.3s1.8.9,2.9,1.3,2.2.9,3.5,1.1c1.5.4,3.3,1.1,4.9,1.8,1.8.7,3.1,1.5,4.4,2.7s2.4,2.2,3.3,3.8,1.3,3.3,1.3,5.3v.7c0,2.7-.4,4.9-1.3,6.6Z"/>
    <path class="cls-2" d="M282.9,73.5v-25.6c0-3.1-.7-5.3-2-7.1-1.3-1.5-3.3-2.4-5.7-2.4s-4.4.9-6,2.4-2.2,4-2.2,7.1v25.6h-13V17.4l13-6.6v23.2c.7-.9,1.5-2,2.4-2.9.9-.9,1.8-1.8,2.9-2.4s2.2-1.3,3.5-1.5c1.3-.4,2.9-.7,4.4-.7,5.1,0,8.8,1.5,11.5,4.6s4,7.3,4,12.6v29.8h-12.8Z"/>
    <path class="cls-2" d="M351.8,60c-1.3,2.9-3.1,5.5-5.3,7.5-2.2,2.2-4.9,4-8,5.1-3.1,1.3-6.4,2-9.9,2s-6.8-.7-9.9-1.8c-3.1-1.3-5.7-2.9-8-5.1s-4-4.6-5.3-7.5c-1.3-2.9-2-6-2-9.3v-.2c0-3.3.7-6.4,2-9.3,1.3-2.9,3.1-5.5,5.3-7.5,2.2-2.2,4.9-4,8-5.1,3.1-1.3,6.4-2,9.9-2s6.8.7,9.9,1.8c3.1,1.3,5.7,2.9,8,5.1,2.2,2.2,4,4.6,5.3,7.5,1.3,2.9,2,6,2,9.3v.2c-.2,3.3-.9,6.4-2,9.3ZM340.8,50.5c0-1.8-.2-3.3-.9-4.9-.7-1.5-1.3-2.9-2.4-4s-2.4-2.2-3.8-2.9c-1.5-.7-3.1-1.1-4.9-1.1s-3.5.2-5.1.9-2.7,1.5-3.8,2.7-1.8,2.4-2.4,4c-.4,1.5-.9,3.1-.9,4.9v.2c0,1.8.2,3.3.9,4.9.7,1.5,1.3,2.9,2.4,4s2.4,2.2,3.8,2.9c1.5.7,3.1,1.1,4.9,1.1s3.5-.2,5.1-.9,2.7-1.5,3.8-2.7,1.8-2.4,2.4-4c.7-1.5.9-3.1.9-5.1h0Z"/>
    <path class="cls-2" d="M408.8,60.9c-1.1,2.9-2.7,5.5-4.6,7.5-2,2-4.2,3.5-6.6,4.6s-5.1,1.5-8,1.5-6.4-.7-8.6-2c-2.2-1.3-4.2-2.9-5.7-4.9v19.7h-13v-54.6l13-6.8v8.2c1.5-2.2,3.5-4,5.7-5.3s5.1-2,8.6-2,5.3.4,7.7,1.5,4.9,2.7,6.6,4.6c2,2,3.5,4.4,4.6,7.5,1.1,2.9,1.8,6.4,1.8,10.2v.2c.2,3.5-.4,6.8-1.5,9.9ZM397.6,50.5c0-2-.2-3.8-.9-5.3-.7-1.5-1.3-2.9-2.4-4s-2.2-2-3.5-2.7c-1.3-.7-2.9-.9-4.4-.9s-3.1.2-4.4.9-2.4,1.5-3.5,2.7-1.8,2.4-2.4,4c-.7,1.5-.9,3.3-.9,5.3v.2c0,2,.2,3.8.9,5.3.7,1.5,1.3,2.9,2.4,4s2.2,2,3.5,2.7c1.3.7,2.9.9,4.4.9s3.1-.2,4.4-.9,2.4-1.5,3.5-2.7,1.8-2.4,2.4-4c.7-1.8.9-3.5.9-5.5h0Z"/>
  </g>
  <g>
    <path class="cls-2" d="M64.7,63.3c-3.8,0-6.8-3.1-6.8-6.8s3.1-6.8,6.8-6.8,2.4.4,3.5.9c-2.7-3.1-6.4-4.9-10.6-4.9-7.7,0-14.1,6.2-14.1,14.1s6.2,14.1,14.1,14.1,14.1-6.2,14.1-14.1v-1.5c-1.1,2.7-3.8,5.1-7.1,5.1Z"/>
    <path class="cls-2" d="M38.8,32l4,9.7c4.4-2,9.3-3.1,14.6-3.1s10.4,1.1,15,3.3h0l-13-30.5c-6-13.9-25.6-13.9-31.6,0L1.3,73.7h15.2l17-41.8c1.3-2.2,4.4-2.2,5.3,0Z"/>
    <path class="cls-1" d="M102,11.4c-6-13.9-25.6-13.9-31.6,0l-12.6,27.4c5.1,0,10.2,1.3,14.4,3.3l4.2-9.9c.9-2.2,4-2.2,4.9,0l17,41.8h30l-26.3-62.5Z"/>
  </g>
</svg>