<?xml version="1.0" encoding="utf-8"?>
<!-- Generator: Adobe Illustrator 25.2.1, SVG Export Plug-In . SVG Version: 6.00 Build 0)  -->
<svg version="1.1" id="Layer_1" xmlns="http://www.w3.org/2000/svg" xmlns:xlink="http://www.w3.org/1999/xlink" x="0px" y="0px"
	 viewBox="0 0 721.5 129.3" style="enable-background:new 0 0 721.5 129.3;" xml:space="preserve">
<style type="text/css">
	.st0{fill:#1F0047;}
	.st1{fill:#E2066F;}
	.st2{fill:#A0DBE8;}
	.st3{fill:#525353;}
	.st4{fill:#AA9678;}
	.st5{fill:#C0B098;}
	.st6{fill:#786453;}
	.st7{fill:#8B7460;}
	.st8{fill:none;}
	.st9{fill:#FFFFFF;}
	.st10{fill:#BBBCBD;}
	.st11{fill:#676A6A;}
	.st12{fill:#909393;}
	.st13{fill:#E2DDDB;}
	.st14{fill:#FBB040;}
	.st15{fill:#9F2255;}
</style>
<g id="Calque_1">
</g>
<g id="Calque_2">
	<g id="XMLID_192_">
		<g id="XMLID_323_">
			<path id="XMLID_341_" class="st0" d="M265.5,76.3c-0.1-0.4-0.1-1.1-0.1-2c0-5.8,1.9-10.4,5.8-13.7c3.9-3.3,8.2-4.9,12.9-4.9
				c6.2,0,10.5,2.3,12.9,7L265.5,76.3z M310.6,68c-0.1-6.9-2.7-12.5-7.8-16.8c-5.1-4.3-11.6-6.5-19.3-6.5c-4.9,0-9.6,1.1-14,3.3
				c-4.4,2.2-8.1,5.6-11.1,10.1c-3,4.6-4.5,9.9-4.5,16c0,8.8,2.9,15.8,8.7,21.1c5.8,5.3,12.7,8,20.7,8c9.2,0,17.2-3.5,23.9-10.5
				l-7-7.8c-4.1,5-9.4,7.5-15.8,7.5s-11.4-2.3-15.1-6.8l41.4-17.4L310.6,68z"/>
			<path id="XMLID_189_" class="st0" d="M240.1,48.2c-3.3,2.3-5.9,5.2-7.9,8.8V45.6h-12v56.8h12V78c0-6.5,1.5-11.6,4.5-15.5
				c3-3.8,7.4-5.8,13.3-5.8h0.6l-0.1-12.1C246.9,44.8,243.4,45.9,240.1,48.2"/>
			<path id="XMLID_188_" class="st0" d="M353.4,73.4c-1.9-1.3-3.7-2.3-5.4-3c-1.7-0.7-3.4-1.4-5.2-1.9c-1.8-0.6-3.8-1.1-6.1-1.7
				c-2.3-0.6-4.1-1.2-5.4-1.8c-1.9-0.9-2.8-2.2-2.8-4.1c0-2.1,0.9-3.6,2.7-4.6c1.8-1,4.1-1.5,6.9-1.5c5.4,0,10.4,1.5,15.1,4.6
				l4.5-8.9c-5.8-3.8-12-5.8-18.6-5.8c-6.6,0-11.9,1.6-16,4.8c-4.1,3.2-6.1,7.4-6.1,12.7c0,7.5,5.9,12.8,17.7,16
				c0.3,0.1,0.7,0.2,1.3,0.4c7.5,2.3,11.3,4.8,11.3,7.7c0,1.9-0.8,3.5-2.4,4.8c-1.6,1.2-3.7,1.9-6.4,1.9c-6.2,0-12.6-2.5-19.2-7.5
				l-5.8,9.3c3.4,2.7,7.4,4.8,11.8,6.3c4.5,1.5,8.7,2.2,12.9,2.2c6.1,0,11.1-1.6,15.1-4.9c3.9-3.2,5.9-7.6,5.9-13
				C359.2,80,357.3,76,353.4,73.4"/>
			<path id="XMLID_336_" class="st0" d="M195.2,65c-2.5,2.7-7.3,4-14.3,4h-14.6V39.1h12.8c6.8,0,11.9,1.1,15.1,3.2
				c3.2,2.1,4.8,5.8,4.8,10.9C198.9,58.5,197.7,62.4,195.2,65 M204.1,34.2c-5.2-4.3-13.5-6.5-24.8-6.5h-25.6v74.7h12.6V80.5h13.2
				c11,0,19.1-2.1,24.4-6.3c5.3-4.2,8-10.8,8-19.9C211.9,45.3,209.3,38.6,204.1,34.2"/>
			<path id="XMLID_185_" class="st0" d="M387.2,92.9c-2.6,0-4.6-0.8-6-2.4c-1.4-1.6-2.1-3.8-2.1-6.5V55.2h15v-9.6h-15V27.7h-12v56
				c0,6,1.8,10.7,5.4,14.3c3.6,3.5,7.9,5.3,13,5.3c5.1,0,9.7-1.9,13.9-5.7l-4.9-8.4C392.2,91.6,389.7,92.9,387.2,92.9"/>
			<path id="XMLID_332_" class="st0" d="M441.9,87.5c-3.3,3.5-7.3,5.2-12,5.2c-4.7,0-8.8-1.7-12.3-5.1c-3.5-3.4-5.2-7.8-5.2-13.3
				s1.7-10,5.1-13.6c3.4-3.6,7.5-5.4,12.3-5.4c4.8,0,8.8,1.8,12.1,5.4c3.3,3.6,4.9,8.2,4.9,13.6C446.8,79.6,445.2,84,441.9,87.5
				 M446.6,55.4c-4.8-7.1-11-10.7-18.5-10.7c-7.5,0-14,2.6-19.4,7.9c-5.5,5.3-8.2,12.3-8.2,21.1c0,8.8,2.7,16,8,21.4
				c5.3,5.4,11.6,8.1,18.8,8.1c3.6,0,7.1-0.9,10.6-2.6c3.5-1.7,6.4-4.3,8.7-7.5v9.3h12V45.6h-12L446.6,55.4L446.6,55.4z"/>
			<path id="XMLID_329_" class="st1" d="M635.9,87.4c-3.4,3.5-7.7,5.2-12.9,5.2c-5.2,0-9.5-1.7-12.9-5.2c-3.4-3.5-5.1-7.9-5.1-13.4
				c0-5.5,1.7-9.9,5.1-13.4c3.4-3.5,7.7-5.2,12.9-5.2c5.2,0,9.5,1.7,12.9,5.2c3.4,3.5,5.1,7.9,5.1,13.4S639.3,83.9,635.9,87.4
				 M623,44.7c-8.5,0-15.7,2.8-21.4,8.5c-5.7,5.7-8.5,12.6-8.5,20.8s2.8,15.1,8.5,20.8c5.7,5.7,12.8,8.5,21.4,8.5s15.7-2.8,21.4-8.5
				c5.7-5.7,8.5-12.6,8.5-20.8s-2.8-15.1-8.5-20.8C638.7,47.5,631.6,44.7,623,44.7"/>
			<path id="XMLID_326_" class="st1" d="M700.9,87.4c-3.5,3.4-7.6,5.1-12.3,5.1s-8.7-1.7-12-5.2c-3.3-3.5-4.9-7.9-4.9-13.3
				c0-5.4,1.6-9.9,4.9-13.5c3.3-3.6,7.3-5.4,12.1-5.4c4.8,0,8.9,1.8,12.3,5.4c3.4,3.6,5.1,8.1,5.1,13.6
				C706.1,79.6,704.3,84,700.9,87.4 M709.9,52.6c-5.4-5.3-11.9-7.9-19.5-7.9c-7.6,0-13.8,3.6-18.5,10.8v-9.9h-12v77.5h12V93.8
				c5.7,6.3,12.1,9.4,19.3,9.4c7.2,0,13.4-2.7,18.8-8.2c5.4-5.5,8.1-12.6,8.1-21.4S715.3,57.9,709.9,52.6"/>
			<path id="XMLID_178_" class="st1" d="M565.3,44.7c-4,0-7.7,1-11.2,3c-3.5,2-6,4.7-7.7,8.2V23.2h-12v79.1h12V71.6
				c0-5.3,1.5-9.3,4.6-12c3.1-2.7,6.7-4.1,10.8-4.1c8.7,0,13,5.2,13,15.7v31.2h12V67.6c0-7.4-2-13.1-5.9-17
				C576.9,46.7,571.7,44.7,565.3,44.7"/>
			<path id="XMLID_177_" class="st1" d="M520.1,66.5c-3.9-3.3-9.6-5.9-17.3-7.8c-7.7-1.8-12.7-3.6-15-5.2c-2.3-1.6-3.5-3.9-3.5-6.9
				c0-3,1.2-5.3,3.5-6.8c2.4-1.5,5.4-2.2,9-2.2c3.7,0,7.4,0.6,11.2,1.9c3.8,1.3,6.8,2.9,9,4.9l6.7-9.5c-3.4-2.8-7.5-5.1-12.2-6.6
				c-4.7-1.6-9.4-2.4-14.2-2.4c-7.4,0-13.6,1.9-18.6,5.6c-5,3.7-7.5,9.1-7.5,16s2.2,12,6.6,15.4c2.2,1.8,4.7,3.2,7.6,4.3
				c2.8,1.1,7,2.3,12.5,3.6c5.5,1.3,9.3,2.8,11.6,4.4s3.4,3.8,3.4,6.7s-1.2,5.2-3.6,6.9c-2.4,1.7-5.6,2.6-9.7,2.6
				c-8.1,0-15.9-3.3-23.5-9.8l-7.9,9.5c9,8,19.4,12.1,31.1,12.1c8,0,14.4-2,19.3-6.1c4.9-4.1,7.4-9.3,7.4-15.9S524,69.8,520.1,66.5"
				/>
		</g>
		<path id="XMLID_176_" class="st2" d="M44.9,96.1c0.9-0.4,1.9-0.8,2.8-1.1c1.1-0.4,2.1-0.8,3.2-1.1c1.4-0.4,2.7-0.8,4.1-1.1
			c1.9-0.4,3.8-0.7,5.7-0.9c-1.1,3.4-2.3,6.7-3.5,10.1c0.1,0.6,0.1,1.3,0.1,1.9c2.6-0.5,5.3-0.8,8-0.8s5.4,0.3,8,0.8
			c0-0.7,0-1.3,0.1-1.9c-1.3-3.3-2.5-6.7-3.5-10.1c1.9,0.2,3.8,0.5,5.7,0.9c1.4,0.3,2.8,0.7,4.1,1.1c1.1,0.3,2.2,0.7,3.2,1.1
			c0.9,0.4,1.9,0.7,2.8,1.1c6.6,2.9,12.6,7.3,17.5,12.9c12.3-10.6,20.1-26.4,20.1-43.9c0-32.1-26-58-58-58s-58,26-58,58
			c0,17.6,7.8,33.3,20.1,43.9C32.3,103.3,38.3,99,44.9,96.1z"/>
		<path id="XMLID_175_" class="st3" d="M48.7,106.6c2.7-1.2,5.6-2.1,8.6-2.7c0-0.7,0-1.3-0.1-1.9c1.3-3.3,2.5-6.7,3.5-10.1
			c-1.9,0.2-3.8,0.5-5.7,0.9c-1.4,0.3-2.8,0.7-4.1,1.1c-1.1,0.3-2.2,0.7-3.2,1.1l4.2,1L48.7,106.6z"/>
		<path id="XMLID_174_" class="st3" d="M38.7,112.8c0.1-1.1,0.2-2.2,0.2-3.3c0-0.7,0.5-1.2,1.2-1.2h1.1l3.7-12.3
			c-6.6,2.9-12.6,7.3-17.5,12.9c2.7,2.3,5.6,4.4,8.8,6.2C37,114.4,37.8,113.6,38.7,112.8z"/>
		<path id="XMLID_173_" class="st3" d="M85.7,96.1l3.7,12.3h1.1c0.7,0,1.2,0.5,1.2,1.2c0,1.1,0.1,2.2,0.2,3.3
			c0.9,0.8,1.8,1.6,2.6,2.4c3.1-1.8,6-3.9,8.8-6.2C98.3,103.3,92.3,99,85.7,96.1z"/>
		<path id="XMLID_172_" class="st3" d="M78.7,95.9l4.2-1c-1.1-0.4-2.1-0.8-3.2-1.1c-1.4-0.4-2.7-0.8-4.1-1.1
			c-1.9-0.4-3.8-0.7-5.7-0.9c1.1,3.4,2.3,6.7,3.5,10.1c-0.1,0.6-0.1,1.3-0.1,1.9c3,0.6,5.9,1.5,8.6,2.7L78.7,95.9z"/>
		<path id="XMLID_171_" d="M65.3,108.4h8.2c-0.2-1.5-0.2-3-0.2-4.5c-2.6-0.5-5.3-0.8-8-0.8c-2.7,0-5.4,0.3-8,0.8c0,1.5,0,3-0.2,4.5
			H65.3z"/>
		<path id="XMLID_170_" d="M36.1,115.2c0.7,0.4,1.4,0.8,2,1.1c0.2-1.2,0.4-2.3,0.5-3.5C37.8,113.6,37,114.4,36.1,115.2z"/>
		<path id="XMLID_169_" d="M48.2,108.4h9c0.2-1.5,0.2-3,0.2-4.5c-3,0.6-5.9,1.5-8.6,2.7L48.2,108.4z"/>
		<path id="XMLID_168_" d="M91.9,112.8c0.1,1.2,0.3,2.4,0.5,3.5c0.7-0.4,1.4-0.7,2-1.1C93.6,114.4,92.8,113.6,91.9,112.8z"/>
		<path id="XMLID_167_" d="M82.4,108.4l-0.5-1.8c-2.7-1.2-5.6-2.1-8.6-2.7c0,1.5,0,3,0.2,4.5L82.4,108.4L82.4,108.4z"/>
		<path id="XMLID_166_" class="st4" d="M48.2,108.4l0.5-1.8l3.2-10.6l-4.2-1c-0.9,0.4-1.9,0.7-2.8,1.1l-3.7,12.3h4L48.2,108.4
			L48.2,108.4z"/>
		<path id="XMLID_165_" class="st4" d="M81.9,106.6l0.5,1.8h3h4l-3.7-12.3c-0.9-0.4-1.9-0.8-2.8-1.1l-4.2,1L81.9,106.6z"/>
		<path id="XMLID_164_" class="st5" d="M41.3,110.8c0,0,0.1-0.1,0.1-0.1L41.3,110.8C41.3,110.8,41.3,110.8,41.3,110.8z"/>
		<path id="XMLID_163_" class="st5" d="M65.3,110.8h-8.5h-9.3h-6c0,0-0.1,0.1-0.1,0.1c-0.1,2.3-0.4,4.5-0.9,6.7
			c7.5,3.6,16,5.6,24.9,5.6V110.8z"/>
		<path id="XMLID_162_" class="st4" d="M89.3,110.8h-0.1C89.2,110.8,89.3,110.8,89.3,110.8C89.3,110.8,89.3,110.8,89.3,110.8z"/>
		<path id="XMLID_161_" class="st4" d="M89.2,110.8h-6h-9.3h-8.5l0,0v12.3c8.9,0,17.3-2,24.9-5.6c-0.5-2.2-0.8-4.4-0.9-6.7
			C89.3,110.8,89.2,110.8,89.2,110.8z"/>
		<rect id="XMLID_160_" x="65.3" y="109.6" class="st6" width="0" height="1.2"/>
		<path id="XMLID_159_" class="st7" d="M91.9,112.8c-0.1-1.1-0.2-2.2-0.2-3.3c0-0.7-0.5-1.2-1.2-1.2h-1.1h-4h-3h-9h-8.2h-8.2h-9h-3
			h-4h-1.1c-0.7,0-1.2,0.5-1.2,1.2c0,1.1-0.1,2.2-0.2,3.3c-0.1,1.2-0.3,2.4-0.5,3.5c0.7,0.4,1.5,0.8,2.2,1.1
			c0.5-2.2,0.8-4.4,0.9-6.7c0,0,0-0.1,0-0.1h0.1h6h9.3h8.5l0,0h8.5h9.3h6h0.1c0,0,0,0.1,0,0.1c0.1,2.3,0.4,4.5,0.9,6.7
			c0.7-0.4,1.5-0.7,2.2-1.1C92.2,115.2,92,114,91.9,112.8z"/>
		<g id="XMLID_195_">
			<path id="XMLID_158_" class="st8" d="M84.8,56.2L84.8,56.2C84.8,56.2,84.8,56.2,84.8,56.2c0.7,2.1,1.6,4.2,2,6.4
				c0,0.2,0,0.3,0,0.5c0,0.2-0.1,0.4-0.1,0.6c0.1-0.3,0.1-0.6,0.2-1C86.4,60.5,85.6,58.3,84.8,56.2C84.8,56.2,84.8,56.2,84.8,56.2
				C84.8,56.2,84.8,56.2,84.8,56.2L84.8,56.2z"/>
			<path id="XMLID_157_" class="st8" d="M101.7,69.3C101.7,69.4,101.7,69.4,101.7,69.3C101.7,69.4,101.7,69.4,101.7,69.3z"/>
			<path id="XMLID_156_" class="st8" d="M102.1,69.1c0,0-0.1,0.1-0.1,0.1C102,69.1,102.1,69.1,102.1,69.1z"/>
			<path id="XMLID_155_" class="st8" d="M83.1,54.7c-1.3-1.1-2.7-2.2-4.2-3.1l0,0C80.3,52.5,81.7,53.6,83.1,54.7z"/>
			<path id="XMLID_154_" class="st8" d="M96.5,68.6C96.6,68.6,96.6,68.6,96.5,68.6C96.6,68.6,96.6,68.6,96.5,68.6z"/>
			<path id="XMLID_153_" class="st8" d="M99,71.7c0,0.1,0.1,0.1,0.1,0.1C99.1,71.8,99,71.7,99,71.7z"/>
			<path id="XMLID_152_" class="st8" d="M86.6,63.8c0,0.2-0.1,0.3-0.1,0.5C86.6,64.1,86.6,64,86.6,63.8z"/>
			<path id="XMLID_151_" class="st8" d="M80.9,85c-0.9,1.5-1.5,2.9-1.8,4.2C79.5,87.8,80.1,86.4,80.9,85c0.3-0.5,0.6-1,0.9-1.4
				C81.5,84,81.2,84.5,80.9,85C80.9,85,80.9,85,80.9,85z"/>
			<path id="XMLID_150_" class="st8" d="M84.8,56.2c0.1-0.1,0.1-0.2,0.2-0.3l0,0C84.9,56,84.9,56.1,84.8,56.2c0.3,0.3,0.7,0.6,1,0.9
				C85.5,56.8,85.2,56.5,84.8,56.2z"/>
			<path id="XMLID_149_" class="st8" d="M73.3,63.8C73.3,63.8,73.3,63.8,73.3,63.8C73.3,63.8,73.3,63.8,73.3,63.8z"/>
			<path id="XMLID_148_" class="st8" d="M72.9,62.9L72.9,62.9L72.9,62.9z"/>
			<path id="XMLID_147_" class="st8" d="M76.8,50.5c-0.1,0-0.1-0.1-0.2-0.1C76.7,50.4,76.7,50.4,76.8,50.5z"/>
			<path id="XMLID_146_" class="st8" d="M77.1,50.6c-0.1-0.1-0.2-0.1-0.2-0.1C76.9,50.5,77,50.6,77.1,50.6z"/>
			<path id="XMLID_145_" class="st8" d="M79,55.3c0,0.1,0,0.3,0,0.4C79,55.6,79,55.4,79,55.3z"/>
			<path id="XMLID_144_" class="st8" d="M73.1,63.3C73.1,63.3,73.1,63.3,73.1,63.3C73.1,63.3,73.1,63.3,73.1,63.3z"/>
			<path id="XMLID_143_" class="st8" d="M101.4,74.7c0.1,0.1,0.1,0.2,0.2,0.3C101.5,74.9,101.4,74.8,101.4,74.7z"/>
			<path id="XMLID_142_" class="st8" d="M79,57.1c0,0.6,0,1.2-0.1,1.8C79,58.3,79,57.7,79,57.1z"/>
			<path id="XMLID_141_" class="st8" d="M73.5,64.4C73.5,64.4,73.5,64.4,73.5,64.4C73.5,64.4,73.5,64.4,73.5,64.4z"/>
			<path id="XMLID_140_" class="st8" d="M78.8,51.6c-0.2-0.1-0.8-0.4-1.3-0.7C78,51.1,78.5,51.4,78.8,51.6z"/>
			<path id="XMLID_139_" class="st8" d="M77.5,50.8c-0.1-0.1-0.2-0.1-0.4-0.2C77.2,50.7,77.3,50.8,77.5,50.8z"/>
			<path id="XMLID_138_" class="st8" d="M78.9,51.6L78.9,51.6C78.9,51.6,78.8,51.6,78.9,51.6C78.8,51.6,78.9,51.6,78.9,51.6z"/>
			<path id="XMLID_137_" class="st8" d="M103.3,65.7c0,0,0-0.1,0-0.1c0,0,0,0,0,0c0,0,0,0,0,0c0,0,0-0.1,0-0.1c0,0,0,0.1,0,0.1
				C103.3,65.6,103.3,65.7,103.3,65.7z"/>
			<path id="XMLID_136_" class="st8" d="M93.8,65.4c0.1,0.1,0.1,0.1,0.2,0.2c0,0,0,0,0,0h0C94,65.5,93.9,65.5,93.8,65.4L93.8,65.4z"
				/>
			<path id="XMLID_135_" class="st8" d="M85.9,57.1c0.8,0.7,1.5,1.4,2.3,2.2C87.4,58.6,86.6,57.8,85.9,57.1z"/>
			<path id="XMLID_134_" class="st8" d="M101,61.6c0.1,0,0.3,0,0.4,0.1C101.3,61.6,101.1,61.6,101,61.6z"/>
			<path id="XMLID_133_" class="st8" d="M98.8,64.5c0,0.1,0,0.1,0,0.2C98.7,64.6,98.7,64.5,98.8,64.5z"/>
			<path id="XMLID_132_" class="st8" d="M101.5,61.7c0.1,0,0.2,0.1,0.3,0.1C101.7,61.8,101.6,61.7,101.5,61.7z"/>
			<path id="XMLID_131_" class="st8" d="M102.4,62.4c0,0,0.1,0.1,0.1,0.1C102.5,62.5,102.4,62.5,102.4,62.4z"/>
			<path id="XMLID_130_" class="st8" d="M103.3,64.7C103.3,64.7,103.3,64.7,103.3,64.7C103.3,64.7,103.3,64.7,103.3,64.7
				C103.3,64.7,103.3,64.7,103.3,64.7C103.3,64.7,103.3,64.7,103.3,64.7z"/>
			<path id="XMLID_129_" class="st8" d="M103.3,66.4C103.3,66.4,103.3,66.4,103.3,66.4C103.3,66.4,103.3,66.4,103.3,66.4
				C103.3,66.4,103.3,66.5,103.3,66.4C103.3,66.5,103.3,66.5,103.3,66.4z"/>
			<path id="XMLID_128_" class="st8" d="M99.5,62.6c0,0,0.1-0.1,0.1-0.1C99.5,62.5,99.5,62.5,99.5,62.6z"/>
			<path id="XMLID_127_" class="st8" d="M100.6,61.6c0.1,0,0.3-0.1,0.4-0.1C100.8,61.6,100.7,61.6,100.6,61.6z"/>
			<path id="XMLID_126_" class="st8" d="M90.3,61.5c-0.4-0.4-0.7-0.7-1.1-1.1C89.5,60.7,89.9,61.1,90.3,61.5z"/>
			<path id="XMLID_125_" class="st8" d="M101,48.9L101,48.9C101,48.9,101,48.9,101,48.9v5.4l-2.1,9.5c0,0,0,0,0,0.1c0,0,0,0,0-0.1
				l0,0l0,0l2.1-9.5L101,48.9L101,48.9L101,48.9L101,48.9z"/>
			<path id="XMLID_124_" class="st8" d="M92.2,63.5c-0.2-0.2-0.4-0.4-0.6-0.6C91.8,63.1,92,63.3,92.2,63.5z"/>
			<path id="XMLID_123_" class="st8" d="M103.1,63.7c0,0.1,0.1,0.1,0.1,0.2c0,0,0,0,0,0C103.1,63.9,103.1,63.8,103.1,63.7
				L103.1,63.7L103.1,63.7z"/>
			<path id="XMLID_122_" class="st8" d="M98.7,65.6L98.7,65.6c0,0,0-0.1,0-0.1C98.7,65.5,98.7,65.5,98.7,65.6z"/>
			<path id="XMLID_121_" class="st8" d="M100.2,61.8c0.1-0.1,0.2-0.1,0.3-0.1C100.4,61.7,100.3,61.8,100.2,61.8z"/>
			<path id="XMLID_120_" class="st8" d="M99.7,62.2c0.1-0.1,0.2-0.2,0.3-0.3C99.9,62,99.8,62.1,99.7,62.2z"/>
			<path id="XMLID_119_" class="st8" d="M103.1,67.2C103.1,67.2,103.1,67.2,103.1,67.2c-0.1,0.2-0.1,0.4-0.2,0.6
				C103,67.6,103.1,67.4,103.1,67.2L103.1,67.2L103.1,67.2z"/>
			<path id="XMLID_118_" class="st8" d="M32.4,63.8c0.1-0.1,0.2-0.3,0.3-0.4C32.6,63.5,32.5,63.6,32.4,63.8z"/>
			<path id="XMLID_117_" class="st8" d="M101.9,61.9c0.1,0.1,0.2,0.2,0.3,0.3C102.1,62.1,102,62,101.9,61.9z"/>
			<path id="XMLID_116_" class="st8" d="M34,61.4c0-0.1,0.1-0.1,0.1-0.2C34.1,61.2,34.1,61.3,34,61.4z"/>
			<path id="XMLID_115_" class="st8" d="M73.6,65.5L73.6,65.5C73.6,65.5,73.6,65.5,73.6,65.5L73.6,65.5L73.6,65.5L73.6,65.5
				C73.6,65.5,73.6,65.5,73.6,65.5z"/>
			<path id="XMLID_114_" class="st8" d="M29.9,68.4c-0.1,0.2-0.2,0.4-0.3,0.6C29.7,68.8,29.8,68.6,29.9,68.4z"/>
			<path id="XMLID_113_" class="st8" d="M28.6,71.4c0,0,0,0.1,0,0.1C28.6,71.4,28.6,71.4,28.6,71.4z"/>
			<polygon id="XMLID_112_" class="st8" points="102.4,50.3 102.4,50.2 102.4,50.2 			"/>
			<path id="XMLID_111_" class="st8" d="M40.1,54.9L40.1,54.9L40.1,54.9z"/>
			<path id="XMLID_110_" class="st8" d="M37.8,57c0.1-0.1,0.2-0.2,0.3-0.3C38,56.7,37.9,56.8,37.8,57z"/>
			<path id="XMLID_109_" class="st8" d="M35.7,59.2c0.1-0.1,0.2-0.3,0.4-0.4C36,58.9,35.9,59.1,35.7,59.2z"/>
			<path id="XMLID_108_" class="st8" d="M103.1,63.7l-2.1-9.5L103.1,63.7z"/>
			<path id="XMLID_107_" class="st8" d="M67,70.9c0,0-0.1,0-0.1,0C66.9,70.9,67,70.9,67,70.9z"/>
			<path id="XMLID_106_" class="st8" d="M67.6,71c0,0-0.1,0-0.1,0C67.5,71,67.5,71,67.6,71z"/>
			<path id="XMLID_105_" class="st8" d="M31.1,65.9c-0.1,0.2-0.3,0.5-0.4,0.7C30.9,66.4,31,66.1,31.1,65.9z"/>
			<path id="XMLID_104_" class="st8" d="M65.5,70.3C65.5,70.3,65.5,70.3,65.5,70.3C65.5,70.3,65.5,70.3,65.5,70.3z"/>
			<path id="XMLID_103_" class="st8" d="M66.5,70.8C66.4,70.8,66.4,70.8,66.5,70.8C66.4,70.8,66.4,70.8,66.5,70.8z"/>
			<path id="XMLID_102_" class="st8" d="M66,70.6C65.9,70.6,65.9,70.6,66,70.6C65.9,70.6,65.9,70.6,66,70.6z"/>
			<path id="XMLID_101_" class="st8" d="M63.1,67.6C63.1,67.6,63.1,67.6,63.1,67.6C63.1,67.6,63.1,67.6,63.1,67.6z"/>
			<path id="XMLID_100_" class="st8" d="M62.8,64.3c0,0,0,0.1,0,0.1C62.8,64.4,62.8,64.4,62.8,64.3z"/>
			<path id="XMLID_99_" class="st8" d="M63.4,62.9C63.4,62.9,63.4,62.9,63.4,62.9C63.4,62.9,63.4,62.9,63.4,62.9z"/>
			<path id="XMLID_98_" class="st8" d="M65.2,61C65.2,61,65.2,61,65.2,61C65.2,61,65.2,61,65.2,61z"/>
			<path id="XMLID_97_" class="st8" d="M63,63.8C62.9,63.8,62.9,63.9,63,63.8C62.9,63.9,62.9,63.8,63,63.8z"/>
			<path id="XMLID_96_" class="st8" d="M63.1,63.3C63.1,63.3,63.1,63.4,63.1,63.3C63.1,63.4,63.1,63.3,63.1,63.3z"/>
			<path id="XMLID_95_" class="st8" d="M69.2,60.2C69.2,60.2,69.2,60.2,69.2,60.2C69.2,60.2,69.2,60.2,69.2,60.2z"/>
			<path id="XMLID_94_" class="st8" d="M70.2,60.5C70.2,60.5,70.2,60.5,70.2,60.5C70.2,60.5,70.2,60.5,70.2,60.5z"/>
			<path id="XMLID_93_" class="st8" d="M66.1,60.5C66.1,60.5,66.1,60.5,66.1,60.5C66.1,60.5,66.1,60.5,66.1,60.5z"/>
			<path id="XMLID_92_" class="st8" d="M67.1,60.2C67.1,60.2,67.1,60.2,67.1,60.2C67.1,60.2,67.1,60.2,67.1,60.2z"/>
			<path id="XMLID_91_" class="st8" d="M73.6,64.9C73.6,64.9,73.6,64.9,73.6,64.9C73.6,64.9,73.6,64.9,73.6,64.9z"/>
			<path id="XMLID_90_" class="st8" d="M68.2,48c0-0.1,0-0.2,0-0.2C68.2,47.8,68.2,47.9,68.2,48z"/>
			<path id="XMLID_89_" class="st8" d="M68.2,47.6c0-0.1,0-0.1,0-0.1C68.2,47.5,68.2,47.5,68.2,47.6z"/>
			<path id="XMLID_88_" class="st8" d="M68.2,47.4C68.2,47.3,68.2,47.3,68.2,47.4C68.2,47.3,68.2,47.3,68.2,47.4z"/>
			<path id="XMLID_87_" class="st8" d="M68.2,48.7L68.2,48.7v-0.3c0-0.1,0-0.2,0-0.2C68.2,48.3,68.2,48.5,68.2,48.7z"/>
			<path id="XMLID_86_" class="st8" d="M102.6,68.5c-0.1,0.1-0.1,0.2-0.2,0.3C102.5,68.7,102.5,68.6,102.6,68.5z"/>
			<path id="XMLID_85_" class="st8" d="M62.7,64.9c0,0,0,0.1,0,0.1C62.7,64.9,62.7,64.9,62.7,64.9z"/>
			<path id="XMLID_84_" class="st8" d="M62.8,66.6C62.8,66.6,62.8,66.6,62.8,66.6C62.8,66.6,62.8,66.6,62.8,66.6z"/>
			<path id="XMLID_83_" class="st8" d="M102.9,67.9c-0.1,0.1-0.1,0.3-0.2,0.4C102.8,68.2,102.8,68,102.9,67.9z"/>
			<path id="XMLID_82_" class="st3" d="M81.9,100.1c-0.2-0.2-0.4-0.4-0.5-0.7C81.6,99.7,81.7,99.9,81.9,100.1L81.9,100.1z"/>
			<path id="XMLID_81_" class="st4" d="M83.3,101.4C83.3,101.4,83.3,101.4,83.3,101.4C83.3,101.4,83.3,101.4,83.3,101.4
				s-0.6-0.5-1.3-1.3l0,0C82.7,100.9,83.3,101.4,83.3,101.4z"/>
			<ellipse id="XMLID_80_" class="st9" cx="101" cy="48.9" rx="0" ry="0"/>
			<path id="XMLID_79_" class="st9" d="M103.3,65.6C103.3,65.6,103.3,65.6,103.3,65.6L103.3,65.6C103.3,65.6,103.3,65.6,103.3,65.6z
				"/>
			<path id="XMLID_78_" class="st10" d="M103.9,52.1L103.9,52.1L103.9,52.1C103.9,52.1,103.9,52.1,103.9,52.1L103.9,52.1
				c-0.5-0.7-1-1.3-1.5-1.9c0,0,0,0,0,0c0,0,0,0,0,0c0,0,0,0,0,0l0,0c-0.2-0.3-0.5-0.5-0.7-0.7c-0.1-0.1-0.2-0.2-0.3-0.2
				c-0.1-0.1-0.3-0.3-0.4-0.4v0v5.4l2.1,9.5l0,0c0,0.1,0.1,0.1,0.1,0.2l1.4,1.6l0,0h1.5c0-0.1,0-0.3,0-0.4v0c0-4.5-0.7-8.8-2.1-12.8
				l0,0C104,52.3,104,52.2,103.9,52.1z"/>
			<path id="XMLID_77_" class="st10" d="M103.3,65.6C103.3,65.6,103.3,65.6,103.3,65.6C103.3,65.6,103.3,65.6,103.3,65.6L103.3,65.6
				z"/>
			<path id="XMLID_76_" class="st11" d="M103.3,64.7C103.3,64.7,103.3,64.7,103.3,64.7C103.3,64.7,103.3,64.7,103.3,64.7
				C103.3,64.7,103.3,64.7,103.3,64.7c0,0.3,0.1,0.5,0.1,0.8c0,0,0,0.1,0,0.1c0,0,0,0,0,0c0,0,0,0,0,0c0,0,0,0.1,0,0.1
				c0,0.2,0,0.5,0,0.7c0,0,0,0,0,0c0,0,0,0,0,0c0,0,0,0,0,0.1c0,0.2-0.1,0.5-0.1,0.7c0,0,0,0,0,0l0,0l0,0c0,0,0,0,0,0l0,0l1.4-1.6
				l-1.4-1.6c0,0,0,0,0,0C103.2,64.2,103.2,64.4,103.3,64.7z"/>
			<path id="XMLID_219_" d="M103.3,66.5C103.3,66.5,103.3,66.4,103.3,66.5c0-0.3,0.1-0.5,0.1-0.8c0-0.1,0-0.1,0-0.2c0,0,0-0.1,0-0.1
				c0-0.2,0-0.5,0-0.7c0,0,0-0.1,0-0.1c0-0.2-0.1-0.5-0.1-0.7c0-0.1,0-0.1-0.1-0.2c-0.1-0.5-0.3-0.9-0.5-1.2c0,0-0.1-0.1-0.1-0.1
				c-0.1-0.1-0.1-0.2-0.2-0.2c-0.1-0.1-0.2-0.2-0.3-0.3c0,0-0.1-0.1-0.1-0.1c-0.1-0.1-0.2-0.1-0.3-0.1c0,0-0.1,0-0.1,0
				c-0.1,0-0.3-0.1-0.4-0.1s-0.3,0-0.4,0.1c0,0-0.1,0-0.1,0c-0.1,0-0.2,0.1-0.3,0.1c0,0-0.1,0-0.1,0.1c-0.1,0.1-0.2,0.2-0.3,0.3
				c-0.1,0.1-0.1,0.2-0.2,0.2c0,0-0.1,0.1-0.1,0.1c-0.2,0.3-0.4,0.7-0.5,1.2c0,0,0,0,0,0.1c-0.1,0.2-0.1,0.4-0.1,0.7
				c0,0.1,0,0.1,0,0.2c0,0.3-0.1,0.5-0.1,0.8c0,0,0,0.1,0,0.1h0c0,2.2,1,4,2.3,4c0.2,0,0.4-0.1,0.6-0.2c0,0,0.1,0,0.1-0.1
				c0.1,0,0.2-0.1,0.2-0.2c0,0,0.1-0.1,0.1-0.1c0.1-0.1,0.2-0.2,0.3-0.3c0.1-0.1,0.1-0.2,0.2-0.3c0-0.1,0.1-0.1,0.1-0.2
				c0.1-0.1,0.1-0.2,0.2-0.4c0,0,0-0.1,0.1-0.1c0.1-0.2,0.1-0.4,0.2-0.6C103.2,67,103.2,66.7,103.3,66.5z M101.1,65
				c-0.5,0-0.9-0.7-0.9-1.5s0.4-1.5,0.9-1.5s0.9,0.7,0.9,1.5S101.6,65,101.1,65z"/>
			<ellipse id="XMLID_73_" class="st9" cx="101.1" cy="63.5" rx="0.9" ry="1.5"/>
			<path id="XMLID_72_" class="st12" d="M98.9,63.7L98.9,63.7c0.1-0.5,0.3-0.9,0.5-1.2c0,0,0.1-0.1,0.1-0.1c0.1-0.1,0.1-0.2,0.2-0.2
				c0.1-0.1,0.2-0.2,0.3-0.3c0,0,0.1-0.1,0.1-0.1c0.1-0.1,0.2-0.1,0.3-0.1c0,0,0.1,0,0.1,0c0.1,0,0.3-0.1,0.4-0.1s0.3,0,0.4,0.1
				c0,0,0.1,0,0.1,0c0.1,0,0.2,0.1,0.3,0.1c0,0,0.1,0,0.1,0.1c0.1,0.1,0.2,0.2,0.3,0.3c0.1,0.1,0.1,0.2,0.2,0.2c0,0,0.1,0.1,0.1,0.1
				c0.2,0.3,0.4,0.7,0.5,1.2v0l0,0l-2.1-9.5L98.9,63.7L98.9,63.7z"/>
			<path id="XMLID_214_" d="M73.6,65.5c0-0.2,0-0.4,0-0.6c0,0,0,0,0,0c0-0.2-0.1-0.4-0.1-0.5c0,0,0,0,0,0c0-0.2-0.1-0.3-0.1-0.5
				c0,0,0,0,0,0c-0.1-0.2-0.1-0.3-0.2-0.5c0,0,0,0,0,0C73,63.2,73,63,72.9,62.9l0,0c-0.3-0.5-0.6-0.9-1-1.3
				c-0.5-0.5-1.1-0.8-1.7-1.1c0,0,0,0,0,0c-0.3-0.1-0.6-0.2-1-0.3c0,0,0,0,0,0c-0.3-0.1-0.7-0.1-1-0.1c-0.4,0-0.7,0-1,0.1
				c0,0,0,0,0,0c-0.3,0.1-0.7,0.2-1,0.3c0,0,0,0,0,0c-0.3,0.1-0.6,0.3-0.9,0.5c0,0,0,0,0,0c-0.3,0.2-0.5,0.4-0.8,0.6l0,0l0,0
				c-0.4,0.4-0.7,0.8-1,1.3c0,0,0,0,0,0c-0.1,0.1-0.2,0.3-0.2,0.4c0,0,0,0,0,0c-0.1,0.1-0.1,0.3-0.2,0.4c0,0,0,0.1,0,0.1
				c0,0.1-0.1,0.3-0.1,0.4c0,0,0,0.1,0,0.1c0,0.1,0,0.3-0.1,0.4c0,0,0,0.1,0,0.1c0,0.2,0,0.4,0,0.6c0,0.4,0,0.7,0.1,1.1c0,0,0,0,0,0
				c0.1,0.3,0.2,0.7,0.3,1c0,0,0,0,0,0c0.3,0.6,0.6,1.2,1.1,1.7c0.4,0.4,0.8,0.7,1.3,1c0,0,0,0,0,0c0.1,0.1,0.3,0.2,0.5,0.2
				c0,0,0,0,0,0c0.1,0.1,0.3,0.1,0.4,0.2c0,0,0.1,0,0.1,0c0.1,0,0.3,0.1,0.4,0.1c0,0,0.1,0,0.1,0c0.1,0,0.3,0,0.4,0.1
				c0,0,0.1,0,0.1,0c0.2,0,0.4,0,0.6,0c0.8,0,1.5-0.2,2.1-0.4c0.3-0.1,0.6-0.3,0.9-0.5c0.6-0.4,1.1-0.9,1.5-1.5
				c0.2-0.3,0.4-0.6,0.5-0.9C73.4,67,73.6,66.3,73.6,65.5C73.6,65.5,73.6,65.5,73.6,65.5L73.6,65.5C73.6,65.5,73.6,65.5,73.6,65.5
				L73.6,65.5z M68.1,64.8c-1.1,0-2.1-0.9-2.1-2.1c0-1.1,0.9-2.1,2.1-2.1c1.1,0,2.1,0.9,2.1,2.1C70.2,63.9,69.3,64.8,68.1,64.8z"/>
			<circle id="XMLID_69_" class="st9" cx="68.1" cy="62.8" r="2.1"/>
			<path id="XMLID_68_" class="st10" d="M64.4,61.6L64.4,61.6L64.4,61.6L64.4,61.6L64.4,61.6l3.8-11.5c0,0,0-0.7,0-1.4
				c0-0.2,0-0.4,0-0.6c0-0.1,0-0.1,0-0.2c0-0.1,0-0.2,0-0.2c0-0.1,0-0.1,0-0.1c0-0.1,0-0.1,0-0.1c0,0,0-0.1,0-0.1c0,0,0,0,0,0
				c-2.1-0.4-4.3-0.7-6.5-0.7c-0.7,0-1.5,0-2.2,0.1c-0.1,0-0.2,0-0.3,0c-3.8,0.3-7.5,1.3-11,2.8c-3,1.3-5.7,3.1-8.2,5.2l0,0
				c0,0,0,0,0,0c-0.7,0.6-1.3,1.2-1.9,1.8c-0.1,0.1-0.2,0.2-0.3,0.3c-0.6,0.6-1.1,1.2-1.7,1.8c-0.1,0.1-0.2,0.3-0.4,0.4
				c-0.5,0.6-1.1,1.3-1.6,2c0,0.1-0.1,0.1-0.1,0.2c-0.5,0.7-0.9,1.3-1.4,2c-0.1,0.1-0.2,0.3-0.3,0.4c-0.4,0.6-0.7,1.2-1,1.7h17.1h0
				L64.4,61.6z"/>
			<path id="XMLID_67_" class="st13" d="M78.9,60.3c0-0.4,0.1-0.9,0.1-1.3c0-0.6,0.1-1.2,0.1-1.8c0-0.5,0-0.9,0-1.4
				c0-0.1,0-0.3,0-0.4c0-1.2-0.1-2.4-0.1-3.7l0,0l0,0c0,0,0,0,0,0c0,0,0,0,0,0c0,0,0,0,0,0c0,0,0,0-0.1,0c-0.2-0.1-0.8-0.4-1.3-0.7
				c0,0,0,0,0,0c-0.1-0.1-0.2-0.1-0.4-0.2c0,0,0,0,0,0c-0.1-0.1-0.2-0.1-0.2-0.1c0,0,0,0,0,0c-0.1,0-0.1-0.1-0.2-0.1
				c-0.8-0.4-1.6-0.8-2.4-1.1c-2-0.8-4.6-1.5-6.1-1.9v1v0.2v0.1c0,0.7,0,1.4,0,1.4l3.7,11.5l0,0c0.4,0.4,0.7,0.8,1,1.3l0,0
				c0.1,0.2,0.2,0.3,0.2,0.5c0,0,0,0,0,0c0.1,0.2,0.1,0.3,0.2,0.5c0,0,0,0,0,0c0.1,0.2,0.1,0.3,0.1,0.5c0,0,0,0,0,0
				c0,0.2,0.1,0.4,0.1,0.5c0,0,0,0,0,0c0,0.2,0,0.4,0,0.6l0,0l0,0h4.6c0.3-1.7,0.5-3.4,0.7-5.1C78.8,60.4,78.8,60.4,78.9,60.3z"/>
			<path id="XMLID_66_" class="st14" d="M84.8,56.2C84.8,56.2,84.8,56.2,84.8,56.2C84.8,56.2,84.8,56.2,84.8,56.2L84.8,56.2z"/>
			<path id="XMLID_65_" class="st14" d="M73.6,82c1-1,2-2,2.9-3c0.6-0.6,1.1-1.1,1.6-1.7c3.8-4.1,6.6-8,8.3-13
				c0-0.1,0.1-0.3,0.1-0.5c0,0,0-0.1,0-0.1c0-0.2,0.1-0.4,0.1-0.6c0-0.2,0-0.3,0-0.5c-0.4-2.2-1.2-4.3-2-6.4c0,0,0,0,0,0
				c0,0,0,0,0,0c-0.1-0.1-0.3-0.3-0.4-0.4c-0.4-0.4-0.9-0.8-1.3-1.2c-1.3-1.1-2.7-2.2-4.2-3.1l0,0c0.1,1.2,0.1,2.4,0.1,3.7
				c0,0.1,0,0.3,0,0.4c0,0.5,0,0.9,0,1.4c0,0.6,0,1.2-0.1,1.8c0,0.5-0.1,0.9-0.1,1.3c0,0,0,0.1,0,0.1c-0.1,1.7-0.4,3.4-0.7,5.1
				l-0.5,2.5c-1.1,4.5-3.4,8.7-5.3,12.9c-0.5,1.1-1,2.3-1.4,3.4c0,0.1-0.1,0.2-0.1,0.3c0.6-0.6,1.1-1.1,1.5-1.5
				C72.8,82.8,73.2,82.4,73.6,82z"/>
			<path id="XMLID_64_" class="st12" d="M64.4,61.6L64.4,61.6c0.2-0.2,0.5-0.4,0.8-0.6c0,0,0,0,0,0c0.3-0.2,0.6-0.3,0.9-0.5
				c0,0,0,0,0,0c0.3-0.1,0.6-0.2,1-0.3c0,0,0,0,0,0c0.3-0.1,0.7-0.1,1-0.1c0.4,0,0.7,0,1,0.1c0,0,0,0,0,0c0.3,0.1,0.7,0.2,1,0.3
				c0,0,0,0,0,0c0.6,0.3,1.2,0.6,1.7,1.1l0,0l-3.7-11.5L64.4,61.6z"/>
			<path id="XMLID_63_" class="st11" d="M63.1,67.6c-0.1-0.3-0.2-0.6-0.3-1c0,0,0,0,0,0c-0.1-0.3-0.1-0.7-0.1-1.1c0-0.2,0-0.4,0-0.6
				c0,0,0-0.1,0-0.1c0-0.1,0-0.3,0.1-0.4c0,0,0-0.1,0-0.1c0-0.1,0.1-0.3,0.1-0.4c0,0,0-0.1,0-0.1c0-0.1,0.1-0.3,0.2-0.4c0,0,0,0,0,0
				c0.1-0.2,0.1-0.3,0.2-0.4c0,0,0,0,0,0c0.3-0.5,0.6-0.9,1-1.3l0,0l-15.8,3.9h0l15.7,3.8C63.7,68.9,63.3,68.3,63.1,67.6
				C63.1,67.6,63.1,67.6,63.1,67.6z"/>
			<path id="XMLID_62_" class="st13" d="M98.7,64.7c0-0.1,0-0.1,0-0.2c0-0.2,0.1-0.4,0.1-0.7c0,0,0,0,0-0.1l2.1-9.5v-5.4
				c-1.7-1.4-3.5-2.2-5.4-2.2c-2.4,0-4.6,1.3-6.3,2.9c-1.8,1.8-3.2,4-4.4,6.3c-0.1,0.1-0.1,0.2-0.2,0.3c0.3,0.3,0.7,0.6,1,0.9
				c0.8,0.7,1.5,1.4,2.3,2.2c0.3,0.3,0.7,0.7,1,1c0.4,0.4,0.7,0.7,1.1,1.1c0.5,0.5,0.9,1,1.4,1.5c0.2,0.2,0.4,0.4,0.6,0.6
				c0.5,0.6,1.1,1.2,1.6,1.8l0,0c0.1,0.1,0.2,0.2,0.2,0.2h4.7c0,0,0-0.1,0-0.1C98.7,65.2,98.7,64.9,98.7,64.7z"/>
			<path id="XMLID_61_" class="st13" d="M84.8,56.2C84.8,56.2,84.8,56.2,84.8,56.2L84.8,56.2C84.8,56.2,84.8,56.2,84.8,56.2
				C84.8,56.2,84.8,56.3,84.8,56.2C84.8,56.3,84.8,56.2,84.8,56.2z"/>
			<path id="XMLID_60_" class="st3" d="M28.6,71.5c0,0,0-0.1,0-0.1c0.3-0.8,0.6-1.6,1-2.3c0.1-0.2,0.2-0.4,0.3-0.6
				c0.3-0.6,0.6-1.2,0.9-1.8c0.1-0.2,0.2-0.5,0.4-0.7c0.1-0.1,0.2-0.3,0.2-0.4c0.3-0.6,0.7-1.2,1-1.7c0.1-0.1,0.2-0.3,0.3-0.4
				c0.4-0.7,0.9-1.4,1.4-2c0-0.1,0.1-0.1,0.1-0.2c0.5-0.7,1-1.3,1.6-2c0.1-0.1,0.2-0.3,0.4-0.4c0.5-0.6,1.1-1.2,1.7-1.8
				c0.1-0.1,0.2-0.2,0.3-0.3c0.6-0.6,1.3-1.2,1.9-1.8c0,0,0,0,0,0c2.6-8.7,10.6-15.1,20-15.1c3.8,0,7.6,1.1,10.8,3.1
				c3.3,2,6,5,7.8,8.5c0,0,0,0,0,0.1c0,0.1,0.1,0.2,0.1,0.3l0,0l0,0c0,0,0,0,0,0c0,0,0,0,0,0c1.5,0.9,2.9,1.9,4.2,3.1
				c0.4,0.4,0.9,0.8,1.3,1.2c0.1,0.1,0.3,0.3,0.4,0.4c0,0,0,0,0,0c0,0,0,0,0,0c0-0.1,0.1-0.2,0.1-0.3c1.3-8.4,5-14.4,9.4-14.4
				c3.3,0,6.2,3.4,8,8.7l0,0.1c0,0,0,0,0,0c0.5,0.6,1,1.2,1.5,1.8h0c0,0,0,0,0,0v0v0c0,0.1,0,0.2,0.1,0.2l0,0l-0.1-0.3
				C98.5,36,83.3,24.4,65.4,24.4c-22.5,0-40.7,18.2-40.7,40.7c0,4.4,0.7,8.7,2,12.7c0,0,0,0,0,0c0.3-1.2,0.6-2.4,0.9-3.6
				C27.9,73.3,28.2,72.4,28.6,71.5z"/>
			<path id="XMLID_59_" class="st9" d="M104.6,65.6l-1.4,1.6l0,0c0,0,0,0,0,0c-0.1,0.2-0.1,0.4-0.2,0.6c0,0.1,0,0.1-0.1,0.1
				c-0.1,0.1-0.1,0.3-0.2,0.4c0,0.1-0.1,0.1-0.1,0.2c-0.1,0.1-0.1,0.2-0.2,0.3c-0.1,0.1-0.2,0.2-0.3,0.3c0,0-0.1,0.1-0.1,0.1
				c-0.1,0.1-0.2,0.1-0.2,0.2c0,0-0.1,0-0.1,0.1c-0.2,0.1-0.4,0.2-0.6,0.2c-1.3,0-2.3-1.8-2.3-4h0h0H94h0c0,0,0,0,0,0
				c0.9,1,1.7,2,2.6,3.1c0,0,0,0,0,0c0.8,1,1.6,2,2.4,3c0,0.1,0.1,0.1,0.1,0.1c0.8,1,1.5,1.9,2.3,2.9c0.1,0.1,0.1,0.2,0.2,0.3
				c0.8,1,1.6,2.1,2.3,3.1c0,0,0,0,0,0c1.3-4,2.1-8.2,2.1-12.6h0L104.6,65.6L104.6,65.6z"/>
			<path id="XMLID_58_" d="M59.2,46.8c0.1,0,0.2,0,0.3,0c0.7,0,1.5-0.1,2.2-0.1c2.2,0,4.4,0.2,6.5,0.7c0,0,0,0,0,0c0,0,0,0,0,0.1
				c0,0,0,0.1,0,0.1c0,0,0,0.1,0,0.1c0,0.1,0,0.2,0,0.2c0,0.1,0,0.1,0,0.2c0,0.1,0,0.2,0,0.2v-1c1.5,0.3,4.1,1.1,6.1,1.9
				c0.8,0.3,1.6,0.7,2.4,1.1c0,0,0.1,0.1,0.2,0.1c0,0,0,0,0,0c0.1,0,0.2,0.1,0.2,0.1c0,0,0,0,0,0c0.1,0.1,0.2,0.1,0.4,0.2
				c0,0,0,0,0,0c0.5,0.3,1.1,0.6,1.3,0.7c0,0,0,0,0.1,0c0,0,0,0,0,0l0,0c0-0.1-0.1-0.2-0.1-0.3c0,0,0,0,0-0.1
				c-1.8-3.5-4.5-6.4-7.8-8.5c-3.2-2-7-3.1-10.8-3.1c-9.4,0-17.4,6.4-20,15.1c2.5-2.1,5.2-3.9,8.2-5.2C51.7,48,55.4,47.1,59.2,46.8z
				"/>
			<line id="XMLID_57_" class="st8" x1="68.2" y1="48.4" x2="68.2" y2="48.6"/>
			<path id="XMLID_56_" d="M89.3,49.6c1.7-1.6,3.9-2.9,6.3-2.9c1.9,0,3.7,0.8,5.4,2.2c0,0,0,0,0,0v0v0c0.2,0.1,0.3,0.3,0.4,0.4
				c0.1,0.1,0.2,0.2,0.3,0.2c0.2,0.2,0.5,0.5,0.7,0.7l0,0c0,0,0,0,0,0c0,0,0,0,0,0l0,0l0-0.1c-1.8-5.3-4.7-8.7-8-8.7
				c-4.4,0-8.1,6-9.4,14.4l0,0C86.1,53.7,87.5,51.4,89.3,49.6z"/>
			<path id="XMLID_55_" class="st9" d="M50.8,103.1c0.4,0.1,0.8,0.3,1.1,0.4c4.2,1.5,8.7,2.3,13.4,2.3c5.4,0,10.5-1.1,15.2-2.9
				c0.2-0.1,0.5-0.2,0.7-0.3c0.4-0.2,0.8-0.3,1.2-0.5c0.4-0.2,0.7-0.3,1-0.5c-0.1,0-0.2,0-0.2,0l0,0c-1.5,0.2-2.9,0.2-4.3,0
				c-8.4-1.2-10.2-5.2-10-9.4c-0.6-0.3-1.2-0.7-1.8-1.2c-6.4-4.7-10.3-9.7-10.3-9.7s5,3.8,12.4,6.7c0.2,0.1,0.3,0.1,0.5,0.2
				c0.3-1.2,0.8-2.3,1.1-3.3l0,0c0-0.1,0.1-0.2,0.1-0.3c0.4-1.2,0.9-2.3,1.4-3.4c1.9-4.3,4.2-8.4,5.3-12.9l0.5-2.5h-4.6h0l0,0
				c0,0,0,0,0,0l0,0l0,0c0,0,0,0,0,0c0,0.8-0.2,1.5-0.4,2.1c-0.1,0.3-0.3,0.6-0.5,0.9c-0.4,0.6-0.9,1.1-1.5,1.5
				c-0.3,0.2-0.6,0.4-0.9,0.5c-0.7,0.3-1.4,0.4-2.1,0.4c-0.2,0-0.4,0-0.6,0c0,0-0.1,0-0.1,0c-0.1,0-0.3,0-0.4-0.1c0,0-0.1,0-0.1,0
				c-0.1,0-0.3-0.1-0.4-0.1c0,0,0,0-0.1,0c-0.1-0.1-0.3-0.1-0.4-0.2c0,0,0,0,0,0c-0.2-0.1-0.3-0.1-0.5-0.2c0,0,0,0,0,0
				c-0.5-0.3-0.9-0.6-1.3-1l-15.7-3.8H31.4c-0.1,0.1-0.2,0.3-0.2,0.4c-0.1,0.2-0.3,0.5-0.4,0.7c-0.3,0.6-0.6,1.2-0.9,1.8
				c-0.1,0.2-0.2,0.4-0.3,0.6c-0.3,0.8-0.7,1.5-1,2.3c0,0,0,0.1,0,0.1c-0.3,0.9-0.7,1.8-0.9,2.7c-0.4,1.2-0.7,2.4-0.9,3.6
				C29.4,86,34.6,93.1,41.5,98c0.2,0.1,0.4,0.3,0.6,0.4c1.2,0.8,2.4,1.6,3.6,2.3C47.3,101.6,49,102.4,50.8,103.1z"/>
			<path id="XMLID_54_" class="st15" d="M78.9,90.4c-0.1,0.4-0.1,0.9-0.1,1.3c0,0.8,0,1.5,0.1,2.1c0.1,0.5,0.2,0.9,0.3,1.3
				c0.2,0.6,0.4,1.2,0.6,1.7c0.2,0.5,0.5,1,0.8,1.5c0.1,0.1,0.2,0.3,0.3,0.4c0.1,0.2,0.3,0.4,0.4,0.6c0.2,0.2,0.4,0.5,0.5,0.7
				c0.7,0.9,1.3,1.3,1.3,1.3s0,0,0,0s0,0.1,0,0.1l0,0c0.1,0,0.2,0,0.2,0c1.8-0.2,3.6-0.7,5.4-1.4c0.9-0.3,1.8-0.7,2.7-1.1
				c0.3-0.1,0.5-0.3,0.8-0.4c9.3-4.5,17.1-12.5,17.1-12.5C98,91.9,86.5,91.7,78.9,90.4z"/>
			<path id="XMLID_53_" class="st1" d="M101.4,74.7c-0.7-1-1.5-1.9-2.3-2.9c0-0.1-0.1-0.1-0.1-0.1c-0.8-1-1.6-2-2.4-3c0,0,0,0,0,0
				c-0.8-1-1.7-2-2.6-3.1c-0.1-0.1-0.1-0.1-0.2-0.2c-0.5-0.6-1.1-1.2-1.6-1.8c-0.2-0.2-0.4-0.4-0.6-0.6c-0.5-0.5-0.9-1-1.4-1.5
				c-0.4-0.4-0.7-0.7-1.1-1.1c-0.3-0.3-0.7-0.7-1-1c-0.7-0.7-1.5-1.5-2.3-2.2c-0.3-0.3-0.7-0.6-1-0.9c0,0,0,0,0,0
				c0.7,2.1,1.6,4.3,2,6.5c0.1,0.6,0.2,1.1,0.3,1.7c1,7.6-1.4,12.6-5.3,19.2c-0.3,0.5-0.6,0.9-0.9,1.4c-0.9,1.5-1.5,2.9-1.8,4.2
				C79,89.6,79,90,78.9,90.5c7.6,1.2,19.1,1.5,30.8-4.3c0,0-2.3-3.4-5.8-8c-0.8-1-1.6-2.1-2.3-3.1C101.5,74.9,101.4,74.8,101.4,74.7
				z"/>
			<path id="XMLID_52_" d="M83.3,101.4c0,0-0.6-0.5-1.3-1.3c-0.2-0.2-0.4-0.4-0.5-0.7c-0.1-0.2-0.3-0.4-0.4-0.6
				c-0.1-0.1-0.2-0.3-0.3-0.4c-0.3-0.4-0.6-0.9-0.8-1.5c-0.2-0.5-0.5-1.1-0.6-1.7c-0.1-0.4-0.2-0.8-0.3-1.3
				c-0.1-0.7-0.2-1.4-0.1-2.1c0-0.4,0.1-0.8,0.1-1.3c0.1-0.4,0.1-0.8,0.3-1.3c0.3-1.3,0.9-2.7,1.8-4.2c0,0,0,0,0,0
				c0.3-0.5,0.6-1,0.8-1.4c3.9-6.6,6.3-11.5,5.3-19.2c-0.1-0.5-0.2-1.1-0.3-1.7c-0.1,0.4-0.1,0.7-0.2,1c0,0,0,0.1,0,0.1
				c0,0.2-0.1,0.3-0.1,0.5c-1.7,5-4.5,8.9-8.3,13c-0.5,0.6-1.1,1.1-1.6,1.7c-0.9,1-1.9,2-2.9,3c-0.4,0.4-0.8,0.8-1.3,1.3
				c-0.4,0.4-0.9,0.9-1.5,1.5l0,0c-0.4,1-0.8,2.2-1.1,3.3c-0.2-0.1-0.3-0.1-0.5-0.2c-7.4-2.9-12.4-6.7-12.4-6.7s3.8,5,10.3,9.7
				c0.6,0.5,1.2,0.8,1.8,1.2c-0.3,4.2,1.6,8.2,10,9.4c1.4,0.2,2.9,0.2,4.3,0C83.3,101.5,83.3,101.5,83.3,101.4
				C83.3,101.4,83.3,101.4,83.3,101.4z"/>
		</g>
	</g>
</g>
</svg>
