<svg version="1.2" xmlns="http://www.w3.org/2000/svg" viewBox="0 0 157 28" width="157" height="28"><defs><linearGradient id="P" gradientUnits="userSpaceOnUse"/><linearGradient id="g1" x2="1" href="#P" gradientTransform="matrix(21.704,21.35,-18.026,18.325,5.251,3.641)"><stop stop-color="#48ced7"/><stop offset="1" stop-color="#43b0b7"/></linearGradient><linearGradient id="g2" x2="1" href="#P" gradientTransform="matrix(4.301,13.366,-6.673,2.148,13.096,7.276)"><stop stop-color="#43b0b7"/><stop offset="1" stop-color="#48ced7"/></linearGradient></defs><style>.a{fill:url(#g1)}.b{fill:url(#g2)}</style><path fill-rule="evenodd" class="a" d="m14 0c7.8 0 14.1 6.3 14.1 14 0 2.7-0.8 5.3-2.1 7.4l2.2 2.2c0.9 1 0.9 2.4 0 3.4-0.9 0.9-2.4 0.9-3.3 0l-2.1-2.1c-2.4 1.9-5.4 3.1-8.8 3.1-7.7 0-14-6.3-14-14 0-7.7 6.3-14 14-14zm0 4.7c-5.1 0-9.3 4.2-9.3 9.3 0 5.1 4.2 9.3 9.3 9.3 5.2 0 9.4-4.2 9.4-9.3 0-5.1-4.2-9.3-9.4-9.3z"/><g style="opacity:.5"><path class="b" d="m11 6.5c0.8-0.7 1.8-1 2.8-1l-0.1 1.1c-0.7 0-1.4 0.2-1.9 0.7l6.7 6.7q0.2 0.2 0.4 0.5l0.1-0.1c1.7 1.8 1.7 4.6 0 6.3-1.8 1.7-4.6 1.7-6.3 0l0.8-0.8c1.2 1.2 3 1.3 4.3 0.4l-6.8-6.8c-1.3-1.3-1.7-3.3-1.2-5 0.2-0.6 0.5-1.3 1-1.8l0.1-0.1q0 0 0.1 0z"/></g><path fill-rule="evenodd" d="m52 5.9q2.3 2.7 2.4 7.1c0 3-0.9 5.3-2.4 7.1q-0.1 0.1-0.2 0.2 1.2 1.5 2.3 3.1l-1.5 1.2q-1.1-1.6-2.2-3.1-2.2 1.5-5.3 1.5-4.3 0-6.8-2.9-2.4-2.7-2.4-7.1 0-4.3 2.4-7.1 2.5-2.9 6.8-2.9c2.9 0 5.2 0.9 6.9 2.9zm-12.1 1.4q-1.8 2.1-1.8 5.7 0 3.6 1.8 5.8 1.9 2.3 5.2 2.3 2.4 0 4-1.2-1.6-2-3.2-3.8l1.3-1.2q1.7 1.8 3.3 3.7 1.6-2.1 1.6-5.6 0-3.6-1.8-5.8-1.8-2.2-5.2-2.2-3.3 0-5.2 2.3z"/><path  d="m70 3.4l-10.4 10v-10h-2.2v19.3h2.2v-6.8l3-2.8 8.5 9.6h3l-9.9-11.1 8.7-8.2z"/><path  d="m80.7 8.3q-2.3 0-3.8 1.1-1.6 1-1.6 2.8c0 1.2 0.5 2.1 1.6 2.7q1 0.6 3.5 1.2 2.3 0.6 2.9 0.9 1.4 0.7 1.4 1.8c0 1.6-1.3 2.4-3.8 2.4q-1.8 0-2.7-0.6-0.9-0.7-1.1-2.4h-2.1q0.5 4.8 6 4.8 5.9 0 5.9-4.3 0-1.8-1.7-2.8-1.1-0.7-3.6-1.3-2.1-0.6-2.9-1-1.2-0.6-1.2-1.5 0-0.9 0.9-1.4 0.8-0.6 2.3-0.6 1.7 0 2.6 0.7 0.8 0.6 1 1.9h2.2c-0.4-3-2.3-4.4-5.8-4.4z"/><path fill-rule="evenodd" d="m100.8 10.2q1.8 2 1.8 5.2-0.1 3.1-1.8 5.1-1.9 2.2-5 2.2-3.2 0-5-2.2-1.8-2-1.8-5.1 0-3.2 1.8-5.2c1.2-1.5 2.9-2.2 5-2.2q3.1 0 5 2.2zm-8.6 1.6c-0.8 1.1-1.1 2.3-1.1 3.9q0 2.3 1.1 3.8 1.2 1.7 3.5 1.7 2.1 0 3.4-1.7 1.1-1.5 1.2-3.8-0.1-2.3-1.2-3.9-1.3-1.7-3.4-1.7-2.3 0-3.5 1.7z"/><path  d="m105.2 8.7v8.6c0 3.8 1.7 5.7 5.1 5.7q2.9 0 4.6-2.5v2.2h2.1v-14h-2.1v8.5q-0.3 1.8-1.4 2.9-1.1 1.1-2.5 1.1-1.9 0-2.8-1-0.8-1-0.8-3v-8.5z"/><path  d="m126.5 8.3q-1.5 0-2.5 0.9-0.9 0.7-1.5 1.9v-2.4h-2.1v14h2.1v-7.4q0-2 1.1-3.4 1.1-1.4 2.7-1.4 1.1 0 2.1 0.3v-2.2q-0.8-0.3-1.9-0.3z"/><path  d="m136.2 8.3q-3.1 0-4.9 2.2-1.6 2.1-1.6 5.2 0 3.2 1.6 5.2 1.8 2.1 4.9 2.1 2.6 0 4.2-1.3c1.1-0.9 1.7-2.3 2.1-4.1h-2.2q-0.5 3.6-4.1 3.6-2.1 0-3.2-1.5-1.1-1.4-1.1-4 0-2.5 1.1-4 1.2-1.6 3.2-1.6 1.7 0 2.7 0.8 1.1 0.8 1.3 2.4h2.2q-0.4-2.5-2-3.8-1.6-1.2-4.2-1.2z"/><path fill-rule="evenodd" d="m155.8 10.6q1.6 2 1.6 5.7h-11q0.2 2.3 1.3 3.6 1.1 1.3 3.1 1.3 1.7 0 2.8-0.8 0.9-0.8 1.4-2.2h2.2q-0.5 2-1.9 3.3-1.8 1.5-4.5 1.5c-2 0-3.6-0.6-4.8-1.9-1.2-1.4-1.8-3.2-1.8-5.4q0-3.1 1.7-5.2 1.8-2.2 4.8-2.2 3.4 0 5.1 2.3zm-8 0.7q-1.1 1.3-1.3 3.3h8.7q-0.4-4.5-4.4-4.5-1.9 0-3 1.2z"/></svg>