<?xml version="1.0" encoding="utf-8"?>
<!-- Generator: Adobe Illustrator 25.2.1, SVG Export Plug-In . SVG Version: 6.00 Build 0)  -->
<svg version="1.1" id="Layer_1" xmlns="http://www.w3.org/2000/svg" xmlns:xlink="http://www.w3.org/1999/xlink" x="0px" y="0px"
	 viewBox="0 0 445 96.2" style="enable-background:new 0 0 445 96.2;" xml:space="preserve">
<style type="text/css">
	.st0{fill:#333333;}
	.st1{fill:#E41321;}
</style>
<path class="st0" d="M140.3,80.9l-0.3-7.5c-0.1-4.1-0.5-13.7-0.5-13.7c-0.2-5.9-1.4-10.3-7.3-11.9v-0.3c5-2,8.4-7.5,8.4-15
	c0-11.8-5.6-17.3-16.4-17.3h-16.6v65.8h10.7V53.9h5.1c4.2,0,5.7,2.5,5.8,7l0.4,13.5c0.1,2.2,0.1,4.4,0.1,6.6L140.3,80.9L140.3,80.9z
	 M129.8,37.7c-0.1,3.9-1.4,7.9-6.4,7.9h-5.1V24.8h5.1c4.8,0,6.5,4.2,6.5,7.8L129.8,37.7L129.8,37.7z M443.9,80.9v-9.8h-17.1V51.6
	h13.9v-9.8h-13.9V24.9h17.1v-9.8h-27.8v65.8L443.9,80.9L443.9,80.9L443.9,80.9z M410,80.9v-9.8h-17.1v-56h-10.7v65.8L410,80.9
	L410,80.9z M361.2,80.9c7.8,0,14.5-5.6,14.5-18.7c0-7.7-3.8-13.1-9-14.8V47c5.3-2.3,8.6-7.7,8.6-14.9c0-12.2-6-16.9-15.1-16.9h-18
	v65.8L361.2,80.9L361.2,80.9L361.2,80.9z M364.2,36.2c-0.1,4.7-3.2,6.9-6,6.9h-5.4V24.8h5.2c4.5,0,6.4,2.2,6.3,7.4L364.2,36.2
	L364.2,36.2z M364.8,63.5c0,5.3-2.1,8-6.8,8h-5.1V51.7h4.9c4.5,0,7.1,3.2,7.1,7.5L364.8,63.5L364.8,63.5z M321.2,80.9
	c7.8,0,14.5-5.6,14.5-18.7c0-7.7-3.8-13.1-9-14.8V47c5.3-2.3,8.6-7.7,8.6-14.9c0-12.2-6-16.9-15.1-16.9h-18v65.8L321.2,80.9
	L321.2,80.9L321.2,80.9z M324.2,36.2c-0.1,4.7-3.2,6.9-6,6.9h-5.4V24.8h5.2c4.5,0,6.4,2.2,6.3,7.4L324.2,36.2L324.2,36.2L324.2,36.2
	z M324.8,63.5c0,5.3-2.1,8-6.8,8h-5.1V51.7h4.9c4.5,0,7.1,3.2,7.1,7.5L324.8,63.5L324.8,63.5z M278.5,82.2
	c11.3,0,16.2-7.4,16.2-17.7V15.2h-10.1v49c0,4.1-1,8.3-5.8,8.3c-5,0-6-4.8-6-8.1V15.2h-10.7v50.1C262.2,76.6,268.1,82.2,278.5,82.2
	L278.5,82.2L278.5,82.2z M241.9,80.9c7.8,0,14.5-5.6,14.5-18.7c0-7.7-3.8-13.1-9-14.8V47c5.3-2.3,8.6-7.7,8.6-14.9
	c0-12.2-6-16.9-15-16.9h-18v65.8L241.9,80.9L241.9,80.9z M244.9,36.2c-0.1,4.7-3.2,6.9-6,6.9h-5.4V24.8h5.2c4.5,0,6.4,2.2,6.3,7.4
	L244.9,36.2L244.9,36.2z M245.4,63.5c0,5.3-2.1,8-6.8,8h-5.1V51.7h4.9c4.5,0,7.1,3.2,7.1,7.5V63.5z M200,80.9
	c9.7,0,15.1-5.1,15.1-15.8V30.6c0-10.4-5.5-15.4-15.4-15.4h-17.5v65.8L200,80.9L200,80.9L200,80.9z M204.4,64.7
	c0,4.1-1.3,6.6-6.5,6.6h-5V24.8h5c5.2,0,6.5,3.1,6.5,6.6L204.4,64.7L204.4,64.7L204.4,64.7z M147.7,80.9V15.2h27.8v9.8h-17.1v16.9
	h13.9v9.8h-13.9v19.5h17.1v9.8L147.7,80.9L147.7,80.9L147.7,80.9z"/>
<path class="st1" d="M65.4,65H52.9c-0.7,0-1.3-0.6-1.3-1.3V32.3c0-0.7,0.6-1.3,1.3-1.3h11.6c8.7,0,10.5,5.1,10.5,9.4
	c0,2.5-0.7,4.5-2,5.9c3.2,1.3,4.9,4.3,4.9,8.6C77.9,61.2,73.2,65,65.4,65 M47.2,65h-26c-0.7,0-1.3-0.6-1.2-1.3c0,0,0,0,0,0V32.3
	c0-0.7,0.6-1.3,1.2-1.3h12.1c7.6,0,12.1,4.1,12.1,10.9c0,4.5-2.3,8.1-6,9.6l8.6,11.3c0.5,0.5,0.4,1.3-0.1,1.8
	C47.8,64.9,47.5,65,47.2,65 M47.2,1.1c-25.9,0-46.9,21-46.9,46.9C0.3,74,21.3,95,47.3,95s46.9-21,46.9-46.9S73.2,1.1,47.2,1.1"/>
</svg>
