<?xml version="1.0" encoding="UTF-8"?>
<svg id="Layer_1" data-name="Layer 1" xmlns="http://www.w3.org/2000/svg" version="1.1" viewBox="0 0 685 173.9">
  <defs>
    <style>
      .cls-1 {
        fill: red;
        stroke-width: 0px;
      }
    </style>
  </defs>
  <path class="cls-1" d="M646.3,116.7l11.9-54.7,2.3-10.8-.6,10.8-3.4,52.3-10.2,2.4ZM618,148.6h21.5l3.4-15.6h12.5l-1.1,15.6h22.1l1.7-123.1h-28.3l-31.7,123.1h0ZM612.9,148.6l2.3-18h-20.4c1.1-3,2.3-5.4,3.4-8.4l31.2-96.7h-43.6l-2.3,18h18.7c-1.1,2.4-2.3,5.4-3.4,9l-31.7,96.1h45.9ZM564.1,148.6l2.3-18h-20.4c1.1-3,2.3-5.4,3.4-8.4l31.7-96.7h-43.6l-2.3,18h18.7c-1.1,2.4-2.3,5.4-3.4,9l-31.7,96.1h45.3ZM485.4,116.7l11.9-54.7,2.3-10.8-.6,10.8-3.4,52.3-10.2,2.4ZM457.1,148.6h21.5l3.4-15.6h12.5l-1.1,15.6h22.1l1.7-123.1h-28.3l-31.7,123.1ZM412.3,148.6h40.8l2.8-18.6h-19.3l14.2-104.5h-21.5l-17,123.1ZM387.4,87.9h-5.1l6.2-45.1h5.1c3.4,0,4.5,1.8,4,6l-4.5,32.4c-.6,4.8-2.8,6.6-5.7,6.6ZM395.3,25.4h-26.1l-17,123.1h21.5l6.2-43.2h8.5c15.3,0,23.8-7.8,26.1-25.8l4-27c2.3-18-5.1-27-23.2-27ZM326.2,123.3c-.6,6.6-2.8,9.6-6.8,9.6s-5.7-2.4-4.5-10.2l10.2-72.1c1.1-6.6,2.8-9.6,6.8-9.6s5.7,2.4,4.5,10.2l-10.2,72.1ZM347.7,122.1l9.1-66.1c3.4-24.6-7.9-32.4-24.9-32.4s-26.6,9-29.5,28.8l-9.1,66.1c-3.4,24.6,7.9,32.4,24.9,32.4,17-.6,26.6-9,29.5-28.8ZM276.9,25.4l-7.4,50.5-10.8,2.4,7.4-52.9h-21.5l-17,123.1h21.5l7.4-54.1h10.2l-7.4,54.1h21.5l17-123.1h-21ZM196.5,150.4c22.1,0,28.3-16.8,28.3-33s-4-22.2-9.1-32.4l-6.2-12c-5.1-10.2-6.8-17.4-6.8-22.8s1.7-9.6,5.7-9.6,5.7,1.8,4.5,11.4l-1.7,11.4,20.4-4.8.6-4.8c2.8-22.2-7.4-29.4-23.2-29.4s-27.2,11.4-27.2,30.6,4,19.8,9.1,30.6l5.7,12c4.5,9.6,6.8,17.4,6.8,24.6s-1.1,12-6.2,12-6.2-2.4-4.5-12.6l1.7-13.8-20.4,4.8-1.1,6.6c-3.4,23.4,7.9,31.2,23.8,31.2ZM9,169.6l44.2-10.8,3.4-27c4.5,13.8,18.1,22.2,31.7,22.2,22.1,0,38-19.8,38-40.8s-10.8-29.4-23.8-33.6h28.3l11.3-75.1-44.2,10.8-4,27c-4.5-13.8-18.1-22.2-31.7-22.2-22.1,0-38,19.8-38,40.8s10.8,29.4,23.8,33.6h-28.3l-10.8,75.1Z"/>
</svg>