<?xml version="1.0" encoding="UTF-8"?>
<svg id="Layer_1" data-name="Layer 1" xmlns="http://www.w3.org/2000/svg" version="1.1" viewBox="0 0 689.1 193.4">
  <defs>
    <style>
      .cls-1 {
        fill: #fb5531;
        fill-rule: evenodd;
        stroke-width: 0px;
      }
    </style>
  </defs>
  <path class="cls-1" d="M107.3,134.8c-1,8.4-6.1,15-13.9,18.4-4.4,1.9-10.2,2.9-14.9,2.6-7.2-.3-14-2-20.3-5.3-2.2-1.2-5.6-3.4-8.1-5.6-.6-.5-.7-.9-.3-1.5s.7-1,1.6-2.4c1.4-2,1.5-2.3,1.7-2.5.4-.7,1.2-.7,1.9-.2h0q0,.2.4.4c.3.2.4.3.5.4,6.8,5.3,14.6,8.3,22.6,8.7,11.1-.2,19-5.1,20.4-12.8,1.6-8.4-5-15.7-17.9-19.7-4-1.3-14.2-5.3-16.1-6.5-8.8-5.2-13-12-12.4-20.4.9-11.6,11.7-20.3,25.3-20.3s12.2,1.3,18,3.7c2.1.9,5.8,2.9,7,3.8.7.5.9,1.2.5,1.8-.2.4-.6,1-1.4,2.3h0c-1.1,1.7-1.1,1.8-1.4,2.2-.4.7-.9.7-1.7.2-6.3-4.2-13.2-6.3-20.8-6.5-9.5.4-16.6,6.1-17.1,13.8,0,7,5.1,12,16.4,15.9,22.8,7.3,31.6,15.9,29.9,29.5M79.1,14.8c14.9,0,27,14.1,27.6,31.8h-55.2c.6-17.7,12.7-31.8,27.6-31.8M156.1,50c0-1.8-1.5-3.3-3.3-3.3h-35.8c-.9-23.3-17.5-42-38-42s-37.1,18.6-38,42H5.2c-1.8,0-3.2,1.5-3.2,3.3v.3h0l5.1,112.5v1.3h0c.8,7.8,6.5,14.1,14.2,14.4h114.3c7.9-.2,14.2-6.6,14.9-14.5h0v-.9l5.6-113h0s0,0,0,0M626.3,105.3c2.8-9,11.2-15.2,21-15.2s18.3,6.4,21.4,15.2l.3.6h-42.8v-.6h.1ZM678.4,118.4h.3c2-.1,3.7-1.8,3.7-3.9v-.6c0-20.1-15.8-36.3-35.2-36.3s-35.2,16.3-35.2,36.3.1,2.9.3,4.5h0v.5c1,7.3,4.1,13.9,8.9,19.2h0c5.3,6,12.7,9.9,20.9,11.5h.6c.3.1.5.3.9.3,10.7,1.3,20.3-.3,28.3-4.3,2-1,3.8-2,5.3-3.3.5-.4.9-.8,1.3-1,.3-.1.4-.4.4-.4,1.8-1.9,1.9-2.5.9-4.2-1.1-1.9-2.3-3.6-3.2-4.8-.3-.5-.6-.9-.9-1.3q-.1-.1-.3-.3h0c-1-1.4-1.7-1.5-2.8-.5-.1.1-.5.4-.6.5-7.8,6.9-18.3,9-28.8,6.9-1.9-.5-3.8-1.1-5.5-2-6.6-3.3-11.3-9.2-12.6-16v-.5c-.1,0,53.2,0,53.2,0h0ZM542.6,105.3c2.8-9,11.2-15.2,21-15.2s18.3,6.4,21.4,15.2l.3.6h-42.8v-.6ZM594.8,118.4h.3c2-.1,3.7-1.8,3.7-3.9v-.6c0-20.1-15.8-36.3-35.2-36.3s-35.2,16.3-35.2,36.3.1,2.9.3,4.5h0v.5c1,7.3,4.1,13.9,8.9,19.2h0c5.3,6,12.7,9.9,20.9,11.5h.6c.3.1.5.3.9.3,10.7,1.3,20.3-.3,28.3-4.3,2-1,3.8-2,5.3-3.3.5-.4.9-.8,1.3-1,.3-.1.4-.4.4-.4,1.8-1.9,1.9-2.5.9-4.2-1.1-1.9-2.3-3.6-3.2-4.8-.3-.5-.6-.9-.9-1.3q-.1-.1-.3-.3h0c-1-1.4-1.7-1.5-2.8-.5-.1.1-.5.4-.6.5-7.8,6.9-18.3,9-28.8,6.9-1.9-.5-3.8-1.1-5.5-2-6.6-3.3-11.3-9.2-12.6-16v-.5c-.1,0,53.2,0,53.2,0h0ZM478.8,138.4c-13.1,0-23.8-10.3-24.1-23.3v-1.3c.4-13,11.1-23.3,24.1-23.3s24.1,10.7,24.1,23.9-10.8,23.9-24.1,23.9M478.8,77.8c-8.5,0-16.8,2.9-23.3,8.3l-.8.6v-6.8c0-1.8-.4-2.2-2.2-2.2h-8.4c-1.8,0-2.2.4-2.2,2.2v106.9c0,1.8.4,2.2,2.2,2.2h8.4c1.8,0,2.2-.4,2.2-2.2v-44.6l.8.6c6.6,5.3,14.8,8.3,23.3,8.3,20.4,0,36.9-16.4,36.9-36.7-.1-20.3-16.6-36.7-36.9-36.7M392.1,137.7c-13.4,0-24.2-10.6-24.2-23.7s10.8-23.7,24.2-23.7,24.2,10.6,24.2,23.7-10.8,23.7-24.2,23.7M392.1,77.6c-20.4,0-36.9,16.3-36.9,36.4s16.6,36.4,36.9,36.4,36.9-16.3,36.9-36.4-16.4-36.4-36.9-36.4M309.6,78.3c-7.5,0-14.6,2.4-20.6,6.9l-.8.5v-49.5c0-1.7-.5-2.2-2.2-2.2h-8.8c-1.8,0-2.2.4-2.2,2.2v113.2c0,1.7.4,2.2,2.2,2.2h8.8c1.7,0,2.2-.5,2.2-2.2v-36.9c.1-11.6,9.7-21,21.4-21s21.3,9.4,21.4,21.1v36.9c0,1.9.3,2.2,2.2,2.2h8.8c1.9,0,2.2-.4,2.2-2.2v-37.1c0-18.8-15.7-34.1-34.5-34.1M186.9,130.9h0c-1.3,1.9-1.8,2.7-2,3.2-1,1.5-.9,2.2.6,3.4,3.6,2.8,8,5.9,11.1,7.4,8.5,4.2,17.7,6.4,27.5,6.6,6.2.3,14.3-1.1,20.1-3.8,10.7-4.7,17.4-14,18.6-25.5,1.9-18.5-10.1-30.1-41.1-39.4h0c-14.4-4.7-21.3-10.8-21.3-19.5.4-9.6,9.3-16.7,21.3-17.2,9.7,0,18.1,2.5,26.5,8,1.8,1,2.5.9,3.8-.6.1-.3.5-.8,2-3.1h0c1.5-2.2,1.9-2.8,2-3.1,1-1.9.9-2.5-.9-3.8s-6.8-3.8-9.7-5c-7.9-3.2-16.2-4.7-24.3-4.6-18.6.4-33.1,12.5-34.1,28.4-.6,11.5,5.2,20.8,17.4,27.5,3.4,1.8,15.9,6.5,21.8,8.3,16.6,4.8,25.2,13.8,23.4,24.3-1.7,9.6-11.6,15.9-25.7,16.3-10.2-.3-20.5-3.9-29.4-10.7,0,0-.3-.3-.6-.5q-.6-.4-.6-.5c-1.8-1.3-2.9-1.1-3.9.5-.4.1-1.7,2.2-2.4,3.2"/>
</svg>