<?xml version="1.0" encoding="utf-8"?>
<!-- Generator: Adobe Illustrator 25.2.1, SVG Export Plug-In . SVG Version: 6.00 Build 0)  -->
<svg version="1.1" id="Layer_1" xmlns="http://www.w3.org/2000/svg" xmlns:xlink="http://www.w3.org/1999/xlink" x="0px" y="0px"
	 viewBox="0 0 580.5 193.4" style="enable-background:new 0 0 580.5 193.4;" xml:space="preserve">
<style type="text/css">
	.st0{fill-rule:evenodd;clip-rule:evenodd;fill:#FB5531;}
</style>
<g>
	<path class="st0" d="M107.3,134.8c-1,8.4-6.1,15-13.9,18.4c-4.4,1.9-10.2,2.9-14.9,2.6c-7.2-0.3-14-2-20.3-5.3
		c-2.2-1.2-5.6-3.4-8.1-5.6c-0.6-0.5-0.7-0.9-0.3-1.5c0.2-0.3,0.7-1,1.6-2.4c1.4-2,1.5-2.3,1.7-2.5c0.4-0.7,1.2-0.7,1.9-0.2
		c0.1,0.1,0.1,0.1,0.1,0.1c0.1,0.1,0.1,0.1,0.4,0.3c0.3,0.2,0.4,0.3,0.5,0.4c6.8,5.3,14.6,8.3,22.6,8.7c11.1-0.2,19-5.1,20.4-12.8
		c1.6-8.4-5-15.7-17.9-19.7c-4-1.3-14.2-5.3-16.1-6.5c-8.8-5.2-13-12-12.4-20.4c0.9-11.6,11.7-20.3,25.3-20.3c6.1,0,12.2,1.3,18,3.7
		c2.1,0.9,5.8,2.9,7,3.8c0.7,0.5,0.9,1.2,0.5,1.8c-0.2,0.4-0.6,1-1.4,2.3l0,0c-1.1,1.7-1.1,1.8-1.4,2.2c-0.4,0.7-0.9,0.7-1.7,0.2
		c-6.3-4.2-13.2-6.3-20.8-6.5C68.6,76,61.5,81.7,61,89.4c-0.1,7,5.1,12,16.4,15.9C100.2,112.6,109,121.2,107.3,134.8 M79.1,14.8
		c14.9,0,27,14.1,27.6,31.8H51.5C52.1,28.9,64.2,14.8,79.1,14.8 M156.1,50c0-1.8-1.5-3.3-3.3-3.3h-35.8c-0.9-23.3-17.5-42-38-42
		c-20.4,0-37.1,18.6-38,42l-35.8,0c-1.8,0-3.2,1.5-3.2,3.3c0,0.1,0,0.2,0,0.3h0l5.1,112.5c0,0.3,0,0.6,0,0.9c0,0.1,0,0.1,0,0.2
		l0,0.2l0,0c0.8,7.8,6.5,14.1,14.2,14.4l0,0H135c0.1,0,0.1,0,0.2,0s0.1,0,0.2,0h0.2l0,0c7.9-0.2,14.2-6.6,14.9-14.5l0,0l0-0.1
		c0-0.1,0-0.2,0-0.2c0-0.2,0-0.4,0-0.6l5.6-113h0C156.1,50.1,156.1,50,156.1,50 M534.8,123.3c2.2-7.1,8.8-11.9,16.5-11.9
		c7.4,0,14.4,5,16.8,11.9l0.2,0.5h-33.6L534.8,123.3L534.8,123.3z M575.7,133.6c0,0,0,0,0.1,0c0.1,0,0.1,0,0.1,0
		c1.6-0.1,2.9-1.4,2.9-3.1c0-0.1,0-0.2,0-0.3c0,0,0-0.1,0-0.2c0-15.8-12.4-28.5-27.6-28.5c-15.2,0-27.6,12.8-27.6,28.5
		c0,1.2,0.1,2.3,0.2,3.5l0,0.1l0,0.3c0.8,5.7,3.2,10.9,7,15.1c0,0,0,0,0,0c4.2,4.7,10,7.8,16.4,9l0.1,0v0l0.4,0.1
		c0.2,0,0.4,0.1,0.7,0.1c8.4,1,15.9-0.2,22.2-3.4c1.6-0.8,3-1.6,4.2-2.6c0.4-0.3,0.7-0.6,1-0.8c0.2-0.1,0.3-0.3,0.3-0.3
		c1.4-1.5,1.5-2,0.7-3.3c-0.9-1.5-1.8-2.8-2.5-3.8c-0.2-0.4-0.5-0.7-0.7-1c-0.1-0.1-0.1-0.1-0.2-0.2c0,0,0,0,0-0.1l0,0
		c-0.8-1-1.3-1.1-2.2-0.3c-0.1,0.1-0.4,0.3-0.5,0.4c-6.1,5.4-14.4,7.1-22.6,5.4c-1.5-0.4-3-0.9-4.3-1.6c-5.2-2.6-8.9-7.2-9.9-12.6
		l-0.1-0.4H575.7L575.7,133.6z M469.1,123.3c2.2-7.1,8.8-11.9,16.5-11.9c7.4,0,14.4,5,16.8,11.9l0.2,0.5h-33.6L469.1,123.3z
		 M510.1,133.6c0,0,0,0,0.1,0c0.1,0,0.1,0,0.1,0c1.6-0.1,2.9-1.4,2.9-3.1c0-0.1,0-0.2,0-0.3c0,0,0-0.1,0-0.2
		c0-15.8-12.4-28.5-27.6-28.5c-15.2,0-27.6,12.8-27.6,28.5c0,1.2,0.1,2.3,0.2,3.5l0,0.1l0,0.3c0.8,5.7,3.2,10.9,7,15.1c0,0,0,0,0,0
		c4.2,4.7,10,7.8,16.4,9l0.1,0v0l0.4,0.1c0.2,0,0.4,0.1,0.7,0.1c8.4,1,15.9-0.2,22.2-3.4c1.6-0.8,3-1.6,4.2-2.6
		c0.4-0.3,0.7-0.6,1-0.8c0.2-0.1,0.3-0.3,0.3-0.3c1.4-1.5,1.5-2,0.7-3.3c-0.9-1.5-1.8-2.8-2.5-3.8c-0.2-0.4-0.5-0.7-0.7-1
		c-0.1-0.1-0.1-0.1-0.2-0.2c0,0,0,0,0-0.1l0,0c-0.8-1-1.3-1.1-2.2-0.3c-0.1,0.1-0.4,0.3-0.5,0.4c-6.1,5.4-14.4,7.1-22.6,5.4
		c-1.5-0.4-3-0.9-4.3-1.6c-5.2-2.6-8.9-7.2-9.9-12.6l-0.1-0.4H510.1L510.1,133.6z M419,149.3c-10.3,0-18.7-8.1-18.9-18.3v-1
		c0.3-10.2,8.7-18.3,18.9-18.3c10.5,0,18.9,8.4,18.9,18.8S429.4,149.3,419,149.3 M419,101.7c-6.7,0-13.2,2.3-18.3,6.5l-0.6,0.5v-5.3
		c0-1.4-0.3-1.7-1.7-1.7h-6.6c-1.4,0-1.7,0.3-1.7,1.7v83.9c0,1.4,0.3,1.7,1.7,1.7h6.6c1.4,0,1.7-0.3,1.7-1.7v-35l0.6,0.5
		c5.2,4.2,11.6,6.5,18.3,6.5c16,0,29-12.9,29-28.8C447.9,114.6,435,101.7,419,101.7 M350.9,148.7c-10.5,0-19-8.3-19-18.6
		s8.5-18.6,19-18.6c10.5,0,19,8.3,19,18.6C369.9,140.3,361.4,148.7,350.9,148.7 M350.9,101.5c-16,0-29,12.8-29,28.6
		c0,15.8,13,28.6,29,28.6c16,0,29-12.8,29-28.6C379.9,114.3,367,101.5,350.9,101.5 M286.2,102.1c-5.9,0-11.5,1.9-16.2,5.4l-0.6,0.4
		V69c0-1.3-0.4-1.7-1.7-1.7h-6.9c-1.4,0-1.7,0.3-1.7,1.7v88.9c0,1.3,0.3,1.7,1.7,1.7h6.9c1.3,0,1.7-0.4,1.7-1.7v-29
		c0.1-9.1,7.6-16.5,16.8-16.5c9.2,0,16.7,7.4,16.8,16.6v29c0,1.5,0.2,1.7,1.7,1.7h6.9c1.5,0,1.7-0.3,1.7-1.7v-29.1
		C313.3,114.1,301,102.1,286.2,102.1 M189.8,143.4L189.8,143.4c-1,1.5-1.4,2.1-1.6,2.5c-0.8,1.2-0.7,1.7,0.5,2.7
		c2.8,2.2,6.3,4.6,8.7,5.8c6.7,3.3,13.9,5,21.6,5.2c4.9,0.2,11.2-0.9,15.8-3c8.4-3.7,13.7-11,14.6-20c1.5-14.5-7.9-23.6-32.3-30.9
		l0,0c-11.3-3.7-16.7-8.5-16.7-15.3c0.3-7.5,7.3-13.1,16.7-13.5c7.6,0,14.2,2,20.8,6.3c1.4,0.8,2,0.7,3-0.5c0.1-0.2,0.4-0.6,1.6-2.4
		l0,0c1.2-1.7,1.5-2.2,1.6-2.4c0.8-1.5,0.7-2-0.7-3c-1.4-1-5.3-3-7.6-3.9c-6.2-2.5-12.7-3.7-19.1-3.6c-14.6,0.3-26,9.8-26.8,22.3
		c-0.5,9,4.1,16.3,13.7,21.6c2.7,1.4,12.5,5.1,17.1,6.5c13,3.8,19.8,10.8,18.4,19.1c-1.3,7.5-9.1,12.5-20.2,12.8
		c-8-0.2-16.1-3.1-23.1-8.4c0,0-0.2-0.2-0.5-0.4c-0.5-0.3-0.5-0.3-0.5-0.4c-1.4-1-2.3-0.9-3.1,0.4
		C191.4,141,190.4,142.6,189.8,143.4"/>
</g>
</svg>
