<?xml version="1.0" encoding="utf-8"?>
<!-- Generator: Adobe Illustrator 25.2.1, SVG Export Plug-In . SVG Version: 6.00 Build 0)  -->
<svg version="1.1" id="Layer_1" xmlns="http://www.w3.org/2000/svg" xmlns:xlink="http://www.w3.org/1999/xlink" x="0px" y="0px"
	 viewBox="0 0 445 106.8" style="enable-background:new 0 0 445 106.8;" xml:space="preserve">
<style type="text/css">
	.st0{fill:#CC0000;}
</style>
<g>
	<polygon id="XMLID_12_" class="st0" points="132.1,35.2 114.5,35.2 114.5,24.4 162.6,24.4 162.6,35.2 145,35.2 145,83.1 
		132.1,83.1 	"/>
	<path class="st0" d="M157,83.1h13.1l4.6-13.1h22l4.4,13.1h13.4l-22-58.8h-13.3L157,83.1z M185.8,38.9h0.2l7.4,21.6h-15.2
		L185.8,38.9z"/>
	<path class="st0" d="M219.7,83.1h12.9v-23h12.9c6.5,0,8.9,2.7,9.8,8.9c0.6,4.7,0.5,10.4,2,14.1h12.9c-2.3-3.3-2.2-10.2-2.5-13.9
		c-0.4-5.9-2.2-12.1-8.6-13.7v-0.2c6.5-2.6,9.3-7.8,9.3-14.7c0-8.9-6.7-16.2-17.2-16.2h-31.7V83.1 M232.6,34.4h14.2
		c5.8,0,8.9,2.5,8.9,8.2c0,5.9-3.1,8.4-8.9,8.4h-14.2V34.4z"/>
	<path id="XMLID_7_" class="st0" d="M320,76.4c-4.5,5.9-10.5,8.1-16.2,8.1c-18.2,0-28.9-13.6-28.9-30.6c0-17.4,10.7-31,28.9-31
		c12.1,0,23.4,7.4,24.8,20.7h-12.4c-1.5-6.5-6.3-9.9-12.5-9.9c-11.6,0-15.9,9.9-15.9,20.1c0,9.8,4.4,19.7,15.9,19.7
		c8.4,0,13.3-4.5,14-12.6h-13v-9.7h24.7v31.8h-8.2L320,76.4"/>
	<polygon id="XMLID_6_" class="st0" points="338.3,24.4 382.3,24.4 382.3,35.2 351.3,35.2 351.3,47.8 379.7,47.8 379.7,57.8 
		351.3,57.8 351.3,72.2 382.9,72.2 382.9,83.1 338.3,83.1 	"/>
	<polygon id="XMLID_5_" class="st0" points="406.3,35.2 388.7,35.2 388.7,24.4 436.8,24.4 436.8,35.2 419.2,35.2 419.2,83.1 
		406.3,83.1 	"/>
</g>
<path class="st0" d="M55.8,5.8c26.3,0,47.7,21.3,47.7,47.7c0,26.3-21.3,47.7-47.7,47.7c-26.3,0-47.7-21.3-47.7-47.7
	C8.2,27.1,29.5,5.8,55.8,5.8z M55.8,84.5C73,84.7,87.1,71,87.3,53.8c0.2-17.2-13.6-31.3-30.7-31.5c-0.2,0-0.5,0-0.7,0
	c-17.2,0.2-30.9,14.3-30.7,31.5C25.3,70.7,38.9,84.3,55.8,84.5L55.8,84.5z M55.8,68.7c-8.4,0-15.3-6.8-15.3-15.3
	c0-8.4,6.8-15.3,15.3-15.3c0,0,0,0,0,0c8.4,0,15.3,6.8,15.3,15.3C71.1,61.9,64.3,68.7,55.8,68.7z"/>
</svg>
