<?xml version="1.0" encoding="utf-8"?>
<!-- Generator: Adobe Illustrator 25.2.1, SVG Export Plug-In . SVG Version: 6.00 Build 0)  -->
<svg version="1.1" id="Layer_1" xmlns="http://www.w3.org/2000/svg" xmlns:xlink="http://www.w3.org/1999/xlink" x="0px" y="0px"
	 viewBox="0 0 524.1 173.3" style="enable-background:new 0 0 524.1 173.3;" xml:space="preserve">
<style type="text/css">
	.st0{fill-rule:evenodd;clip-rule:evenodd;fill:#2FB7EC;}
</style>
<g>
	<path class="st0" d="M260.4,36.4c-3.1-3.7-4.3-8.2-3.5-13.6c0.8-5.4,3.3-9.9,7.5-13.6c4.2-3.7,9-5.6,14.4-5.6
		c5.3,0,9.6,1.9,12.7,5.6c3.1,3.7,4.3,8.2,3.5,13.6c-0.8,5.4-3.3,9.9-7.5,13.6c-4.2,3.7-9,5.6-14.4,5.6
		C267.8,42,263.6,40.1,260.4,36.4 M217.7,54.9c-6.3,0-12.1,5.1-13,11.4l-6.4,46.5c-0.7,5.1-3.1,9.5-7.3,13.2
		c-4.2,3.7-8.8,5.6-14,5.6c-5,0-9.1-1.8-12.3-5.5c-3.1-3.7-4.3-8.1-3.6-13.3l3.9-28.2c0.1-5.6-4.1-10-9.9-10h-15.3
		c-5.8,0-11.3,4.4-12.7,10l-4,28.2c-0.7,5.2-3.2,9.7-7.3,13.3c-4.1,3.7-8.7,5.5-13.8,5.5c-5,0-9.2-1.9-12.4-5.6
		c-3.2-3.7-4.4-8.1-3.7-13.2l8.6-61.7c0.9-6-2.7-12.3-8.1-14.8c0,0-64.4-26.8-68.6-28.6c-4.3-1.7-9.1,2.2-10.7,8.7L3.2,31.9
		c-1.6,6.5,2.1,13.9,8.2,16.4l43.2,17.9l-6.5,46.7c-2.2,15.6,1.5,29,11,40.1c9.5,11.1,22.1,16.7,37.6,16.7
		c14.4,0,27.5-4.8,39.4-14.5c9.5,9.7,21.4,14.5,35.6,14.5c15.6,0,29.7-5.5,42.3-16.7c12.6-11.1,20-24.5,22.1-40.1
		c0,0,6.8-49.2,6.9-50.1c0.6-4.3-4.1-7.8-10.3-7.8L217.7,54.9L217.7,54.9z M281,54.4h-13.5c-5.6,0-10.9,4.6-11.7,10.2
		c0,0-13.6,97-13.6,97.5c-0.5,3.9,3.6,7,9.3,7H265c5.6,0,10.9-4.6,11.7-10.2l13.7-97.5C290.8,57.6,286.6,54.4,281,54.4 M512.3,67.1
		c-7.7-9.1-18.2-13.7-31.4-13.7c-13.2,0-25.6,2.9-37.7,13.4l8.6-59.7c0.5-3.9-3.7-7.1-9.5-7.1h-13.8c-5.8,0-11.1,4.7-11.9,10.4
		l-22.1,152.1c-0.5,3.9,3.7,7.1,9.5,7.1h13.8c5.7,0,10.9-4.5,11.9-10.1h0l6.9-47.4c1.4-9.6,5.1-16.9,11-21.8
		c6-4.9,12.5-7.4,19.5-7.4c14.2,0,20,9.4,17.2,28.3l-7.4,51.2c-0.5,3.9,3.7,7.1,9.5,7.1h13.8c5.8,0,11.1-4.7,11.9-10.4l8.5-55.4
		C522.8,88.5,520,76.3,512.3,67.1 M384.4,84l6.4-8.2c2.7-3.5,2.8-8.8,0.2-12.5c-1.2-2-4.5-3.9-7.6-5.6l-0.3-0.2
		c-9.7-5.3-19.2-7.2-31.8-6.6c-13.7,0.7-25.4,4.7-34.7,12c-9.4,7.4-14.8,16.7-15.8,27.7c-1.1,11.2,2.7,19.5,11.2,24.8
		c4.1,2.6,7.8,4.5,11,5.8c3.2,1.3,8,2.8,14.1,4.5c6,1.7,10.5,3.6,13.5,5.6c2.7,1.9,4,3.9,3.7,6.2c-0.2,2.4-1.5,4.3-3.7,5.9
		c-2.4,1.6-5.5,2.6-9.4,2.7c-10.5,0.5-20.3-1.9-29.3-7.3l-6.6-3.7c-1.1-0.6-2.3-0.9-3.6-0.8c-2.1,0.1-4,1.1-5.2,2.7l-9.6,12.7
		c-1,1.3-1.4,2.9-1.1,4.4c0.3,1.5,1.1,2.8,2.4,3.6c3.1,2.5,6.4,4.6,9.7,6.4c4.4,2.4,9,4.3,13.8,5.7c9,2.7,18,3.8,26.6,3.4
		c13-0.6,24.2-4.7,33.4-12.2c9.2-7.5,14.5-17.2,15.6-29c1.2-11.9-2.2-20.3-10.1-25.1c-4-2.4-7.6-4.2-10.6-5.3c-3-1.1-8.1-2.6-15-4.6
		c-6.9-1.9-11.9-3.7-14.7-5.2c-2.5-1.3-3.6-3.2-3.4-5.7c0.5-4.7,5.3-7.4,14.5-7.8c7.3-0.4,14.7,1.3,21.9,5c1.5,0.8,3.1,1.8,4.6,2.7
		c1.8,1,3.3,1.4,4.6,1.4C380.8,87.5,382.5,86.4,384.4,84L384.4,84z"/>
</g>
</svg>
