<?xml version="1.0" encoding="UTF-8"?>
<svg id="Layer_1" data-name="Layer 1" xmlns="http://www.w3.org/2000/svg" xmlns:xlink="http://www.w3.org/1999/xlink" version="1.1" viewBox="0 0 431.8 170.4">
  <defs>
    <style>
      .cls-1 {
        clip-path: url(#clippath);
      }

      .cls-2 {
        fill: none;
      }

      .cls-2, .cls-3 {
        stroke-width: 0px;
      }

      .cls-3 {
        fill: #000;
      }
    </style>
    <clipPath id="clippath">
      <rect class="cls-2" x="4.5" y="3.4" width="423" height="163.8"/>
    </clipPath>
  </defs>
  <g class="cls-1">
    <path class="cls-3" d="M427.5,3.4h-23.4c-6.5,0-12.5,3.2-16.2,8.6l-31.2,46.1c-.7,1-2,1.2-2.9.6-.2-.1-.4-.3-.6-.6l-31.2-46.1c-3.6-5.4-9.7-8.6-16.2-8.6h-23.4l55.7,82.1-55.4,81.7h23.4c6.5,0,12.5-3.2,16.2-8.6l30.9-45.6c.6-1,2-1.2,2.9-.6.2.1.4.3.6.6l30.9,45.6c3.6,5.4,9.7,8.6,16.2,8.6h23.4l-55.4-81.7L427.5,3.4ZM234.4,20.2v147h11.2c9.3,0,16.8-7.5,16.8-16.8h0V3.4h-11.2c-9.3,0-16.8,7.5-16.8,16.8h0M213.9,3.4h-9.9c-10.9,0-20.4,7.6-22.8,18.2l-22.2,97.7-19.5-91.2C135.8,11.3,118.5,0,100.8,4.8c-11.3,3.1-19.6,12.6-22.1,24.1l-19.3,90.4L37.3,21.7C34.9,11,25.4,3.4,14.5,3.4H4.5l37.2,163.8h14.1c12.8,0,23.9-9,26.5-21.5l23.8-111.7c.3-1.4,1.5-2.4,2.9-2.4,1.4,0,2.7,1,2.9,2.4l23.8,111.7c2.7,12.5,13.7,21.5,26.5,21.5h14.2L213.9,3.4Z"/>
  </g>
</svg>