<svg id="Layer_1" data-name="Layer 1" xmlns="http://www.w3.org/2000/svg" viewBox="0 0 863.1 174.03"><defs><style>.cls-1{fill:#7f54b3;fill-rule:evenodd;}</style></defs><title>woocommerce</title><path class="cls-1" d="M265.11,0h-238A27.13,27.13,0,0,0,0,27.25v90.84a27.24,27.24,0,0,0,27.25,27.25H140L191.48,174l-11.71-28.69h85.34a27.24,27.24,0,0,0,27.25-27.25V27.25A27.24,27.24,0,0,0,265.11,0Zm-243,21c-3.34.24-5.85,1.43-7.53,3.7a10.68,10.68,0,0,0-1.91,8Q23.24,100,32.39,123.47c2.39,5.74,5.14,8.49,8.37,8.25,5-.36,11-7.29,18.05-20.8Q64.36,99.45,76,76.5c6.45,22.59,15.3,39.56,26.42,50.91,3.1,3.23,6.33,4.67,9.44,4.43a7.7,7.7,0,0,0,6.33-4.31,14.12,14.12,0,0,0,1.44-7.88c-.72-10.88.36-26.06,3.34-45.54C126.1,54,129.93,39.56,134.59,31a10.45,10.45,0,0,0,1.19-5.74,9.35,9.35,0,0,0-3.7-6.81A10.35,10.35,0,0,0,124.55,16a9.17,9.17,0,0,0-7.89,5.26Q105.55,41.53,100.88,87A223.12,223.12,0,0,1,89.53,46.14c-1.32-7-4.55-10.4-9.8-10q-5.39.36-9,7.17L44.58,93.11q-6.45-26-12.07-63.47Q31.27,20.33,22.11,21Zm230.33,8.6a27.53,27.53,0,0,1,19.12,13.87c3.83,6.45,5.74,14.22,5.74,23.54A64.09,64.09,0,0,1,268,100.88c-7.17,12-16.5,17.93-28.09,17.93a31.22,31.22,0,0,1-6.45-.72,27.51,27.51,0,0,1-19.13-13.86q-5.73-9.87-5.74-23.67a63.32,63.32,0,0,1,9.33-33.71c7.29-12,16.61-17.92,28.09-17.92A31.18,31.18,0,0,1,252.44,29.64Zm-5,64.67c4.42-4,7.41-9.8,9.08-17.69a51.52,51.52,0,0,0,.84-8.85,30.49,30.49,0,0,0-2.15-10.88c-1.79-4.66-4.18-7.17-7.05-7.76-4.31-.84-8.49,1.55-12.43,7.41a38.66,38.66,0,0,0-6.34,14.22,41.45,41.45,0,0,0-.83,8.73,30.18,30.18,0,0,0,2.15,10.87c1.79,4.66,4.18,7.17,7.05,7.77S244,97.41,247.42,94.31Zm-50.8-50.8A27.8,27.8,0,0,0,177.5,29.64a31.2,31.2,0,0,0-6.46-.71c-11.47,0-20.79,6-28.09,17.92a63.4,63.4,0,0,0-9.32,33.71q0,13.8,5.74,23.67a27.51,27.51,0,0,0,19.12,13.86,31.31,31.31,0,0,0,6.46.72c11.59,0,20.91-6,28.09-17.93a64.09,64.09,0,0,0,9.32-33.83C202.36,57.73,200.45,50,196.62,43.51ZM181.56,76.62c-1.67,7.89-4.66,13.74-9.08,17.69-3.47,3.1-6.7,4.42-9.68,3.82s-5.26-3.11-7.06-7.77a30.39,30.39,0,0,1-2.15-10.87,41.45,41.45,0,0,1,.84-8.73,38.63,38.63,0,0,1,6.33-14.22c4-5.86,8.13-8.25,12.43-7.41,2.87.59,5.26,3.1,7.06,7.76a30.49,30.49,0,0,1,2.15,10.88A41.82,41.82,0,0,1,181.56,76.62Z"/><path d="M322.6,42.43c-8,7.89-12,17.93-12,30.12,0,13,3.94,23.67,11.83,31.68s18.17,12.07,31,12.07a45.16,45.16,0,0,0,12.43-1.91V95A40.07,40.07,0,0,1,355,96.82c-6.33,0-11.35-2.16-15.18-6.34s-5.73-10-5.73-17.33c0-6.81,1.91-12.43,5.61-16.73a17.89,17.89,0,0,1,14.23-6.58,44.47,44.47,0,0,1,11.95,1.8V32.27a50.17,50.17,0,0,0-13-1.55C340.65,30.6,330.61,34.54,322.6,42.43ZM405.55,30.6c-11,0-19.6,3.7-25.81,11s-9.21,17.58-9.21,30.72c0,14.23,3.11,25.1,9.21,32.63s15.06,11.36,26.77,11.36c11.35,0,20.08-3.83,26.18-11.36s9.2-18.16,9.2-31.79S438.78,49,432.57,41.59,417.27,30.6,405.55,30.6ZM415,92.75a10.62,10.62,0,0,1-9.45,5,9.6,9.6,0,0,1-8.72-5c-2-3.35-3-10-3-20.2,0-15.66,3.94-23.43,12-23.43,8.37,0,12.67,7.89,12.67,23.79C418.34,82.71,417.15,89.4,415,92.75Zm85.94-59.88-4.31,18.29c-1.07,4.66-2.15,9.44-3.1,14.34l-2.4,12.67c-2.27-12.67-5.37-27.73-9.32-45.3H454.08l-10.4,81.4h20.8l5.62-56.06,14.22,56.06h14.82l13.63-55.94,5.86,55.94h21.75l-11-81.4Zm99.56,0-4.3,18.29c-1.08,4.66-2.15,9.44-3.11,14.34L590.7,78.17c-2.27-12.67-5.38-27.73-9.32-45.3H553.65l-10.4,81.4h20.8l5.61-56.06,14.23,56.06h14.82l13.5-55.94,5.86,55.94h21.76l-11-81.4Zm67.65,49.24h19.49V65.26H668.15V50.32h22.47V33H646.16v81.4h44.58V97.06H668.15Zm84.51-12.9a21.77,21.77,0,0,0,3.46-11.48c0-7.65-3-13.74-9-18.17s-14.22-6.69-24.5-6.69H697.08v81.4h22V77.21h.36l17.81,37.06h23.19l-17.57-36.7A21.74,21.74,0,0,0,752.66,69.21ZM719,67.89V48.53c5.26.12,9,.95,11.24,2.63s3.34,4.3,3.34,8.12C733.53,64.9,728.63,67.77,719,67.89ZM769,42.43c-8,7.89-11.95,17.93-11.95,30.12,0,13,3.94,23.67,11.84,31.68s18.16,12.07,31,12.07a45.16,45.16,0,0,0,12.43-1.91V95a40.07,40.07,0,0,1-10.88,1.8c-6.33,0-11.35-2.16-15.17-6.34s-5.74-10-5.74-17.33c0-6.81,1.91-12.43,5.61-16.73a17.89,17.89,0,0,1,14.23-6.58,44.47,44.47,0,0,1,11.95,1.8V32.27a50.1,50.1,0,0,0-13-1.55C787.2,30.6,777,34.54,769,42.43Zm71.36,54.39V82h19.48V65.14H840.39V50.2H863V32.87H818.52v81.4H863.1V96.94H840.39Z"/></svg>