<?xml version="1.0" encoding="utf-8"?>
<!-- Generator: Adobe Illustrator 25.2.1, SVG Export Plug-In . SVG Version: 6.00 Build 0)  -->
<svg version="1.1" id="Layer_1" xmlns="http://www.w3.org/2000/svg" xmlns:xlink="http://www.w3.org/1999/xlink" x="0px" y="0px"
	 viewBox="0 0 445 83.2" style="enable-background:new 0 0 445 83.2;" xml:space="preserve">
<style type="text/css">
	.st0{fill:#B83375;}
</style>
<path class="st0" d="M50.2,53.1v27.4H32.1V52.9L1.6,3h19.4l21,34.5L63,3h17.9L50.2,53.1z"/>
<path class="st0" d="M75.8,50.8c0-17.9,14.1-30.8,33.2-30.8s33,12.7,33,30.8c0,17.9-13.9,30.8-33,30.8S75.8,68.9,75.8,50.8z
	 M124.4,50.8c0-10.4-6.5-16.6-15.4-16.6s-15.6,6.2-15.6,16.6c0,10.4,6.7,16.6,15.6,16.6C117.7,67.4,124.4,61.2,124.4,50.8z"/>
<path class="st0" d="M214.7,21.1v59.7h-16.6v-7.1c-4.6,5.2-11.4,7.9-18.7,7.9c-15.1,0-25.9-8.5-25.9-26.8V21.1h17.5v31.2
	c0,10,4.4,14.3,12.2,14.3c8,0,13.9-5.2,13.9-16V21.1H214.7z"/>
<path class="st0" d="M227.3,41.9c0-23.5,18.1-40.1,42.7-40.1c13.7,0,25,4.8,32.4,13.7l-11.8,10.6c-5.3-6-12-9.1-19.8-9.1
	c-14.7,0-25.2,10.2-25.2,24.9c0,14.6,10.5,24.9,25.2,24.9c7.8,0,14.5-3.1,19.8-9.1l11.8,10.6c-7.4,8.9-18.7,13.9-32.4,13.9
	C245.4,82,227.3,65.4,227.3,41.9z"/>
<path class="st0" d="M366.4,46.6v34.1H350v-7.5c-3.2,5.4-9.5,8.3-18.5,8.3c-14.1,0-22.5-7.7-22.5-18.1c0-10.6,7.6-17.9,25.9-17.9
	h13.9c0-7.5-4.4-11.8-13.9-11.8c-6.3,0-13,2.1-17.5,5.6L311,27.3c6.5-4.6,16.4-7.3,26.1-7.3C355.6,20,366.4,28.6,366.4,46.6z
	 M348.7,61.8v-6h-12c-8.2,0-10.7,2.9-10.7,7.1c0,4.4,3.8,7.3,9.9,7.3C341.7,69.9,346.8,67.2,348.7,61.8z"/>
<path class="st0" d="M444,46.4v34.1h-17.5V49.1c0-9.6-4.4-14.1-12.2-14.1c-8.4,0-14.5,5.2-14.5,16v29.5h-17.5V20.9h16.8v7.1
	c4.6-5.2,11.8-7.9,20-7.9C433.1,20,444,28.3,444,46.4z"/>
</svg>
