<?xml version="1.0" encoding="UTF-8"?>
<svg id="Layer_1" data-name="Layer 1" xmlns="http://www.w3.org/2000/svg" version="1.1" viewBox="0 0 732.4 126.9">
  <defs>
    <style>
      .cls-1, .cls-2 {
        fill: #1a1a1a;
      }

      .cls-1, .cls-2, .cls-3 {
        stroke-width: 0px;
      }

      .cls-2 {
        fill-rule: evenodd;
      }

      .cls-3 {
        fill: #ff4c00;
      }
    </style>
  </defs>
  <path class="cls-1" d="M696.6,74c-.5.4-1.1.6-1.7.6s-1.2-.2-1.7-.6c-1.9-1.4-3.7-3-5.4-4.7-1.9-2-3.7-4.2-5.3-6.5-.4-.5-.6-1.2-.6-1.8s.2-1.3.6-1.8c1.5-2.2,3.2-4.2,5-6.1,1.8-1.8,3.7-3.4,5.6-4.9.5-.4,1.1-.6,1.8-.6s1.3.2,1.8.6c2,1.6,4,3.3,5.8,5.2,1.7,1.8,3.3,3.8,4.7,5.8.4.5.6,1.2.6,1.8s-.2,1.3-.6,1.8c-1.5,2.1-3.1,4.2-4.9,6.1-1.8,1.9-3.7,3.6-5.7,5.1Z"/>
  <path class="cls-1" d="M667.5,69.7v26.5h59.7v18.2h-80.7V9.7h80.7v18.4h-59.7v24.4"/>
  <path class="cls-1" d="M554.7,109.7c-7.4-4.5-13.3-10.8-17.7-19.1-4.3-8.2-6.5-17.8-6.5-28.8s2.3-20.5,6.8-28.7c4.5-8.2,10.8-14.5,19-18.9,8.1-4.4,17.4-6.7,28-6.7s18.6,1.7,25.7,5.2c7.1,3.4,12.5,8,16.3,13.8,3.8,5.7,6.2,12.2,7.4,19.4h-22.3c-.8-3.9-2.3-7.3-4.7-10.2-2.4-2.9-5.5-5.2-9.2-6.9-3.8-1.7-8.1-2.5-12.9-2.5s-12.4,1.4-17.2,4.3c-4.8,2.8-8.4,7-11,12.4-2.6,5.4-3.9,11.7-3.9,18.9s1.3,13.7,3.8,19.1c2.5,5.3,6.2,9.5,10.9,12.4,4.8,2.9,10.3,4.4,16.7,4.4s10.5-1,14.8-3c4.3-2,7.8-5.3,10.4-9.9,1.5-2.7,2.6-5.9,3.3-9.6h-31.2v-16.6h53.2v55.8h-18.6v-15.3c-2.4,3.5-5.2,6.6-8.4,9.3-3.2,2.7-7.1,4.7-11.6,6.1-4.5,1.3-9.8,2-15.7,2-9.5,0-18-2.2-25.5-6.7Z"/>
  <path class="cls-2" d="M449.8,9.7h-23.9v104.7h20V39l50.4,75.3h23.5V9.7h-20.3v73.7l-49.6-73.7Z"/>
  <path class="cls-1" d="M342.9,111.3c-6.8-3.4-12.1-8.4-15.7-15-3.7-6.5-5.5-14.4-5.5-23.7V9.7h21.3v62.5c0,5.8,1,10.6,3.1,14.4,2.1,3.8,4.9,6.6,8.4,8.5,3.5,1.8,7.8,2.8,12.9,2.8s8.8-.9,12.4-2.8c3.6-1.8,6.4-4.7,8.4-8.5,2-3.8,3-8.6,3-14.4V9.7h21.2v63c0,9.3-1.8,17.2-5.4,23.7-3.6,6.5-8.7,11.5-15.5,15-6.8,3.4-14.8,5.2-24.2,5.2s-17.7-1.7-24.5-5.2Z"/>
  <path class="cls-1" d="M228.4,110c-8.1-4.3-14.4-10.6-18.9-18.9-4.5-8.3-6.7-17.9-6.7-29s2.2-20.8,6.7-28.9c4.5-8.1,10.8-14.4,19-18.8,8.2-4.4,17.7-6.7,28.5-6.7s20.5,2.2,28.8,6.7c8.2,4.5,14.5,10.8,19,18.8,4.5,8.1,6.7,17.7,6.7,28.9s-2.2,20.7-6.7,29c-4.5,8.3-10.8,14.6-19,18.9-8.2,4.3-17.8,6.5-28.8,6.5s-20.5-2.2-28.6-6.5ZM274.5,93.6c4.9-2.8,8.6-6.9,11.2-12.3,2.5-5.4,3.8-11.8,3.8-19.2s-1.3-13.8-3.8-19.2c-2.5-5.4-6.2-9.5-11.2-12.3-4.9-2.8-10.8-4.2-17.5-4.2s-12.3,1.4-17.1,4.2c-4.8,2.8-8.6,6.9-11.2,12.3-2.7,5.4-4,11.8-4,19.2s1.3,13.8,4,19.2c2.7,5.4,6.4,9.5,11.2,12.3,4.8,2.8,10.5,4.2,17.1,4.2s12.6-1.4,17.5-4.2Z"/>
  <path class="cls-1" d="M128.2,9.7h21v86.5h53.6v18.2h-74.7V9.7Z"/>
  <path class="cls-3" d="M102.2,50.3c-7.5-9.6-17.9-18.9-31.6-27.3h0c-13.8-8.2-26.7-13-38.4-15-7.3-1.2-10.8.2-12.4,1.2-1.6,1-4.5,3.4-7.1,10.6-4.2,11.5-6.7,25.6-6.8,42.2h0c.1,16.6,2.6,30.7,6.8,42.3,2.6,7.2,5.6,9.6,7.1,10.6,1.6,1,5.1,2.4,12.4,1.2,11.7-2,24.6-6.8,38.4-15h0c13.7-8.4,24.1-17.7,31.6-27.3,4.7-6,5.2-9.8,5.2-11.8s-.6-5.8-5.2-11.8Z"/>
</svg>