<?xml version="1.0" encoding="utf-8"?>
<!-- Generator: Adobe Illustrator 25.2.1, SVG Export Plug-In . SVG Version: 6.00 Build 0)  -->
<svg version="1.1" id="Layer_1" xmlns="http://www.w3.org/2000/svg" xmlns:xlink="http://www.w3.org/1999/xlink" x="0px" y="0px"
	 viewBox="0 0 445 174.9" style="enable-background:new 0 0 445 174.9;" xml:space="preserve">
<style type="text/css">
	.st0{fill:#FF4000;}
</style>
<g>
	<path class="st0" d="M61,2.2h3c0.5,56.7-0.4,113.3-0.1,170c-10.4,0-20.9,0-31.4,0c0-43.5,0-87.1,0-130.6c-5.3,1.7-10.7,3.3-16,5
		c-3.4-8.5-7-16.9-10.4-25.3v0C24.3,14.6,43.6,10.6,61,2.2z"/>
	<g>
		<path class="st0" d="M163.6,2.2h16.9c-1.9,10.1-5,19.9-7.7,29.8c-14.1,0.8-28.6,4.7-39.1,14.8c-6.8,6-11.3,14.1-15.4,22
			c18.7-9.5,43.5-7.6,58.8,7.3c17.6,17.8,20.1,48,8.3,69.5c-8.9,16.7-27.4,26.4-45.9,27.4h-4.1c-14.4-0.7-29.6-4.7-39.3-16.1
			c-12.9-15.3-15.8-36.4-14.9-55.8C83,74.5,90.4,46.5,109.7,27C123.7,12.2,143.5,4.2,163.6,2.2z M130.7,93.4
			c-19.8,5.3-22.6,35.8-6,46.3c7.2,4.6,16.9,4.9,24.7,1.4c17.4-7.9,18-36.7,1.3-45.7C144.7,92,137.3,91.7,130.7,93.4z"/>
	</g>
	<g>
		<path class="st0" d="M254.5,2.2h4.3c16.3,0.6,33.4,7.8,41.8,22.4c10.9,18.3,5.8,43.6-11.1,56.5c23,14,31.2,47.4,16,69.9
			c-10,15.3-29,21.3-46.4,22h-4.7c-15.9-0.7-32.9-5.4-43.5-18.2c-11.3-12.9-12.8-32-7.6-47.8c3.7-10.8,11.8-19.3,20.9-25.8
			c-15.4-12-21.4-33.9-13.5-51.9C217.8,12,236.6,2.8,254.5,2.2z M251.1,31.7c-12,1.8-18.1,18-8.8,26.5c5.1,4.2,12.6,11.1,19.3,6.6
			c7.8-3.5,15.8-10.7,14-20.1C273.7,34,260.9,28.9,251.1,31.7z M251.5,99.5c-8.2,4-17.4,9.8-19,19.6c-2.3,10.7,6.2,21.2,16.4,23.5
			c11.4,3.3,26-0.8,30.9-12.4c4.6-9.6-0.8-20.9-9.4-26C264.8,101.1,258,94.9,251.5,99.5z"/>
	</g>
	<g>
		<path class="st0" d="M378.3,2.2h5.8c17,0.9,34.8,9.1,42.4,25.1c9.1,18.1,3.5,41.5-12.5,53.8c13.4,8.8,22.7,23.5,23.7,39.7v8.7
			c-1.2,10.4-5.4,20.7-13,28C414.2,168.2,399,172,384.6,173h-4.7c-16.5-0.4-34.3-5.3-45-18.7c-10.8-12.7-12.3-31.1-7.5-46.5
			c3.6-11.1,11.8-20,21.1-26.7c-15.2-12-21.3-33.7-13.6-51.6C341.9,12.3,360.5,3.1,378.3,2.2z M373.1,32.6
			c-6.7,2.3-11.9,9.4-10.8,16.7c1.3,9.4,10.7,14.9,19,17.5c8.8-2.9,19-9.1,19-19.6C400.1,34.1,383.9,27.7,373.1,32.6z M357.1,118.8
			c-2.9,12.1,7.9,23.4,19.6,24.5c13.6,3,30.3-6.9,29.2-22c-0.9-13.1-13.9-19.7-24.6-24.2C371.4,101.5,359.4,107,357.1,118.8z"/>
	</g>
</g>
</svg>
