<?xml version="1.0" encoding="utf-8"?>
<!-- Generator: Adobe Illustrator 25.2.1, SVG Export Plug-In . SVG Version: 6.00 Build 0)  -->
<svg version="1.1" id="Layer_1" xmlns="http://www.w3.org/2000/svg" xmlns:xlink="http://www.w3.org/1999/xlink" x="0px" y="0px"
	 viewBox="0 0 869.2 174.9" style="enable-background:new 0 0 869.2 174.9;" xml:space="preserve">
<style type="text/css">
	.st0{fill:#ED6F2D;}
</style>
<g>
	<path class="st0" d="M148.5,12.5c10.9-2.7,21.9-4.7,33.1-5.2c12.9-0.5,26,0.5,38.3,4.8c7.9,2.8,15.4,7.4,20.1,14.4
		c4.7,6.9,5.8,15.7,4.6,23.9c-1.8,9.6-6.9,18.1-12.2,26.1c-10.4,15.4-22.8,29.3-34.4,43.9c-3.3,4.3-6.9,8.6-9,13.6
		c-0.7,1.9-1.4,4.4,0,6.2c1.8,1.8,4.7,2.2,7.1,2.2c19.2-1.2,38.2-4.7,56.8-9.9c22.5-6.2,44.2-14.8,65.6-23.9
		c1.6-0.6,3.2-1.3,4.8-1.9c-7.6,5.3-15.8,9.6-23.9,14c-19.9,10.5-40.5,20.1-61.5,28.1c-13,4.8-26.2,9.2-39.9,11.8
		c-6.4,1.2-12.9,1.7-19.4,1.3c-4.3-0.5-8.7-1.6-12-4.5c-3.2-2.8-4.5-7.2-4.5-11.3c0.2-4.2,1.6-8.2,3.3-12
		c3.4-6.6,7.9-12.5,12.5-18.3c14.2-17,29.4-33.1,41.9-51.5c3-4.6,6.1-9.3,7.6-14.6c1.1-3.7,0.6-7.9-1.6-11.1
		c-2.6-3.7-6.5-6.3-10.5-8.3c-8.3-4-17.2-6.5-26-9.1c-1.3-0.4-2.6-0.8-3.8-0.8c-1.9,0.5-3.4,1.9-5,3c3.2,2.7,6.5,5.3,9.6,8.1
		C178.2,33.6,166,36,154,38.9c-22.5,5.2-44.4,12.4-66.2,20.1c1.3,3.6,2.7,7.1,4,10.7c0.5,1-0.6,1.8-1.2,2.5
		c-5,4.7-9.8,9.4-14.4,14.3c20.7,6.8,44.4,1.7,60.9-12.3c-1.7-2.7-4.3-4.6-6.9-6.3c3.7,0.5,7.5,1.6,10.1,4.5
		c3.2,3.1,4.6,7.6,4.4,11.9c-1.6,0-3.3,0-5,0c0-2-0.2-3.9-0.5-5.9c-16.2,14-38.8,19.9-59.7,15.4c-3.9-0.6-7.7-2.1-11.4-3.2
		c-0.1,6.7,0,13.3,0,20c-7.3,2.9-14.2,6.9-20.2,12c-3.7,3.2-7.1,6.9-9,11.5c-1.6,4.2-0.2,9.5,3.6,12.2c3.2,2.2,6.9,3.6,10.6,4.5
		c11.5,2.7,23.6,2,35.3,0.8c15.9-1.6,31.5-5.2,47-9c-14.3,7.4-29,14.1-44.5,18.1c-9.8,2.6-19.9,4.4-30.1,5
		c-10.4,1.3-21.2,0.2-31.2-3.4c-7.9-2.8-15.1-8.4-18.4-16.3c-3.3-7.8-2.7-16.7-0.4-24.7c2.1-7.1,5.6-13.9,9.8-20
		c7.8-12.5,17.1-24,27.6-34.4C62.3,53,78.6,41.5,96.1,32.5C112.7,23.9,130.4,17.3,148.5,12.5z"/>
	<path class="st0" d="M490.7,31.6c4.6-0.4,9.1-0.5,13.6,0.3c1.9,0.4,3.6,1.8,4.2,3.7c0.9,2.8,0.6,5.9,0.7,8.9
		c-0.1,2.8,0,5.9-1.8,8.2c-1.1,1.5-3,1.9-4.8,2.2c-4.6,0.6-9.2,0.6-13.8-0.3c-2-0.4-3.7-1.9-4.3-3.8c-1.1-3.3-0.8-6.8-0.8-10.1
		c0.1-2.3,0.3-4.7,1.6-6.7C486.6,32.4,488.8,31.9,490.7,31.6z"/>
	<g>
		<path class="st0" d="M364.5,33.9c11,0,21.9,0,32.9,0c11.3,33.8,22.6,67.5,33.8,101.3c0.5,1.6,1.1,3.3,1.6,5
			c-8.6,0-17.2,0.1-25.8,0c-2.1-6.9-4.2-13.7-6.3-20.6c-0.5-1.4-0.6-2.8-1.5-3.9c-12.5-0.2-24.9,0-37.5-0.1
			c-2.7,8.1-5.1,16.5-7.8,24.6c-8.4,0-16.8,0-25.3,0C340.6,104.7,352.5,69.4,364.5,33.9z M379.9,57c-3.7,12.2-7.7,24.5-11.4,36.7
			c8.1,0.1,16.2,0.1,24.3,0c-3.7-12.3-7.5-24.6-11.2-36.8C381,57,380.3,57,379.9,57z"/>
	</g>
	<path class="st0" d="M443.7,33.6c7.8-0.1,15.5-0.1,23.3,0c0,35.6,0,71.2,0,106.8c-7.8,0-15.5,0-23.3,0
		C443.7,104.8,443.7,69.2,443.7,33.6z"/>
	<g>
		<path class="st0" d="M526.3,33.6c7.7,0,15.4,0,23.1,0c0.1,12.7,0,25.3,0.1,38c2-2.1,4.2-4.2,6.9-5.5c6.3-3.1,13.5-3.2,20.5-2.7
			c6.2,0.5,12.5,2.9,16.6,7.9c5.3,6.1,6.8,14.4,7.4,22.2c0.5,8.3,0.5,16.7-1,24.9c-1.4,6.9-4.2,13.8-9.9,18.1
			c-5.5,4.3-12.7,5.5-19.6,5.3c-5.6-0.2-11.4-0.6-16.1-3.9c-2.5-1.6-4-4.2-5.5-6.6c-0.4,3.1-0.8,6.1-1.3,9.1c-7.1,0-14.2,0-21.3,0
			C526.3,104.8,526.3,69.2,526.3,33.6z M559.3,80.5c-3.3,0.6-6.4,2.4-8,5.3c-3,4.9-2.8,10.9-3.2,16.5c0.3,5.4,0.2,11.1,3,16.1
			c1.9,3.7,6,5.8,10.1,5.9c3.1,0.1,6.5,0.3,9.3-1.4c4.2-2.1,5.8-6.9,6.5-11.2c0.5-4.9,0.7-9.9,0.3-14.9c-0.2-4.6-0.9-9.5-4.1-13.1
			C569.8,80.1,564.1,79.5,559.3,80.5z"/>
	</g>
	<g>
		<path class="st0" d="M702.5,33.6c7.8-0.1,15.5,0,23.3,0c0.1,12.6,0,25.3,0.1,37.9c2.3-2.6,4.9-4.9,8.2-6.1c5.7-2.4,12-2.6,18-2.2
			c5.4,0.4,11,2,15.3,5.4c3.9,3.2,6.4,7.9,7.8,12.7c2,6.6,2.2,13.6,2.4,20.4c-0.1,9.4-0.5,19.3-5.2,27.8c-2.3,4.2-6,7.7-10.4,9.6
			c-5.9,2.7-12.6,2.9-19,2.5c-4.7-0.4-9.5-1.5-13.2-4.5c-1.9-1.6-3.1-3.7-4.5-5.8c-0.5,3-0.8,6-1.5,9c-7,0-14.1,0-21.2,0
			C702.4,104.8,702.4,69.2,702.5,33.6z M735.4,80.5c-3.7,0.6-7,3-8.5,6.5c-2.7,5.9-2.4,12.7-2.3,19.1c0.2,5.2,0.9,11.1,4.8,14.9
			c2.9,2.9,7.2,3.6,11.1,3.3c4.3,0.2,8.8-2,10.6-5.9c2.7-5.7,2.5-12.1,2.6-18.2c-0.3-5.4-0.5-11.3-3.8-15.8
			C746.5,80.2,740.4,79.4,735.4,80.5z"/>
	</g>
	<g>
		<path class="st0" d="M626.2,64.3c8.8-0.9,17.5-1.3,26.3-1.1c6.4,0.4,13,1.1,18.9,3.9c4,1.8,7.5,5,9.4,9c1.9,3.9,2.4,8.3,2.4,12.6
			c0,17.2,0,34.5,0,51.6c-6.9,0-13.8,0-20.7,0c-0.7-2.6-1.4-5.1-1.9-7.8c-2.2,2.5-4.7,4.8-7.8,6.1c-6.5,3-13.9,3.4-20.9,2.7
			c-5.9-0.6-12-2.8-15.7-7.7c-3.5-4.3-4.5-10-4.6-15.3c0.1-5.6,1-11.7,4.9-16c3.8-4.5,9.7-6.3,15.3-7.3c9.4-1.3,19-0.6,28.4-0.8
			c-0.2-2.7-0.3-5.6-1.7-8c-1.5-2.3-4.3-3-6.8-3.3c-8.5-1.1-17.1,0.1-25.6,0.6C626.2,77.4,626.1,70.9,626.2,64.3z M637.2,111.3
			c-2.9,1.6-3.4,5.5-2.7,8.4c0.7,2.7,3.6,3.8,6,4.2c4.8,0.6,9.8-0.1,14.2-2.1c2.1-1.2,4.6-2.6,5.3-5c0.3-2.3,0.1-4.7,0.1-6.9
			c-4.4-0.4-8.7-0.1-13.1-0.2C643.8,109.8,640.2,109.8,637.2,111.3z"/>
	</g>
	<g>
		<path class="st0" d="M802.3,64.3c5.1-0.6,10.3-0.7,15.5-1.1c8-0.1,16.3-0.3,24,1.9c4.9,1.3,9.8,3.7,12.9,7.8
			c3.5,4.3,4.4,10,4.4,15.4c0,17.4,0,34.8,0,52.2c-6.9,0-13.9,0-20.8,0c-0.6-2.6-1.3-5.2-1.8-7.8c-2.7,3.4-6.3,5.9-10.4,7.2
			c-5.7,1.9-11.8,2.2-17.7,1.6c-5.6-0.5-11.3-2.4-15.3-6.5c-4-4.2-5.6-10.2-5.6-15.9c-0.1-4.6,0.5-9.3,2.7-13.4
			c2.2-4.1,6-7,10.3-8.6c5.7-2.1,11.7-2.5,17.6-2.6c5.9,0,11.8,0,17.7,0c-0.1-3,0-6.5-2.3-8.8c-2.8-2.7-7-2.6-10.6-2.9
			c-7-0.3-14.1,0.6-21,1.1C802,77.4,801.9,70.8,802.3,64.3z M812.6,111.7c-2.4,1.6-2.4,4.8-2.2,7.2c0.1,2,1.7,3.7,3.6,4.3
			c3.1,1.2,6.5,1,9.7,0.7c4.6-0.6,9.5-2.3,12.1-6.3c0.5-2.6,0.1-5.3,0.2-7.9c-3.9-0.1-7.9,0-11.7,0
			C820.4,109.9,816,109.5,812.6,111.7z"/>
	</g>
	<path class="st0" d="M484.9,64.6c7.8,0,15.5,0,23.3,0c0,25.3,0,50.5,0,75.9c-7.8,0-15.5,0-23.2,0
		C484.8,115.2,484.9,89.8,484.9,64.6z"/>
	<g>
		<path class="st0" d="M282.3,144.7c3.7-1.2,8.2-0.2,10.9,2.7c4.1,4,4.1,11.2,0.1,15.3c-3.2,3.6-8.9,4.4-13,2
			c-3.8-2.1-5.9-6.7-5.4-11.1C275.3,149.5,278.3,145.9,282.3,144.7z M283.3,146.2c-4.6,1.1-7.6,6-6.6,10.5c0.7,5.2,6.7,8.9,11.6,6.9
			c3.7-1.1,6-4.8,6.3-8.5c-0.2-2.7-1.2-5.4-3.3-7C289.2,146.1,286.1,145.5,283.3,146.2z"/>
	</g>
	<g>
		<path class="st0" d="M281.2,149.2c2.2,0,4.5-0.2,6.7,0.1c1.6,0.2,2.4,1.8,2.3,3.3c-0.1,1.4-1.4,2.3-2.3,3.2
			c1.2,1.6,2.2,3.2,3.2,4.9c-0.6,0-1.3-0.1-2-0.1c-1.1-1.6-1.9-3.6-3.6-4.8c-0.9-0.2-1.9-0.2-2.8-0.3c-0.4,1.8,0.9,4.8-1.5,5.4
			C281.1,157,281.2,153.1,281.2,149.2z M282.8,150.5c0,1.2,0,2.5,0,3.7c1.9,0.2,3.7,0,5.6-0.6c0-0.9,0-1.7,0-2.7
			C286.5,150.5,284.6,150.4,282.8,150.5z"/>
	</g>
</g>
</svg>
