<svg id="Layer_1" data-name="Layer 1" xmlns="http://www.w3.org/2000/svg" viewBox="0 0 580.48 174.93"><defs><style>.cls-1{fill:#f90;}.cls-1,.cls-2{fill-rule:evenodd;}</style></defs><title>amazon</title><path class="cls-1" d="M360.12,187c-33.72,24.89-82.62,38.13-124.73,38.13-59,0-112.14-21.81-152.36-58.13-3.16-2.85-.34-6.74,3.46-4.53,43.38,25.24,97,40.45,152.45,40.45a303.25,303.25,0,0,0,116.28-23.8C360.92,176.74,365.7,182.92,360.12,187Z" transform="translate(0 -50.24)"/><path class="cls-1" d="M374.16,171c-4.32-5.52-28.52-2.62-39.39-1.32-3.29.4-3.8-2.48-.84-4.56,19.31-13.56,50.94-9.65,54.62-5.11s-1,36.3-19.07,51.43c-2.78,2.33-5.42,1.09-4.19-2C369.36,199.31,378.47,176.54,374.16,171Z" transform="translate(0 -50.24)"/><path class="cls-2" d="M335.54,69.35V56.17a3.25,3.25,0,0,1,3.34-3.34h59.05a3.3,3.3,0,0,1,3.41,3.32v11.3c0,1.9-1.61,4.37-4.44,8.3L366.3,119.42c11.35-.26,23.36,1.44,33.68,7.24a6,6,0,0,1,3.13,5.14v14.06c0,1.94-2.12,4.18-4.34,3-18.18-9.52-42.3-10.56-62.4.12-2.05,1.09-4.2-1.12-4.2-3.06V132.57c0-2.14,0-5.8,2.19-9.06L369.8,72.67H339A3.28,3.28,0,0,1,335.54,69.35Z" transform="translate(0 -50.24)"/><path class="cls-2" d="M120.12,151.64h-18a3.39,3.39,0,0,1-3.22-3V56.4a3.39,3.39,0,0,1,3.47-3.32h16.73a3.39,3.39,0,0,1,3.27,3.1v12h.34c4.36-11.65,12.57-17.08,23.64-17.08,11.24,0,18.28,5.43,23.31,17.08,4.36-11.65,14.26-17.08,24.82-17.08,7.55,0,15.77,3.1,20.8,10.09,5.7,7.76,4.53,19,4.53,28.91l0,58.19a3.39,3.39,0,0,1-3.46,3.32H198.43a3.37,3.37,0,0,1-3.22-3.31V99.45c0-3.88.34-13.59-.5-17.27-1.34-6.21-5.37-8-10.56-8a11.93,11.93,0,0,0-10.74,7.57c-1.84,4.66-1.67,12.42-1.67,17.66v48.87a3.4,3.4,0,0,1-3.47,3.32H150.32a3.37,3.37,0,0,1-3.23-3.31l0-48.88C147.07,89.16,148.75,74,136,74c-12.91,0-12.41,14.74-12.41,25.42v48.87A3.39,3.39,0,0,1,120.12,151.64Z" transform="translate(0 -50.24)"/><path class="cls-2" d="M452.17,51.13c26.67,0,41.09,22.9,41.09,52,0,28.14-15.93,50.45-41.09,50.45-26.16,0-40.41-22.89-40.41-51.42C411.76,73.44,426.18,51.13,452.17,51.13ZM452.34,70c-13.25,0-14.09,18-14.09,29.3s-.17,35.32,13.92,35.32c13.92,0,14.59-19.41,14.59-31.24,0-7.76-.33-17.08-2.68-24.45C462.07,72.47,458,70,452.34,70Z" transform="translate(0 -50.24)"/><path class="cls-2" d="M527.84,151.64h-17.9a3.37,3.37,0,0,1-3.22-3.31l0-92.25a3.4,3.4,0,0,1,3.45-3h16.67A3.42,3.42,0,0,1,530,55.65V69.76h.34c5-12.61,12.07-18.63,24.48-18.63,8,0,15.93,2.91,21,10.87,4.7,7.37,4.7,19.79,4.7,28.71v58a3.41,3.41,0,0,1-3.44,2.91H559a3.38,3.38,0,0,1-3.2-2.91V98.67c0-10.09,1.17-24.84-11.24-24.84-4.36,0-8.39,2.91-10.4,7.38-2.51,5.62-2.85,11.25-2.85,17.46v49.65A3.44,3.44,0,0,1,527.84,151.64Z" transform="translate(0 -50.24)"/><path class="cls-2" d="M288.46,107.61c0,7,.17,12.83-3.36,19-2.86,5.06-7.4,8.17-12.44,8.17-6.89,0-10.92-5.25-10.92-13,0-15.3,13.72-18.08,26.72-18.08Zm18.11,43.8a3.71,3.71,0,0,1-4.24.42c-6-5-7-7.25-10.3-12-9.86,10.05-16.85,13.06-29.62,13.06-15.13,0-26.89-9.33-26.89-28,0-14.58,7.9-24.5,19.16-29.36,9.74-4.28,23.36-5.06,33.78-6.22V87c0-4.28.34-9.33-2.19-13-2.18-3.3-6.38-4.66-10.08-4.66-6.85,0-12.94,3.51-14.44,10.78-.31,1.62-1.49,3.22-3.12,3.31L241.22,81.5a3.16,3.16,0,0,1-2.69-3.75c4-21.13,23.08-27.51,40.18-27.51,8.74,0,20.17,2.33,27.06,8.94,8.74,8.17,7.9,19.06,7.9,30.92v28c0,8.42,3.5,12.12,6.78,16.65,1.15,1.64,1.41,3.58-.06,4.78-3.67,3.07-10.19,8.74-13.78,11.93Z" transform="translate(0 -50.24)"/><path class="cls-2" d="M52.94,107.61c0,7,.17,12.83-3.36,19-2.86,5.06-7.39,8.17-12.44,8.17-6.89,0-10.92-5.25-10.92-13,0-15.3,13.72-18.08,26.72-18.08Zm18.11,43.8a3.71,3.71,0,0,1-4.24.42c-6-5-7-7.25-10.3-12-9.86,10.05-16.85,13.06-29.62,13.06-15.13,0-26.89-9.33-26.89-28,0-14.58,7.9-24.5,19.16-29.36,9.75-4.28,23.36-5.06,33.78-6.22V87c0-4.28.34-9.33-2.18-13-2.19-3.3-6.39-4.66-10.09-4.66-6.85,0-12.94,3.51-14.44,10.78-.31,1.62-1.49,3.22-3.12,3.31L5.7,81.5A3.15,3.15,0,0,1,3,77.75C7,56.62,26.09,50.24,43.19,50.24c8.74,0,20.17,2.33,27.06,8.94,8.74,8.17,7.9,19.06,7.9,30.92v28c0,8.42,3.5,12.12,6.78,16.65,1.15,1.64,1.41,3.58-.06,4.78-3.67,3.07-10.19,8.74-13.77,11.93Z" transform="translate(0 -50.24)"/></svg>