<svg id="Layer_1" data-name="Layer 1" xmlns="http://www.w3.org/2000/svg" viewBox="0 0 720.76 273.77"><defs><style>.cls-1{fill:#e43238;}.cls-2{fill:#3566af;}.cls-3{fill:#f2ae1c;}.cls-4{fill:#85b940;}</style></defs><title>ebaysvg</title><path class="cls-1" d="M88.35,59.73C40.16,59.73,0,80.17,0,141.86c0,48.87,27,79.64,89.59,79.64C163.27,221.5,168,173,168,173h-35.7s-7.64,26.12-44.86,26.12c-30.32,0-52.12-20.47-52.12-49.18H171.72v-18C171.72,103.5,153.69,59.73,88.35,59.73Zm-1.24,23c28.85,0,48.52,17.68,48.52,44.18H36.09C36.09,98.8,61.76,82.75,87.11,82.75Z"/><path class="cls-2" d="M171.69,0V190.52c0,10.81-.77,26-.77,26H205s1.22-10.91,1.22-20.87c0,0,16.82,26.31,62.57,26.31,48.16,0,80.87-33.43,80.87-81.34,0-44.58-30.05-80.42-80.8-80.42-47.53,0-62.3,25.66-62.3,25.66V0Zm88.36,83.76c32.7,0,53.5,24.28,53.5,56.86,0,34.93-24,57.78-53.27,57.78-34.91,0-53.74-27.26-53.74-57.48C206.54,112.77,223.44,83.76,260.05,83.76Z"/><path class="cls-3" d="M434.26,59.73c-72.51,0-77.16,39.7-77.16,46h36.09s1.89-23.18,38.58-23.18c23.83,0,42.29,10.91,42.29,31.89V122H431.77c-56.17,0-85.86,16.43-85.86,49.77,0,32.81,27.43,50.67,64.51,50.67,50.53,0,66.81-27.92,66.81-27.92,0,11.1.85,22.05.85,22.05h32.08s-1.24-13.56-1.24-22.25v-75c0-49.18-39.67-59.53-74.66-59.53Zm39.81,84.62v10c0,13-8,45.26-55.18,45.26-25.83,0-36.89-12.89-36.89-27.84C382,144.52,419.28,144.35,474.07,144.35Z"/><path class="cls-4" d="M489.48,66h40.61l58.26,116.72L646.48,66h36.77L577.37,273.77H538.79l30.55-57.93L489.48,66Z"/><path d="M696.73,43.78v3.6h3v2.38h-3v5.57c0,1.53.42,2.33,1.64,2.33a4.55,4.55,0,0,0,1.24-.16l0,2.44a7.09,7.09,0,0,1-2.31.31,3.68,3.68,0,0,1-2.74-1,5,5,0,0,1-1-3.52V49.76h-1.82V47.38h1.82V44.53Zm5.44,7.35c0-1.45,0-2.67-.1-3.75h2.74l.13,1.86H705a4.37,4.37,0,0,1,3.88-2.15,3.64,3.64,0,0,1,3.5,2.33h.05A4.88,4.88,0,0,1,714,47.84a4.22,4.22,0,0,1,2.54-.75c2.1,0,4.22,1.43,4.22,5.47V60h-3.11V53c0-2.1-.72-3.34-2.25-3.34a2.41,2.41,0,0,0-2.22,1.69,4.44,4.44,0,0,0-.16,1.06V60h-3.11v-7.3c0-1.76-.69-3-2.17-3a2.49,2.49,0,0,0-2.28,1.82,2.69,2.69,0,0,0-.18,1V60h-3.11V51.13Z"/></svg>