<svg id="Layer_1" data-name="Layer 1" xmlns="http://www.w3.org/2000/svg" viewBox="0 0 580.48 275.41"><defs><style>.cls-1{fill:#f1641e;}</style></defs><title>etsy</title><path class="cls-1" d="M62.23,21.12V99.19s27.51,0,42.23-1.12c11.58-2,13.71-3.14,15.84-14.72l4.27-17h12.59L135,103.45l1.11,38H123.45l-3.15-14.83c-3.14-10.55-7.4-12.69-15.84-13.71-10.55-1.11-42.23-1.11-42.23-1.11v65.48c0,12.59,6.39,18,21.12,18h44.36c13.71,0,27.41-1.12,35.94-21.12l11.48-25.38h10.65c-1.11,5.28-6.39,51.77-7.4,62.23,0,0-40.1-1-57-1h-76L0,211V199.48l14.72-3.25c10.66-2.13,13.8-5.28,13.8-13.71,0,0,1.12-28.52,1.12-76s-1.12-75.94-1.12-75.94c0-9.45-3.14-11.58-13.8-13.71L0,13.71V2.13L44.36,3h84.47c16.85,0,45.27-3,45.27-3s-1,17.87-2.13,60.1H160.39l-4.26-14.83C152,26.29,145.67,16.84,134,16.84H67.61C62.23,16.85,62.23,17.87,62.23,21.12Zm171,8.33h12.69V73.81l43.35-2.13-2.13,20.1-42.23-3.25v78.18c0,22.13,7.41,30.65,20.1,30.65,11.48,0,20-6.39,23.15-11.67l6.28,7.41c-6.28,14.72-24.15,22.13-41.11,22.13-21,0-38.07-12.59-38.07-36.85V89.64H190V79.08C211.16,77,226.9,64.26,233.19,29.45Zm90.86,136.13,8.42,20.1c3.14,8.42,10.55,17,27.4,17,18,0,25.38-9.54,25.38-21.12,0-35.94-70.76-25.38-70.76-73.91,0-27.41,22.13-40.21,50.66-40.21,12.69,0,31.68,2.13,41.22,6.4a191.64,191.64,0,0,0-3.25,34.82l-10.46,1-7.41-21.12c-2.13-5.17-10.66-9.45-21.12-9.45-12.69,0-25.38,5.28-25.38,19,0,32.69,72.89,25.38,72.89,73.91,0,27.51-24.26,42.23-53.9,42.23-22.13,0-44.36-8.52-44.36-8.52,2.13-12.59,1.11-26.29,0-40.1ZM406.38,266.9c3.14-11.58,5.27-26.29,7.41-40.11l11.57-1,4.27,22.13c1,5.28,4.15,9.54,12.59,9.54,13.71,0,31.68-8.42,48.62-38-7.51-18-29.64-75.94-49.74-120.31-5.28-11.66-6.29-12.69-13.61-14.82l-5.38-2V71.66l31.78,1.12,39-2.13V81.22l-9.54,2.13c-7.4,1-10.46,5.17-10.46,9.44a8.27,8.27,0,0,0,1,4.27c2,6.39,19,53.81,31.68,85.47,10.46-22.13,30.56-71.76,33.7-80.2,1.12-4.26,2.13-5.27,2.13-8.42,0-5.38-3.14-8.52-10.46-10.55l-7.51-2.14V70.66l29.64,1,27.41-1V81.22l-5.28,4.15c-10.55,4.27-11.67,5.28-15.84,13.8L513,207.8c-27.51,62.33-56,67.61-76,67.61C424.25,275.42,414.71,272.17,406.38,266.9Z" transform="translate(0)"/></svg>