<?xml version="1.0" encoding="utf-8"?>
<!-- Generator: Adobe Illustrator 25.2.1, SVG Export Plug-In . SVG Version: 6.00 Build 0)  -->
<svg version="1.1" id="Layer_1" xmlns="http://www.w3.org/2000/svg" xmlns:xlink="http://www.w3.org/1999/xlink" x="0px" y="0px"
	 viewBox="0 0 445 64.6" style="enable-background:new 0 0 445 64.6;" xml:space="preserve">
<style type="text/css">
	.st0{fill-rule:evenodd;clip-rule:evenodd;}
</style>
<g id="Atom-_x2F_-Logo-_x2F_-Medium">
	<path id="FAIRE" class="st0" d="M52.4,18.5l-0.7,0.4c-2-2.5-4-4.7-5.8-6.4c-1.8-1.8-3.6-3.1-5.3-3.9c-0.8-0.4-2.4-0.7-4.6-1
		c-2.2-0.3-4.8-0.4-7.7-0.4c-0.5,0-1.1,0-1.7,0c-0.6,0-1.3,0-1.9,0.1s-1.2,0-1.7,0.1c-0.5,0-0.9,0-1.2,0c0,0.3-0.1,0.6-0.2,0.9
		c-0.1,0.3-0.1,0.6-0.2,1c0,0.4-0.1,0.9-0.1,1.5c0,0.6-0.1,1.4-0.1,2.3c0,1.7-0.1,3.6-0.1,5.7s0,4,0,5.8v7h1.3c0.8,0,1.7,0,2.6-0.1
		c1,0,2-0.1,3-0.2s1.9-0.2,2.6-0.3c1.8-0.4,3.2-0.9,4.2-1.6c1-0.6,1.9-1.4,2.4-2.3c0.6-0.9,1-1.9,1.3-2.9c0.2-1.1,0.5-2.2,0.7-3.4
		h0.9v23.8h-0.9c-0.4-1.6-1-3.2-1.7-5c-0.7-1.7-1.6-3.1-2.7-4c-0.9-0.8-1.9-1.5-3-1.9c-1.1-0.4-2.3-0.7-3.7-0.8
		c-0.7,0-1.4-0.1-1.9-0.1c-0.5,0-1.1,0-1.6,0h-3.6v9.2c0,1.4,0,2.6,0,3.8s0,2.2,0,3c0,1.6,0.1,3.1,0.3,4.5c0.1,1.4,0.4,2.5,0.9,3.1
		s1.2,1.2,2.3,1.6c1.1,0.4,2.6,0.6,4.6,0.7v0.7H5.5v-0.7c1.2-0.2,2.4-0.5,3.5-1c1.1-0.4,1.9-1.1,2.6-1.8c0.2-0.3,0.4-0.7,0.6-1.3
		s0.3-1.2,0.4-2c0.1-0.7,0.2-1.5,0.3-2.3c0-0.8,0.1-1.6,0.1-2.4c0-0.7,0-1.6,0-2.8c0-1.2,0-2.5,0.1-3.9c0-1.4,0-2.8,0-4.3V18
		c0-0.9,0-1.8,0-2.7c0-0.9-0.1-1.8-0.1-2.7c-0.1-0.8-0.2-1.6-0.4-2.3s-0.4-1.1-0.7-1.4C11,8.1,10.2,7.6,9.4,7.4
		C8.6,7.2,7.5,7,6.1,6.8V6h41.3L52.4,18.5z M133.5,59.3v-0.7c0.1,0,0.5,0,1.1-0.1c0.6-0.1,1.2-0.3,1.8-0.5c0.6-0.2,1.2-0.6,1.6-1
		c0.5-0.4,0.7-1,0.7-1.7c0-0.4-0.1-1.2-0.4-2.2c-0.3-1-0.7-2.2-1.2-3.7c-0.5-1.5-1.1-3.1-1.7-4.8c-0.6-1.8-1.3-3.6-2.1-5.5h-19.7
		c-0.7,1.9-1.5,3.7-2.2,5.4c-0.7,1.7-1.4,3.4-2.1,5.1c-1,2.7-1.6,4.5-1.6,5.6c0,0.6,0.2,1.2,0.6,1.6s0.9,0.8,1.5,1
		c0.6,0.3,1.3,0.5,2,0.6c0.7,0.1,1.4,0.2,2,0.3v0.7H98.2v-0.8c1.3-0.1,2.4-0.5,3.3-1c0.9-0.5,1.4-0.9,1.6-1.1
		c0.3-0.3,0.9-1.2,1.7-2.4s1.8-3.2,2.9-5.7c1-2.3,2.2-5,3.5-7.9s2.6-6,4-9.1c1.4-3.1,2.7-6.3,4-9.5c1.3-3.2,2.6-6.1,3.8-8.9
		l-0.7-1.6c0.9-0.4,1.7-0.9,2.4-1.4c0.7-0.5,1.3-1.1,1.9-1.7c0.5-0.6,1-1.2,1.4-1.7c0.4-0.5,0.7-1,0.9-1.3h0.6c1.5,4.1,3,8,4.4,11.6
		s2.7,7.2,4,10.6s2.5,6.7,3.7,9.9s2.4,6.3,3.6,9.4c0.5,1.5,1.1,2.8,1.5,3.8c0.5,1,1,2.2,1.6,3.4c0.1,0.2,0.3,0.5,0.7,1
		s0.8,1,1.4,1.5c0.6,0.5,1.3,1,2.1,1.4c0.8,0.4,1.8,0.6,3,0.7v0.9H133.5z M123.8,14.5c-0.3,0.6-0.7,1.7-1.3,3
		c-0.6,1.4-1.3,3.1-2.1,5c-0.8,2-1.8,4.2-2.8,6.7c-1,2.5-2.1,5.2-3.3,8.1h18.5c-0.8-2.2-1.7-4.4-2.6-6.7c-0.9-2.2-1.7-4.3-2.5-6.4
		s-1.6-3.9-2.2-5.6C124.8,17,124.2,15.6,123.8,14.5z M228.2,59.3h-22.5v-0.7c1.2-0.2,2.4-0.5,3.5-1c1.1-0.4,2-1.1,2.7-1.9
		c0.2-0.3,0.4-0.7,0.6-1.3c0.1-0.5,0.2-1.2,0.3-1.9c0.1-0.7,0.1-1.5,0.1-2.3s0-1.6,0-2.4c0-0.7,0-1.6,0-2.8c0-1.2,0-2.5,0.1-3.9
		s0-2.8,0-4.3V15.4c0-0.9,0-1.7-0.1-2.5c-0.1-0.8-0.2-1.5-0.3-2.1c-0.1-0.6-0.4-1.1-0.7-1.4c-0.7-0.8-1.5-1.4-2.6-1.8
		c-1-0.4-2.2-0.6-3.5-0.8V6h22.2v0.7c-1,0.1-2.2,0.4-3.3,0.8s-2.1,1.2-2.7,2.4c-0.4,0.8-0.7,1.9-0.7,3.2c0,1.3-0.1,2.5-0.1,3.6
		c0,1.2,0,2.5,0,3.7c0,1.2,0,2.4,0,3.7v24.8c0,1.4,0,2.8,0.1,4.1c0,1.3,0.3,2.3,0.7,2.8c0.6,0.8,1.5,1.5,2.8,1.9
		c1.3,0.4,2.4,0.7,3.5,0.8V59.3z M340.5,59.3h-15.2c-0.4-0.4-0.8-0.8-1-1c-0.2-0.2-0.4-0.5-0.7-0.8c-0.2-0.3-0.6-0.7-0.9-1.3
		c-0.4-0.6-1-1.4-1.7-2.6c-0.9-1.4-1.8-2.6-2.5-3.7c-0.7-1.1-1.4-2.2-2.2-3.3c-0.7-1.1-1.5-2.2-2.4-3.3s-1.9-2.4-3.1-3.7
		c-1-1.1-2.1-2.2-3.2-3.2c-1.2-1-2.4-1.6-3.7-1.8c-0.9-0.2-1.7-0.3-2.2-0.3c-0.4,0-1,0-1.7-0.1v8.4c0,2.4,0,4.4,0.1,6
		c0,1.6,0.1,2.9,0.1,4.1c0,1.1,0.3,2.1,0.8,2.8c0.4,0.6,1.2,1.3,2.3,2c1.1,0.7,2.7,1,4.7,1.1v0.7h-23.7v-0.7
		c1.2-0.2,2.4-0.5,3.6-0.9c1.1-0.4,2-1,2.7-1.8c0.2-0.3,0.4-0.7,0.6-1.3c0.1-0.6,0.3-1.3,0.3-2c0.1-0.7,0.1-1.5,0.2-2.4
		c0-0.8,0.1-1.7,0.1-2.4c0-0.7,0-1.6,0-2.8c0-1.2,0-2.5,0.1-3.9c0-1.4,0-2.8,0-4.3V18c0-0.9,0-1.8,0-2.7c0-0.9-0.1-1.8-0.1-2.6
		s-0.2-1.6-0.4-2.2c-0.2-0.7-0.4-1.1-0.7-1.4c-0.7-0.8-1.6-1.3-2.5-1.6c-0.9-0.3-2-0.5-3.4-0.7V6h3c1.7,0,3.6,0,5.7,0
		c2.1,0,4.3,0,6.4,0h5.2c3.3,0,6.3,0.1,8.8,0.3c2.6,0.2,4.9,0.9,7,2c2.2,1.1,3.9,2.7,5.3,4.6c1.3,1.9,2,4.4,2,7.4
		c0,1.8-0.3,3.5-1,4.9c-0.7,1.5-1.6,2.7-2.7,3.8c-1.1,1.1-2.4,2.1-3.9,2.8s-3,1.5-4.7,2v0.2c0.8,0.4,1.7,1.1,2.4,1.9
		s1.6,1.8,2.3,2.8c1.3,1.9,2.7,3.9,4.2,6.1c1.5,2.2,2.9,4.1,4,5.8c1.8,2.6,3.6,4.4,5.3,5.6c1.7,1.2,3.8,1.9,6.1,2.3V59.3z
		 M319.8,19.8c0-2.5-0.6-4.7-1.9-6.6c-1.2-1.9-3-3.4-5.4-4.6c-1.2-0.5-2.4-0.9-3.7-1.2s-2.7-0.4-4.1-0.4c-1,0-1.9,0-2.5,0.1
		s-1.1,0.1-1.5,0.1c0,0.3-0.1,0.6-0.1,0.8c0,0.2-0.1,0.5-0.1,0.9c0,0.3,0,0.8-0.1,1.4s-0.1,1.5-0.1,2.6c0,1.7-0.1,3.7-0.1,5.8
		c0,2.2,0,4.3,0,6.3v8.1c2,0,3.9-0.1,5.7-0.3s3.5-0.5,5.1-1.1c1.6-0.5,2.9-1.2,4.1-2c1.1-0.8,2.1-1.8,2.8-2.8
		c0.7-1.1,1.2-2.2,1.6-3.4C319.6,22.4,319.8,21.1,319.8,19.8z M439.5,45.2l-3.7,14.1h-45.4v-0.7c1.2-0.2,2.4-0.5,3.5-1
		c1.1-0.4,1.9-1.1,2.6-1.8c0.2-0.3,0.4-0.7,0.6-1.3s0.3-1.2,0.4-2c0.1-0.7,0.2-1.5,0.3-2.3s0.1-1.6,0.1-2.4c0-0.7,0-1.6,0-2.8
		c0-1.2,0-2.5,0.1-3.9s0-2.8,0-4.3c0-1.5,0-3,0-4.3V18c0-0.9,0-1.8,0-2.7c0-0.9-0.1-1.8-0.1-2.7c-0.1-0.8-0.2-1.6-0.4-2.3
		s-0.4-1.1-0.7-1.4c-0.7-0.8-1.5-1.3-2.4-1.5c-0.8-0.2-1.9-0.4-3.3-0.6V6h41l5,12.2l-0.7,0.4c-4-5-7.8-8.3-11.3-10.1
		c-0.8-0.4-2.4-0.7-4.7-1c-2.3-0.3-5-0.4-8.3-0.4c-1,0-2.1,0-3.2,0.1c-1.1,0.1-1.9,0.2-2.4,0.3c-0.1,0.8-0.2,2.4-0.3,4.9
		c-0.1,2.5-0.1,5.3-0.1,8.6c0,1.9,0,3.4,0,4.7c0,1.3,0,2.3,0,3.1c0,0.8,0,1.4,0,1.9c0,0.4,0,0.7,0,0.8c0.2,0,0.7,0,1.5,0
		s1.6,0,2.6-0.1c1,0,1.9-0.1,2.9-0.2c1-0.1,1.8-0.2,2.4-0.3c1.5-0.3,2.7-0.8,3.7-1.4c1-0.6,1.8-1.3,2.4-2.1c0.6-0.8,1.1-1.8,1.5-2.9
		c0.4-1.1,0.7-2.4,1-3.7h0.9V44h-0.9c-0.4-1.6-1-3.2-1.8-4.9c-0.8-1.7-1.7-2.9-2.6-3.8c-0.8-0.7-1.7-1.3-2.9-1.7
		c-1.1-0.4-2.4-0.7-3.9-0.8c-0.7,0-1.4-0.1-1.9-0.1c-0.5,0-1,0-1.5,0c-0.4,0-0.9,0-1.5,0c-0.5,0-1.1,0-1.9,0c-0.1,0.7-0.1,1.7-0.1,3
		c0,1.3,0,2.7,0,4.1c0,0.6,0,1.4,0,2.2c0,0.8,0,1.7,0,2.5c0,0.8,0,1.5,0,2.3c0,0.7,0,1.3,0,1.8c0,1.6,0.1,3.1,0.3,4.5
		c0.1,1.4,0.4,2.5,0.9,3.1c0.4,0.7,1.5,1.2,3.2,1.5c1.7,0.3,3.5,0.4,5.5,0.4c0.8,0,1.9,0,3.2-0.1c1.3,0,2.7-0.2,4.1-0.4
		c1.6-0.2,3-0.6,4.4-1.1c1.3-0.6,2.6-1.4,3.9-2.4c1.2-1,2.4-2.3,3.6-3.8c1.2-1.5,2.4-3.3,3.6-5.4L439.5,45.2z"/>
</g>
</svg>
