<?xml version="1.0" encoding="utf-8"?>
<!-- Generator: Adobe Illustrator 25.2.1, SVG Export Plug-In . SVG Version: 6.00 Build 0)  -->
<svg version="1.1" id="Layer_1" xmlns="http://www.w3.org/2000/svg" xmlns:xlink="http://www.w3.org/1999/xlink" x="0px" y="0px"
	 viewBox="0 0 835.9 174.9" style="enable-background:new 0 0 835.9 174.9;" xml:space="preserve">
<style type="text/css">
	.st0{fill-rule:evenodd;clip-rule:evenodd;fill:#040404;}
	.st1{fill-rule:evenodd;clip-rule:evenodd;fill:#FEFEFE;}
	.st2{fill-rule:evenodd;clip-rule:evenodd;fill:#FDD901;}
</style>
<g>
	<path class="st0" d="M330.6,104.1c4.9,16.3,25.6,21.4,37.5,9.6c1.4-1.4,2.6-3.1,4.5-3.7c3.2-1,6.1-0.4,8.3,2.2
		c2.3,2.6,2.4,6,0.1,9.1c-4.5,6.2-10.8,10-18,12c-15.3,4.2-28.8,0.6-39.2-11.4c-10.4-12-12.2-26-5.6-40.4
		c6.6-14.3,18.4-21.5,34.1-21.9c17.3-0.4,32.9,12.2,36.7,29.1c1.7,7.6-4.5,15.3-12.6,15.4c-13.8,0.1-27.7,0-41.5,0
		C333.5,104.1,332.2,104.1,330.6,104.1z M331.2,89.4c12.8,0,25.4,0.1,38.1,0c3,0,3.9-2.1,2.1-4.7c-4.5-6.6-10.8-10.1-18.8-10.4
		C342.7,74,332.9,80.9,331.2,89.4z"/>
	<path class="st0" d="M665,104.1c-7.2,0-14.5,0.1-21.7-0.1c-2.7-0.1-3.2,0.5-2,3c6.5,14.1,25.6,17.7,36.8,6.9c2-2,4-4.1,7.2-3.9
		c2.7,0.2,4.9,1.2,6.2,3.8c1.4,3,1,5.8-0.9,8.3c-3.8,5-9,8.4-14.8,10.4c-14.8,5.3-28.4,2.6-39.7-8.3c-10.7-10.2-14.1-23.2-10-37.4
		c4.3-14.8,14.5-23.8,29.6-26.8c18.8-3.7,37.7,8.3,42.8,26.8c2.6,9.2-3.4,17.1-12.9,17.2C678.7,104.2,671.8,104.1,665,104.1z
		 M661,89.4c6,0,12,0.1,18,0c3.2,0,4.4-2,2.7-4.5c-4.9-7.2-11.7-11-20.5-10.6c-8.9,0.4-15.3,5-19.6,12.8c-1.2,2.2-0.1,2.4,1.8,2.3
		C649.2,89.4,655.1,89.4,661,89.4z"/>
	<path class="st1" d="M87,1.1c-20.3,0-40.7,0-61,0C11.1,1.1,0.7,11.6,0.7,26.6c0,40.3,0,80.6,0,120.9c0,15.4,9.8,25.9,25.2,26
		c40.7,0.2,81.3,0.2,122,0c15.2-0.1,25.1-10.6,25.1-25.7c0-40.5,0-81.1,0-121.6c0-14.5-10.5-25-25-25C127.6,1.1,107.3,1.1,87,1.1z"
		/>
	<path class="st1" d="M273.1,79.2c-6.5,0-13,0-19.5,0c-5.2,0-8.4,2.9-8.3,7.2c0.1,4.4,3.3,7,8.5,7c10.9,0,21.8,0,32.7,0
		c4.4,0,5.3,1.3,3.8,5.4c-5.4,15-21.1,24.3-37.3,22.2c-19.5-2.5-33-21.1-29.6-40.9c3.3-19.2,22.3-31.9,41.5-27.9
		c6.7,1.4,12.2,4.7,17.2,9.3c4.7,4.3,11,2.4,12.2-3.5c0.7-3.5-1.4-5.8-3.7-7.8c-14.9-12.6-31.8-16.2-50-9.3
		c-18.3,6.9-29,20.7-31.3,40.3c-3,25.9,15.5,49.8,40.9,53.5c26.1,3.8,50.5-13.5,55.3-39.1c1.7-9.3-4.1-16.5-13.6-16.6
		C285.5,79.1,279.3,79.2,273.1,79.2z"/>
	<path class="st1" d="M739.1,59.8c-8.5-0.2-16.2,2.2-23,7.2c-6.6,4.8-9.3,11.6-7.6,19.7c1.6,7.7,6.4,12.8,14.3,14.5
		c8.1,1.8,16.2,3.5,24.4,5.2c2.9,0.6,5.5,1.4,6.1,4.9c0.6,3.6-1.5,5.4-4.3,6.9c-1,0.5-2,1-3,1.3c-9.9,3.4-17.9,0-25-6.8
		c-3.6-3.5-7.8-3.7-10.8-0.8c-2.9,2.8-2.8,7.3,0.1,11c11.9,14.7,37.9,16.8,52,4.1c5.9-5.3,8.4-11.7,6.3-19.5
		c-2.1-7.7-7.3-12.2-15-13.8c-8-1.7-16-3.4-24-5.2c-3-0.7-5.3-2.2-5.6-5.4c-0.3-3.2,1.7-5,4.5-6.4c9.2-4.4,20.3-2.5,27.3,5
		c3.7,3.9,7.9,4.5,11.2,1.5c3.4-3,3.2-7.8-0.6-11.7C758.9,63.8,749.8,59.9,739.1,59.8z"/>
	<path class="st1" d="M793.1,88.9c0.2,5.5-0.5,11.7,1.1,17.9c3.8,15,17.9,27.3,32.5,28.2c4.6,0.3,7.7-2,8.3-5.9
		c0.6-4.3-1.7-7.4-6.3-8.3c-0.8-0.2-1.7-0.3-2.5-0.5c-10.7-2.1-18.7-11.8-18.7-22.7c0-6.9,0.1-13.7-0.1-20.6
		c-0.1-2.3,0.4-3.2,2.9-3.1c5.7,0.2,11.5,0.1,17.3,0.1c4.6,0,7.6-2.8,7.6-7.1c0-4.2-2.9-7-7.6-7c-5.6,0-11.3-0.2-16.9,0.1
		c-2.8,0.1-3.9-0.6-3.7-3.6c0.3-3.9,0.1-7.8,0.1-11.7c-0.1-4.7-2.8-7.6-7.1-7.5c-4.1,0-6.8,2.8-6.9,7.4c0,2.2,0.1,4.4,0,6.6
		c-0.1,2.8,1.1,6.3-0.5,8.2c-1.6,1.8-5.1,0.4-7.7,0.6c-3.9,0.3-6.6,3.1-6.7,6.9c-0.1,3.9,2.8,7,6.7,7.2c1.5,0.1,3,0.2,4.4,0
		c2.9-0.4,4.2,0.4,3.9,3.6C792.8,81,793.1,84.6,793.1,88.9z"/>
	<path class="st1" d="M506.6,67.3c-0.8-0.5-0.4-1.2-0.6-1.7c-0.9-4-3.9-6.2-8.1-5.8c-3.6,0.4-5.9,3.1-5.9,7.1c0,20.3,0,40.6,0,60.9
		c0,3.2,1.5,5.4,4.3,6.6c4.9,2,9.7-1.4,9.7-7c0.1-9.4,0.1-18.8,0-28.3c0-2.8,0.3-5.6,1.1-8.3c2.7-9.1,9-14.2,18-16.4
		c4.8-1.2,6.9-4.6,5.8-9c-1-3.9-4.7-5.8-9.2-4.9C516.1,61.6,511.2,64.2,506.6,67.3z"/>
	<path class="st2" d="M87,1.1c20.3,0,40.7,0,61,0c14.5,0,25,10.5,25,25c0,40.5,0,81.1,0,121.6c0,15.1-9.9,25.6-25.1,25.7
		c-40.7,0.2-81.3,0.2-122,0c-15.4-0.1-25.2-10.6-25.2-26c0-40.3,0-80.6,0-120.9c0-15,10.4-25.5,25.3-25.5C46.3,1.1,66.6,1.1,87,1.1z
		 M86.7,126.1c34.7,0,62.8-28,62.3-62.2c-0.1-5.4-3.3-8.7-8.7-8.8c-7.3-0.1-14.7-0.1-22,0c-5.4,0.1-9,3.5-9.1,8.5
		c-0.1,5,3.3,8.7,8.6,9.1c2.9,0.2,5.9,0.3,8.8,0c3.3-0.3,3.9,0.7,3,3.9c-5.3,18.1-22.8,31.6-41.8,31.8c-23.7,0.3-44.3-18.6-45-43.5
		c-0.2-6.2-3.9-10-9.1-9.8c-5.5,0.2-8.7,4.2-8.6,10.6C25.8,98.9,53.5,126,86.7,126.1z"/>
	<path class="st0" d="M273.1,79.2c6.2,0,12.5,0,18.7,0c9.5,0.1,15.4,7.3,13.6,16.6c-4.8,25.6-29.2,42.8-55.3,39.1
		c-25.4-3.7-43.9-27.6-40.9-53.5c2.3-19.6,13-33.4,31.3-40.3c18.2-6.9,35.1-3.2,50,9.3c2.4,2,4.5,4.3,3.7,7.8
		c-1.2,5.9-7.5,7.7-12.2,3.5c-5-4.5-10.5-7.8-17.2-9.3c-19.1-4.1-38.2,8.7-41.5,27.9c-3.4,19.7,10.1,38.4,29.6,40.9
		c16.2,2.1,31.9-7.2,37.3-22.2c1.5-4.1,0.7-5.4-3.8-5.4c-10.9-0.1-21.8,0-32.7,0c-5.2,0-8.4-2.7-8.5-7c-0.1-4.3,3.2-7.2,8.3-7.2
		C260.1,79.1,266.6,79.2,273.1,79.2z"/>
	<path class="st0" d="M554.6,127.3c-0.1,0.5-0.3,0.9-0.4,1.4c-1.1,4.6-3.8,6.7-8,6.2c-3.7-0.4-6.1-3.3-6.1-7.8c0-14.6,0-29.1,0-43.7
		c0-12.7,0-25.5,0-38.2c0-4.4,2.1-7.3,5.6-8c4.8-1,8.6,2.2,8.6,7.4c0.1,7.5,0,14.9,0,23.2c9.2-7,19.3-9.2,30-7.6
		c10.8,1.7,19.3,7.4,25.4,16.5c9.4,14.2,7.6,33.8-3.9,46.2C592.3,137.1,575.2,138.7,554.6,127.3z M600.9,97.2
		c0-12.6-10.2-22.9-22.8-22.9c-12.5,0-23,10.4-23.1,22.8c-0.1,13.1,10.3,23.6,23.1,23.5C590.9,120.4,600.9,110.2,600.9,97.2z"/>
	<path class="st0" d="M459.5,67.5c0.7-5,2.8-7.4,6.7-7.7c4.2-0.3,7.5,2.4,7.6,6.6c0.1,20.7,0.1,41.4,0.1,62.1c0,3.2-2.5,5.9-5.6,6.4
		c-3.5,0.6-6.5-0.9-7.8-4.1c-0.5-1.1-0.7-2.3-1-3.4c-22,11.6-40.6,9.2-53.3-6.9c-11.3-14.3-10.6-34.5,1.8-48.5
		C418.1,60.6,439,53,459.5,67.5z M435.8,120.3c13,0,23.2-10,23.2-22.8c0.1-12.8-10.1-23.1-22.9-23.3c-12.8-0.1-23.3,10.4-23.3,23.3
		C412.9,110.2,423.1,120.3,435.8,120.3z"/>
	<path class="st0" d="M739.1,59.8c10.7,0.1,19.7,4.1,27.1,11.7c3.8,3.9,3.9,8.6,0.6,11.7c-3.3,3-7.6,2.4-11.2-1.5
		c-6.9-7.4-18.1-9.4-27.3-5c-2.8,1.4-4.8,3.2-4.5,6.4c0.3,3.2,2.7,4.8,5.6,5.4c8,1.7,16,3.5,24,5.2c7.7,1.7,13,6.2,15,13.8
		c2.1,7.7-0.4,14.2-6.3,19.5c-14.1,12.6-40,10.5-52-4.1c-3-3.6-3-8.2-0.1-11c3-2.9,7.1-2.7,10.8,0.8c7.1,6.8,15.1,10.3,25,6.8
		c1-0.4,2-0.8,3-1.3c2.7-1.5,4.8-3.3,4.3-6.9c-0.6-3.5-3.2-4.3-6.1-4.9c-8.1-1.7-16.3-3.4-24.4-5.2c-7.8-1.8-12.7-6.8-14.3-14.5
		c-1.7-8,1-14.8,7.6-19.7C722.9,62,730.6,59.5,739.1,59.8z"/>
	<path class="st0" d="M793.1,88.9c0-4.3-0.3-7.9,0.1-11.4c0.3-3.2-0.9-4-3.9-3.6c-1.4,0.2-2.9,0.1-4.4,0c-3.9-0.2-6.8-3.3-6.7-7.2
		c0.1-3.8,2.8-6.6,6.7-6.9c2.6-0.2,6.1,1.2,7.7-0.6c1.7-1.9,0.4-5.4,0.5-8.2c0.1-2.2,0-4.4,0-6.6c0.1-4.5,2.7-7.3,6.9-7.4
		c4.3,0,7,2.8,7.1,7.5c0,3.9,0.2,7.8-0.1,11.7c-0.2,3,0.9,3.7,3.7,3.6c5.6-0.2,11.3-0.1,16.9-0.1c4.7,0,7.6,2.8,7.6,7
		c0,4.2-3,7-7.6,7.1c-5.8,0-11.5,0.1-17.3-0.1c-2.5-0.1-3,0.8-2.9,3.1c0.1,6.9,0,13.7,0.1,20.6c0,11,8,20.6,18.7,22.7
		c0.8,0.2,1.7,0.3,2.5,0.5c4.6,1,6.9,4,6.3,8.3c-0.6,3.9-3.7,6.2-8.3,5.9c-14.6-0.8-28.7-13.1-32.5-28.2
		C792.6,100.6,793.3,94.4,793.1,88.9z"/>
	<path class="st0" d="M506.6,67.3c4.6-3.1,9.6-5.7,15.2-6.8c4.6-0.9,8.3,1,9.2,4.9c1.1,4.4-1,7.8-5.8,9c-9,2.3-15.3,7.4-18,16.4
		c-0.8,2.7-1.1,5.5-1.1,8.3c0.1,9.4,0.1,18.8,0,28.3c-0.1,5.6-4.9,9-9.7,7c-2.9-1.2-4.3-3.4-4.3-6.6c0-20.3,0-40.6,0-60.9
		c0-4,2.3-6.7,5.9-7.1c4.1-0.4,7.1,1.7,8.1,5.8C506.1,66.1,505.8,66.8,506.6,67.3z"/>
	<path class="st0" d="M86.7,126.1c-33.2,0-60.9-27.2-61.6-60.4c-0.1-6.4,3.1-10.4,8.6-10.6c5.2-0.1,8.9,3.6,9.1,9.8
		c0.7,24.9,21.3,43.7,45,43.5c19-0.2,36.5-13.6,41.8-31.8c0.9-3.2,0.2-4.1-3-3.9c-2.9,0.2-5.9,0.2-8.8,0c-5.3-0.4-8.7-4-8.6-9.1
		c0.1-5,3.6-8.4,9.1-8.5c7.3-0.1,14.7-0.1,22,0c5.4,0.1,8.6,3.4,8.7,8.8C149.5,98,121.4,126.1,86.7,126.1z"/>
</g>
</svg>
