<?xml version="1.0" encoding="utf-8"?>
<!-- Generator: Adobe Illustrator 25.2.1, SVG Export Plug-In . SVG Version: 6.00 Build 0)  -->
<svg version="1.1" id="Layer_1" xmlns="http://www.w3.org/2000/svg" xmlns:xlink="http://www.w3.org/1999/xlink" x="0px" y="0px"
	 viewBox="0 0 850.3 174.9" style="enable-background:new 0 0 850.3 174.9;" xml:space="preserve">
<style type="text/css">
	.st0{fill:url(#SVGID_1_);}
</style>
<g transform="matrix(0.16,0,0,0.159836,0,0)">
	
		<linearGradient id="SVGID_1_" gradientUnits="userSpaceOnUse" x1="-1315.5199" y1="3761.6975" x2="-1314.8688" y2="3761.6975" gradientTransform="matrix(1.204618e-14 -196.7288 -196.5272 -1.203384e-14 741935.1875 -257965.25)">
		<stop  offset="0" style="stop-color:#04B6F0"/>
		<stop  offset="1" style="stop-color:#3ECAF0"/>
	</linearGradient>
	<path class="st0" d="M572.4,562.4c0,77.8-23.1,143.3-69.5,196.3c-48.4,55.6-111.4,83.4-188.4,83.4c-77.2,0-140-27.9-188.4-83.4
		c-46.4-53-69.7-118.5-69.7-196.3c0-78,23.3-143.5,69.7-196.3c49-55,111.9-82.5,188.4-82.5c77,0,140,27.5,188.4,82.5
		C549.3,419,572.4,484.5,572.4,562.4z M419.1,562.4c0-35.2-8.4-65-25.3-89c-18.9-27.3-45.3-40.9-79.2-40.9
		c-33.9,0-60.4,13.6-79.3,40.9c-17.1,24-25.5,53.8-25.5,89c0,35,8.4,65.1,25.5,89.9c18.9,27.3,45.3,40.9,79.3,40.9
		c33.9,0,60.4-13.6,79.2-40.9C410.6,627.5,419.1,597.5,419.1,562.4z M1127,562.4c0,72.6-20.9,136.1-62.9,190.4
		c-44.9,59.4-102.9,89.3-173.3,89.3c-49.7,0-91.9-14.5-126.4-43.1c0,6.6,0.7,22.6,2.2,48.1c1.5,25.7,2.2,46.6,2.2,63.1
		c0,91.2-27.1,136.7-81.4,136.7c-22.2,0-40.4-7.9-54.9-23.5c-14.3-15.8-21.5-34.7-21.5-57V373.3c0-21.6,7.3-40.4,22-56.1
		c14.7-15.6,32.8-23.5,54.5-23.5c32.6,0,56.5,16.3,71.5,48.8c32.1-39.3,75.9-58.9,131.5-58.9c70.6,0,128.4,29.3,173.5,88.2
		C1105.9,426.3,1127,489.8,1127,562.4z M973.6,562.4c0-35.2-8.6-65-25.5-89c-18.9-27.3-45.3-40.9-79.3-40.9
		c-33.9,0-60.3,13.6-79.2,40.9c-16.9,24-25.3,53.8-25.3,89c0,35,8.4,65.1,25.3,89.9c18.9,27.3,45.3,40.9,79.2,40.9
		c33.9,0,60.3-13.6,79.3-40.9C965,627.5,973.6,597.5,973.6,562.4z M1685,545.9c0,25.7-6.1,43.3-18.2,53.2
		c-12.1,9.7-31,14.7-56.5,14.7h-276.8c0,29.4,13.8,51.9,41.3,67.7c22.2,12.3,49.3,18.6,81.4,18.6c25,0,54.9-8.3,89.9-24.6
		c35-16.5,57.6-24.6,67.3-24.6c17.8,0,32.8,6.4,45.3,19.6c12.3,13,18.5,28.8,18.5,47c0,42-31.4,74.7-94.1,98.1
		c-47.9,17.6-96.5,26.6-146.2,26.6c-80,0-144.6-26.6-193.9-79.6c-49.4-53-74.1-119.6-74.1-200.1c0-76.7,25.7-142.2,77-196.8
		c51.2-54.7,114.8-82,190.8-82c70.6,0,129.7,25.9,177,77.6C1661.1,412.9,1685,474.6,1685,545.9z M1531.6,507.4
		c-0.7-23.5-11.6-44.8-32.5-64c-20.9-19.2-43.1-28.8-66.6-28.8c-24.2,0-46.8,9.5-67.7,28.8c-20.9,19.3-31.4,40.5-31.4,64H1531.6z
		 M2200.3,751.5c0,22.4-7.1,41.3-21.4,57.1c-14.5,15.6-32.7,23.5-54.9,23.5c-53.6,0-80.4-42.6-80.4-127.5c0-16.3,1.1-42,3.3-77.4
		c2.4-35.2,3.5-61.1,3.5-77.4c0-90.1-29.2-135.2-87.3-135.2c-58.2,0-87.1,45.1-87.1,135.2c0,16.3,0.9,42.2,2.6,77.4
		c1.8,35.4,2.8,61.1,2.8,77.4c0,84.9-26.4,127.5-79.2,127.5c-22.2,0-40.4-7.9-54.7-23.5c-14.5-15.8-21.6-34.7-21.6-57.1V373.1
		c0-22.2,7.2-41.1,21.6-56.3c14.3-15.4,32.7-23.1,54.9-23.1c36.7,0,62.2,16.3,76.5,48.8c24.8-39.3,68.6-58.9,131.3-58.9
		c58.1,0,104.4,15.4,138.3,46c34.7,32.9,51.9,78,51.9,135.4V751.5z M2681.4,735.2c0,34.7-22.5,62.2-67.7,82.4
		c-35.8,16.3-74.6,24.7-113.9,24.6c-77.3,0-140-27.9-188.4-83.4c-46.4-53-69.7-118.5-69.7-196.3c0-78,23.7-143.8,71.2-197.8
		c47.5-54.1,109.7-81.1,186.9-81.1c44.6,0,82.9,6.6,114.8,19.6c44.5,17.6,66.7,45.1,66.7,82.5c0,18.9-5.9,35.6-17.6,50.1
		c-11.7,14.3-26.8,21.6-45.1,21.6c-12.5,0-30.5-4.2-53.9-12.5c-23.5-8.5-42.2-12.5-55.9-12.5c-36.5,0-65,13-85.3,39.1
		c-18.9,23.5-28.4,53.6-28.4,90.8c0,35,8.4,64.8,25.5,88.8c18.9,28.1,45.5,42,79.4,42c15.1,0,35.6-4.4,61.8-13.4
		c26.3-8.8,45.2-13.4,56.9-13.4c17.1,0,31.7,7.3,44.2,21.6C2675.2,702.6,2681.4,718.2,2681.4,735.2z M3238.9,751.5
		c0,22.4-7.1,41.3-21.5,57.1c-14.5,15.6-32.8,23.5-55,23.5c-33.4,0-57.2-16.3-71.5-48.8c-32.1,39.3-75.9,58.9-131.5,58.9
		c-71.2,0-129.5-29.9-174.6-89.3c-41.1-54.3-61.8-117.8-61.8-190.4c0-72.6,20.7-136.1,61.8-190.6c45.9-58.9,104-88.2,174.6-88.2
		c55.6,0,99.4,19.6,131.5,58.9c14.3-32.5,38.1-48.8,71.5-48.8c21.7,0,39.8,7.9,54.5,23.5c14.6,15.8,22,34.3,22,56V751.5z
		 M3085.5,562.4c0-35.2-8.4-65-25.3-89c-19.6-27.3-46-40.9-79.2-40.9c-33.9,0-60.3,13.6-79.3,40.9c-17,24-25.5,53.8-25.5,89
		c0,35,8.2,65.1,24.5,89.9c19.5,27.3,46.3,40.9,80.2,40.9c33.9,0,60.3-13.6,79.2-40.9C3077.1,627.5,3085.5,597.5,3085.5,562.4z
		 M3630.2,363c0,32.8-16,55.4-47.9,67.7c-29.5,9.9-58.9,20-88.2,30.5c-32.1,18.4-48.1,52.5-48.1,102v188.4
		c0,22.4-7.4,41.3-21.6,57.1c-14.5,15.6-32.9,23.5-55,23.5c-22.4,0-40.7-7.9-55-23.5c-14.5-15.8-21.7-34.7-21.7-57.1V373.1
		c0-22.2,7.1-41.1,21.5-56.3c14.5-15.4,32.9-23.1,55-23.1c36.7,0,62.2,16.3,76.5,48.8c32.8-39.3,68.1-58.9,106-58.9
		c21.6,0,40.2,7.9,55.6,23.5C3622.4,322.9,3630.2,341.6,3630.2,363z M4030.2,370c0,34.1-13.4,55.6-40,64.8c-13.1,4.6-40.4,7-82,7
		v309.8c0,22.4-7.3,41.3-21.6,57.1c-14.5,15.6-32.9,23.5-55,23.5c-21.6,0-40-7.9-54.7-23.5c-14.6-15.8-22-34.7-22-57.1V441.7
		c-31.6,0-54.5-4-69-11.9c-19.8-11-29.6-31-29.6-59.8c0-28.8,10.1-48.4,30.5-58.9c13.8-7.7,36.5-11.7,68.1-11.7v-65.7
		c0-77.2,25.5-115.7,76.7-115.7c51,0,76.7,38.5,76.7,115.7v65.7c41.6,0,69,2.4,82,7C4016.9,315.5,4030.2,336.8,4030.2,370z
		 M5262.3,276.9c-0.4-47.1-87.4-68.5-312.7-68.5c-528.5,0-662.5-22.6-806-173.6c60.4,90.7,93.4,260.7,652,252.2
		c582.8-9,227.3,150.3,123.8,330.2c186.6-166.5,342.3-276.3,342.9-339.7V276.9z M4519.7,760.4c0,43.8-36,79.8-79.8,79.8
		c-44.2,0-80-35.7-80-79.8c0,0,0,0,0-0.1c0-43.8,36.1-79.9,79.9-79.9c0,0,0,0,0,0C4483.9,680.4,4519.7,716.1,4519.7,760.4z
		 M4883.6,760.4c0,43.8-36,79.8-79.8,79.8c-44.2,0-79.9-35.7-79.9-79.8c0,0,0,0,0-0.1c0-43.8,36.1-79.9,79.9-79.9c0,0,0,0,0,0
		C4847.9,680.4,4883.6,716.1,4883.6,760.4z"/>
</g>
</svg>
