<?xml version="1.0" encoding="utf-8"?>
<!-- Generator: Adobe Illustrator 25.2.1, SVG Export Plug-In . SVG Version: 6.00 Build 0)  -->
<svg version="1.1" id="Layer_1" xmlns="http://www.w3.org/2000/svg" xmlns:xlink="http://www.w3.org/1999/xlink" x="0px" y="0px"
	 viewBox="0 0 580.5 129.8" style="enable-background:new 0 0 580.5 129.8;" xml:space="preserve">
<g>
	<path d="M488.5,2.5L488.5,2.5c0.3,0.3,0.6,0.6,1,1c21.4,19.8,42.8,39.6,64.2,59.4c0-18.9,0-38,0-56.9c8.3,0,16.6,0,24.9,0
		c0,39.9,0,79.6,0,119.5c-21.7-20.1-43.5-40.6-65.5-60.7c0,18.9,0,37.7,0,56.6c-8.3,0-16.3,0-24.6,0C488.5,82,488.5,42.1,488.5,2.5
		L488.5,2.5z"/>
	<path d="M8.6,21c6.7-9.9,18.5-15.3,30-16.6c17.6-1.6,36.7,1.3,50.5,13.4c-5.8,5.4-11.8,10.5-17.6,16c-6.4-5.8-15-8.6-23.6-8.6
		c-6.4-0.3-13.1,1.9-16.6,7.3c-2.6,3.8-1.6,9.6,1.9,12.5c5.7,4.8,13.1,7,20.1,9.6c10.2,3.2,20.4,6.7,28.8,13.7
		c11.5,9.3,14.1,28.1,5.1,39.9c-7.7,10.2-20.1,15.7-32.6,16.6c-11.2,0.3-22.4,0-32.9-3.8c-8-2.6-15-7-21.7-11.8
		c5.7-5.4,11.8-10.9,17.6-16.3c9.9,7.7,22.7,11.8,35.1,10.2c5.4-1,11.2-3.8,13.1-9.3c1.3-4.8-1.6-9.6-5.8-11.8
		c-12.8-7.3-27.8-8.9-40.3-16.9C13.1,60.9,7.3,54.5,5.1,46.9C2.6,37.9,3.5,28.3,8.6,21L8.6,21z"/>
	<path d="M135.2,6.3c8.3,0,16.6,0,24.9,0c0,15.3,0,30.4,0,45.7c16.9,0,33.6,0,50.5,0c0-15.3,0-30.4,0-45.7c8.3,0,16.9,0,25.2,0
		c0,38.7,0,77,0,115.7c-8.3,0-16.9,0-25.2,0c0-16.9,0-34.2,0-51.1c-16.9,0-33.5,0-50.5,0c0,16.9,0,34.2,0,51.1c-8.3,0-16.6,0-24.9,0
		C135.2,83.6,135.2,44.9,135.2,6.3L135.2,6.3z"/>
	<path d="M284.7,6.3c28.4,0,56.6,0,85,0c0,6.1,0,12.5,0,18.5c-20.1,0-40.3,0-60.4,0c0,9.3,0,18.2,0,27.5c19.8,0,39.6,0,59.4,0
		c0,6.1,0,12.1,0,18.2c-19.8,0-39.6,0-59.4,0c0,10.5,0,21.1,0,31.6c20.1,0,40.3,0,60.4,0c0,6.7,0,13.1,0,19.8c-28.4,0-56.6,0-85,0
		C284.7,83.6,284.7,44.9,284.7,6.3L284.7,6.3z"/>
	<path d="M414.1,6.3c8.3,0,16.6,0,24.9,0c0,38.7,0,77,0,115.7c-8.3,0-16.6,0-24.9,0C414.1,83.6,414.1,44.9,414.1,6.3L414.1,6.3z"/>
</g>
</svg>
