<svg id="Layer_1" data-name="Layer 1" xmlns="http://www.w3.org/2000/svg" viewBox="0 0 580.48 165.82"><defs><style>.cls-1{fill:#95bf47;}.cls-2{fill:#5e8e3e;}.cls-3{fill:#fff;}</style></defs><title>shopify</title><path class="cls-1" d="M124.69,86.32A1.56,1.56,0,0,0,123.28,85l-13-1-9.59-9.53c-1-1-2.8-.66-3.52-.45l-4.84,1.5c-2.89-8.31-8-15.94-17-15.94l-.75,0c-2.55-3.37-5.71-4.84-8.44-4.84-20.88,0-30.85,26.11-34,39.37L17.56,98.69c-4.52,1.42-4.67,1.57-5.26,5.83C11.85,107.76,0,199.4,0,199.4l92.34,17.3,50-10.83Zm-37.5-9.19-7.81,2.41c0-.55,0-1.09,0-1.68a38.37,38.37,0,0,0-1.87-12.62C82.14,65.82,85.22,71.08,87.19,77.13ZM71.79,66.27c1.29,3.21,2.12,7.83,2.12,14.06v.91l-16.14,5C60.88,74.24,66.7,68.45,71.79,66.27Zm-6.2-5.87a4.71,4.71,0,0,1,2.68.9c-6.7,3.15-13.87,11.08-16.9,26.92l-12.75,4C42.17,80.09,50.59,60.4,65.59,60.4Z" transform="translate(0 -54.79)"/><path class="cls-2" d="M123.28,85l-13-1-9.59-9.53a2.44,2.44,0,0,0-1.34-.61l-7,142.81,50-10.83L124.69,86.32A1.56,1.56,0,0,0,123.28,85Z" transform="translate(0 -54.79)"/><path class="cls-3" d="M75.35,112.65,69.19,131a28.38,28.38,0,0,0-12-2.89c-9.71,0-10.2,6.1-10.2,7.64C47,144.13,68.8,147.34,68.8,167c0,15.44-9.8,25.39-23,25.39-15.85,0-23.95-9.86-23.95-9.86l4.24-14s8.33,7.16,15.37,7.16a6.2,6.2,0,0,0,6.46-6.26C47.91,158.43,30,158,30,140c0-15.12,10.86-29.75,32.76-29.75C71.18,110.23,75.35,112.65,75.35,112.65Z" transform="translate(0 -54.79)"/><path id="s" d="M200.69,147.05c-5-2.71-7.55-5-7.55-8.13,0-4,3.56-6.55,9.12-6.55a32.65,32.65,0,0,1,12.26,2.7l4.56-14s-4.19-3.28-16.54-3.28c-17.17,0-29.08,9.84-29.08,23.67,0,7.84,5.56,13.83,13,18.1,6,3.43,8.12,5.85,8.12,9.41,0,3.71-3,6.7-8.55,6.7-8.29,0-16.11-4.27-16.11-4.27l-4.85,14s7.23,4.85,19.39,4.85c17.68,0,30.37-8.7,30.37-24.38C214.81,157.46,208.39,151.47,200.69,147.05Z" transform="translate(0 -54.79)"/><path id="h" d="M271.12,117.68c-8.7,0-15.54,4.14-20.82,10.41L250,128l7.55-39.49H237.9L218.8,189h19.67L245,154.61c2.56-13,9.27-21,15.54-21,4.42,0,6.13,3,6.13,7.27a45,45,0,0,1-.86,8.7L258.43,189H278.1l7.7-40.63a73,73,0,0,0,1.43-12.83C287.23,124.38,281.38,117.68,271.12,117.68Z" transform="translate(0 -54.79)"/><path id="o" d="M331.71,117.68c-23.67,0-39.35,21.39-39.35,45.19,0,15.26,9.41,27.52,27.09,27.52,23.23,0,38.92-20.82,38.92-45.19C358.37,131.08,350.1,117.68,331.71,117.68Zm-9.7,57.6c-6.7,0-9.55-5.71-9.55-12.83,0-11.27,5.85-29.66,16.54-29.66,7,0,9.27,6,9.27,11.84C338.27,156.74,332.42,175.28,322,175.28Z" transform="translate(0 -54.79)"/><path id="p" d="M408.69,117.68c-13.28,0-20.81,11.69-20.81,11.69h-.29l1.14-10.55H371.34c-.85,7.13-2.42,18-4,26.09l-13.69,72h19.68l5.41-29.09h.43s4,2.57,11.55,2.57c23.09,0,38.21-23.67,38.21-47.62C428.94,129.51,423.09,117.68,408.69,117.68Zm-18.82,57.88a12.49,12.49,0,0,1-8.12-2.85L385,154.32c2.28-12.26,8.69-20.39,15.54-20.39,6,0,7.84,5.56,7.84,10.84C408.41,157.46,400.85,175.56,389.87,175.56Z" transform="translate(0 -54.79)"/><path id="dot" d="M457,89.45a11.23,11.23,0,0,0-11.26,11.41c0,5.84,3.71,9.84,9.27,9.84h.28c6.13,0,11.41-4.14,11.55-11.41C466.86,93.59,463,89.45,457,89.45Z" transform="translate(0 -54.79)"/><polygon id="i" points="429.51 134.17 449.18 134.17 462.58 64.46 442.77 64.46 429.51 134.17"/><path id="f" d="M512.62,119.11H498.93l.72-3.28c1.14-6.7,5.13-12.69,11.69-12.69a20.46,20.46,0,0,1,6.27,1l3.85-15.4S518,87,510.77,87c-7,0-14,2-19.25,6.56-6.7,5.7-9.84,14-11.4,22.24l-.57,3.28h-9.13l-2.85,14.82h9.12l-10.4,55H486l10.41-55h13.54Z" transform="translate(0 -54.79)"/><path id="y" d="M560,119.25s-12.3,31-17.82,47.9h-.28c-.38-5.44-4.85-47.9-4.85-47.9H516.33l11.83,64a4.21,4.21,0,0,1-.43,3.28A33.6,33.6,0,0,1,517,198.37a42.56,42.56,0,0,1-11.12,5.56l5.42,16.68c4-.85,12.26-4.13,19.24-10.69,9-8.41,17.25-21.39,25.81-39.06l24.09-51.61Z" transform="translate(0 -54.79)"/></svg>