<?xml version="1.0" encoding="utf-8"?>
<!-- Generator: Adobe Illustrator 25.2.1, SVG Export Plug-In . SVG Version: 6.00 Build 0)  -->
<svg version="1.1" id="Layer_1" xmlns="http://www.w3.org/2000/svg" xmlns:xlink="http://www.w3.org/1999/xlink" x="0px" y="0px"
	 viewBox="0 0 445 74.1" style="enable-background:new 0 0 445 74.1;" xml:space="preserve">
<path d="M21.1,39.4l24.5-24.5c3.4-3.4,9-3.4,12.5,0l1.9,1.9l3.8-3.8l-1.9-1.9c-5.6-5.6-14.6-5.6-20.1,0L17.3,35.6L21.1,39.4z"/>
<path d="M53.9,23L50,19.2L25.5,43.7c-3.5,3.4-9,3.4-12.5,0s-3.4-9,0-12.5l0,0L34.2,10l-3.8-3.8L9.2,27.4C3.6,32.9,3.5,41.9,9,47.5
	s14.5,5.7,20.1,0.2c0.1-0.1,0.2-0.2,0.2-0.2L53.9,23z M78.3,27.4c-5.6-5.5-14.6-5.5-20.1,0L33.6,51.9l3.8,3.8L62,31.2
	c3.5-3.4,9-3.4,12.5,0c1.7,1.7,2.6,3.9,2.6,6.2c0,2.3-0.9,4.6-2.6,6.2L53.3,64.9l3.8,3.8l21.2-21.2C83.8,42,83.8,33,78.3,27.4z"/>
<path d="M66.4,35.5L41.8,60c-3.5,3.4-9,3.4-12.5,0l-1.9-1.9l-3.8,3.8l1.9,1.9c5.6,5.5,14.6,5.5,20.1,0l24.5-24.5L66.4,35.5z"/>
<path d="M104.9,44.1c0.3,1.5,1,2.8,2.2,3.7c1.3,0.9,3,1.4,4.6,1.3c1.6,0.1,3.1-0.4,4.4-1.3c1-0.8,1.6-2.1,1.5-3.4
	c0-0.6-0.1-1.2-0.4-1.7c-0.3-0.5-0.7-0.9-1.1-1.2c-0.6-0.4-1.2-0.7-1.8-0.9l-2.4-0.7l-2.3-0.6c-1.3-0.3-2.5-0.8-3.7-1.4
	c-1-0.5-2-1.1-2.8-1.9c-0.7-0.7-1.3-1.5-1.7-2.5c-0.4-1-0.6-2.1-0.6-3.3c0-1.2,0.3-2.5,0.8-3.6c0.5-1.1,1.3-2,2.2-2.8
	c1-0.8,2.2-1.5,3.5-1.8c1.5-0.5,3-0.7,4.6-0.7c3.2,0,5.7,0.8,7.6,2.3c1.9,1.5,3.1,3.7,3.3,6.1l-5.2,0.4c-0.3-1.2-0.9-2.3-1.9-3
	c-1.2-0.8-2.6-1.2-4-1.1c-1.3-0.1-2.6,0.3-3.7,1.1c-0.9,0.7-1.4,1.7-1.3,2.8c0,0.6,0.1,1.2,0.4,1.7c0.3,0.5,0.7,0.9,1.1,1.2
	c0.6,0.4,1.2,0.7,1.8,0.9c0.7,0.3,1.5,0.5,2.4,0.8l2.2,0.7c1.4,0.4,2.6,0.9,3.7,1.4c1,0.4,2,1,2.8,1.7c0.8,0.6,1.4,1.5,1.8,2.4
	c0.4,1.1,0.7,2.2,0.6,3.4c0,1.4-0.3,2.7-0.9,4c-0.6,1.2-1.4,2.2-2.4,3c-1.1,0.9-2.4,1.5-3.7,1.9c-1.5,0.5-3.1,0.7-4.7,0.7
	c-2.8,0.1-5.6-0.7-8-2.2c-2.2-1.6-3.7-4.1-4-6.8L104.9,44.1z M145.3,21.3c2.2,0,4.4,0.4,6.4,1.2c1.9,0.7,3.5,1.9,4.9,3.3
	c1.4,1.5,2.5,3.2,3.2,5.1c0.8,2.1,1.1,4.3,1.1,6.5c0,2.3-0.4,4.5-1.2,6.6c-0.8,1.9-1.9,3.7-3.4,5.1l4.1,4.8v1.5h-5.2l-2.9-3.5
	c-1,0.5-2.1,0.9-3.3,1.2c-1.2,0.3-2.5,0.4-3.7,0.4c-2.2,0-4.4-0.4-6.5-1.3c-1.8-0.7-3.5-1.9-4.9-3.3c-1.4-1.5-2.4-3.2-3.1-5.1
	c-0.8-2.1-1.1-4.3-1.1-6.5c0-2.2,0.4-4.4,1.1-6.5c0.7-1.9,1.7-3.6,3.1-5.1c1.4-1.4,3-2.6,4.9-3.3C140.9,21.7,143.1,21.3,145.3,21.3z
	 M145.2,26c-1.4,0-2.9,0.3-4.2,0.9c-1.2,0.6-2.3,1.4-3.1,2.4c-0.9,1.1-1.5,2.3-1.9,3.6c-0.5,1.5-0.7,3-0.7,4.5
	c0,1.6,0.2,3.1,0.7,4.6c0.4,1.3,1.1,2.6,2,3.7c0.8,1,1.9,1.9,3.1,2.4c1.3,0.6,2.7,0.9,4.2,0.9c1.4,0,2.9-0.3,4.2-0.9
	c1.2-0.5,2.3-1.3,3.1-2.4c0.9-1.1,1.6-2.3,2-3.6c0.5-1.5,0.7-3.1,0.7-4.7c0-1.6-0.2-3.1-0.7-4.6c-0.4-1.3-1.1-2.6-2-3.6
	c-0.9-1-1.9-1.8-3.1-2.4C148.1,26.3,146.7,26,145.2,26z M181.4,49.2c2,0.1,3.9-0.6,5.2-2.1c1.2-1.4,1.9-3.5,1.9-6.3V21.9h5.4V41
	c0,2-0.3,3.9-0.9,5.8c-0.5,1.5-1.3,2.8-2.5,3.9c-1.1,1.1-2.5,1.8-3.9,2.2c-3.4,0.9-7,0.9-10.4,0c-1.5-0.4-2.8-1.2-3.9-2.2
	c-1.1-1.1-2-2.4-2.5-3.9c-0.6-1.9-0.9-3.8-0.9-5.8V21.9h5.4v18.9c0,2.8,0.6,4.9,1.9,6.3C177.6,48.6,179.5,49.3,181.4,49.2z
	 M199.3,51.5l11-29.5h8.2l10.9,29.5V53H224l-3.1-8.9h-13.4l-3.2,8.9h-5L199.3,51.5z M209.1,39.5h10.2l-1.7-4.9
	c-0.7-1.9-1.2-3.5-1.6-4.7c-0.4-1.2-0.8-2.3-1.1-3.2h-1.3l-0.5,1.5c-0.2,0.5-0.4,1-0.6,1.6s-0.5,1.3-0.7,2.1
	c-0.3,0.8-0.6,1.7-0.9,2.7L209.1,39.5z M259.8,53h-5.2l-9.5-12.2h-3.5V53h-5.4v-31h10.1c1.5,0,3,0.1,4.5,0.3
	c1.4,0.2,2.7,0.7,3.9,1.5c2.4,1.6,3.7,4,3.7,7.3c0,1.3-0.2,2.5-0.6,3.7c-0.4,1-0.9,1.9-1.7,2.7c-0.7,0.7-1.5,1.3-2.4,1.8
	c-0.9,0.5-1.8,0.8-2.8,1l8.9,11.2V53z M241.6,36.1h4.7c1.7,0.1,3.4-0.3,4.9-1.1c1.2-0.8,1.9-2.2,1.8-3.7c0.1-1.5-0.6-2.9-1.8-3.6
	c-1.5-0.8-3.2-1.1-4.9-1h-4.7V36.1z M266.7,21.9h20.1v4.8H272v8.1h13.7v4.7H272v8.7h15.1V53h-20.4V21.9z M299.1,44.1
	c0.3,1.5,1,2.8,2.2,3.7c1.3,0.9,3,1.4,4.6,1.3c1.6,0.1,3.1-0.4,4.4-1.3c1-0.8,1.6-2.1,1.5-3.4c0-0.6-0.1-1.2-0.4-1.7
	c-0.3-0.5-0.7-0.9-1.1-1.2c-0.6-0.4-1.2-0.7-1.8-0.9l-2.4-0.7l-2.3-0.6c-1.3-0.3-2.5-0.8-3.7-1.4c-1-0.5-2-1.1-2.8-1.9
	c-0.7-0.7-1.3-1.5-1.7-2.5c-0.9-2.2-0.8-4.7,0.2-6.8c0.5-1.1,1.3-2,2.2-2.8c1-0.8,2.2-1.5,3.5-1.8c1.5-0.5,3-0.7,4.6-0.7
	c3.2,0,5.7,0.8,7.6,2.3c1.9,1.5,3.1,3.7,3.3,6.1l-5.2,0.4c-0.3-1.2-0.9-2.3-1.9-3c-1.2-0.8-2.6-1.2-4-1.1c-1.3-0.1-2.6,0.3-3.7,1.1
	c-0.9,0.7-1.4,1.7-1.3,2.8c0,0.6,0.1,1.2,0.4,1.7c0.3,0.5,0.7,0.9,1.1,1.2c0.6,0.4,1.2,0.7,1.8,0.9c0.7,0.3,1.5,0.5,2.4,0.8l2.2,0.7
	c1.4,0.4,2.6,0.9,3.7,1.4c1,0.4,2,1,2.8,1.7c0.8,0.6,1.4,1.5,1.8,2.4c0.4,1.1,0.7,2.2,0.6,3.4c0,1.4-0.3,2.7-0.9,4
	c-0.6,1.2-1.4,2.2-2.4,3c-1.1,0.9-2.4,1.5-3.7,1.9c-1.5,0.5-3.1,0.7-4.7,0.7c-2.8,0.1-5.6-0.7-8-2.2c-2.2-1.6-3.7-4.1-4-6.8
	L299.1,44.1z M325.2,21.9h11.3c1.8,0,3.6,0.2,5.3,0.7c1.3,0.4,2.5,1.1,3.5,2c0.9,0.8,1.5,1.9,1.9,3c0.4,1.2,0.6,2.5,0.6,3.8
	c0,1.4-0.2,2.9-0.8,4.2c-0.5,1.2-1.3,2.2-2.3,3c-1.1,0.8-2.3,1.4-3.7,1.7c-1.6,0.4-3.2,0.6-4.9,0.6h-5.5V53h-5.4L325.2,21.9z
	 M330.6,36.4h5.2c0.9,0,1.8-0.1,2.6-0.2c0.7-0.1,1.4-0.4,2.1-0.8c0.6-0.4,1.1-0.9,1.4-1.5c0.4-0.7,0.5-1.5,0.5-2.3
	c0-0.8-0.1-1.6-0.5-2.4c-0.3-0.6-0.8-1.1-1.4-1.5c-0.6-0.4-1.3-0.7-2-0.8c-0.9-0.2-1.7-0.2-2.6-0.2h-5.3L330.6,36.4z M349.3,51.5
	l11-29.5h8.2l10.9,29.5V53H374l-3.1-8.9h-13.5l-3.1,8.9h-5.1V51.5z M359.1,39.5h10.2l-1.7-4.9c-0.7-1.9-1.2-3.5-1.6-4.7l-1.1-3.2
	h-1.4l-0.5,1.5c-0.2,0.5-0.4,1-0.6,1.6c-0.2,0.6-0.5,1.3-0.7,2.1s-0.6,1.7-0.9,2.7L359.1,39.5z M412.3,44.8
	c-0.5,1.2-1.1,2.4-1.9,3.4c-0.8,1.1-1.8,2-2.9,2.8c-1.2,0.8-2.5,1.5-3.9,1.9c-1.6,0.5-3.3,0.7-4.9,0.7c-2.2,0-4.3-0.4-6.3-1.2
	c-1.8-0.8-3.5-1.9-4.8-3.3c-1.4-1.5-2.4-3.2-3.1-5.1c-0.7-2.1-1.1-4.2-1.1-6.4c0-2.2,0.3-4.4,1.1-6.4c0.7-1.9,1.7-3.6,3.1-5.1
	c1.4-1.5,3-2.6,4.9-3.4c2-0.8,4.2-1.3,6.3-1.2c3-0.1,6,0.7,8.5,2.4c2.2,1.5,4,3.7,4.9,6.3l-5.5,1.1c-0.7-1.5-1.8-2.8-3.1-3.7
	c-1.4-0.9-3.1-1.4-4.9-1.4c-1.4,0-2.8,0.3-4.1,0.9c-1.2,0.6-2.2,1.4-3,2.4c-0.9,1.1-1.5,2.3-1.9,3.7c-0.4,1.5-0.7,3-0.7,4.5
	c0,1.5,0.2,3.1,0.7,4.5c0.4,1.3,1.1,2.5,1.9,3.6c0.9,1,1.9,1.8,3.1,2.4c1.3,0.6,2.7,0.9,4.2,0.9c1.8,0.1,3.5-0.4,5-1.5
	c1.3-0.9,2.3-2.2,3-3.6L412.3,44.8z M419.6,21.9h20.1v4.8h-14.8v8.1h13.8v4.7h-13.7v8.7h15.1V53h-20.4V21.9z"/>
</svg>
