<?xml version="1.0" encoding="utf-8"?>
<!-- Generator: Adobe Illustrator 25.2.1, SVG Export Plug-In . SVG Version: 6.00 Build 0)  -->
<svg version="1.1" id="Layer_1" xmlns="http://www.w3.org/2000/svg" xmlns:xlink="http://www.w3.org/1999/xlink" x="0px" y="0px"
	 viewBox="0 0 412.3 95.6" style="enable-background:new 0 0 412.3 95.6;" xml:space="preserve">
<style type="text/css">
	.st0{fill:#FB7701;}
</style>
<path class="st0" d="M263.5,10.2h-5.4c-4.8,0-8.7,3.9-8.7,8.7v59.6c0,4.8,3.9,8.7,8.7,8.7c4.8,0,8.7-3.9,8.7-8.7V39.3L281.5,60
	c3,4.3,9.4,4.3,12.5,0l14.6-20.7v39.1c0,4.8,3.9,8.7,8.7,8.7c4.8,0,8.7-3.9,8.7-8.7V18.8c0-4.8-3.9-8.7-8.7-8.7h-5.4
	c-2.1,0-4,1-5.2,2.7l-19,28.5l-19-28.5C267.6,11.2,265.6,10.2,263.5,10.2z"/>
<path class="st0" d="M398.2,10.2c-4.8,0-8.7,3.9-8.7,8.7v36.4c0,11.4-6.5,17.3-17.1,17.3c-10.6,0-17.1-6.1-17-17.8V18.8
	c0-4.8-3.9-8.7-8.7-8.7c-4.8,0-8.7,3.9-8.7,8.7v36.3c0,21.2,13,32,34.2,32c21.2,0,34.7-10.7,34.6-32.5V18.8
	C406.9,14,403,10.1,398.2,10.2z"/>
<path class="st0" d="M154,10.2h-50.8c-4.8,0-8.7,3.9-8.7,8.7c0,4.8,3.9,8.7,8.7,8.7h16.7v50.8c0,4.8,3.9,8.7,8.7,8.7
	c4.8,0,8.7-3.9,8.7-8.7V27.5H154c4.8,0,8.7-3.9,8.7-8.7C162.7,14,158.8,10.1,154,10.2z"/>
<path class="st0" d="M229.2,10.2h-47.1c-4.8,0-8.7,3.9-8.7,8.7v59.5c0,4.8,3.9,8.7,8.7,8.7h47.1c4.8,0,8.7-3.9,8.7-8.7
	c0-4.8-3.9-8.7-8.7-8.7h-38.4V57.3h33.4c4.8,0,8.7-3.9,8.7-8.7c0-4.8-3.9-8.7-8.7-8.7h-33.4V27.5h38.4c4.8,0,8.7-3.9,8.7-8.7
	C237.8,14,234,10.1,229.2,10.2z"/>
<path class="st0" d="M62.4,10.2H37.5C21.4,10.2,8.1,22.6,7,38.7L5.1,64.4C4.3,76.6,14,87,26.2,87h47.5c12.3,0,21.9-10.4,21.1-22.6
	L93,38.7C91.8,22.6,78.5,10.2,62.4,10.2z M38.7,31.5v0.7c0,6.2,5.1,11.3,11.3,11.3s11.3-5.1,11.3-11.3v-0.7c0-2.8,10-2.8,10,0v0.7
	c0,11.7-9.5,21.3-21.3,21.3c-11.7,0-21.3-9.5-21.3-21.3v-0.7C28.6,28.7,38.6,28.7,38.7,31.5z"/>
</svg>
