<?xml version="1.0" encoding="utf-8"?>
<!-- Generator: Adobe Illustrator 25.2.1, SVG Export Plug-In . SVG Version: 6.00 Build 0)  -->
<svg version="1.1" id="Layer_1" xmlns="http://www.w3.org/2000/svg" xmlns:xlink="http://www.w3.org/1999/xlink" x="0px" y="0px"
	 viewBox="0 0 869.2 174.9" style="enable-background:new 0 0 869.2 174.9;" xml:space="preserve">
<style type="text/css">
	.st0{fill:#2E3D4B;}
	.st1{fill:#295E9D;}
	.st2{fill:#44A2DD;}
	.st3{fill:#73D2F2;}
</style>
<g id="layer1" transform="translate(-274.41935,-619.38859)">
	<g id="g25484" transform="matrix(1.25,0,0,-1.25,350.2716,634.25721)">
		<path id="path25486" class="st0" d="M160.6-30.9L142-69.4l-18.6,38.5H112l30-62.4l30,62.4H160.6z"/>
	</g>
	<g id="g25488" transform="matrix(1.25,0,0,-1.25,219.74823,804.71734)">
		<g>
			<g id="g25490">
				<g id="g25496" transform="translate(118.5529,124.1067)">
					<path id="path25498" class="st0" d="M198.2-63.5c4-4.9,8.5-8.2,15.6-8.2c6.4,0,13.4,2.7,13.4,9.4c0,6.5-6.5,8.2-13,9.6
						c-11.6,2.6-21.5,5.1-21.5,17.7c0,11.8,11.4,17.9,22.8,17.9c8.6,0,16.5-3.2,20.7-11l-8.5-5.6c-2.6,4.3-6.9,7.3-12.9,7.3
						c-5.6,0-12-2.7-12-8.4c0-5.1,7.3-7.3,15.4-8.8c10.8-2.1,19.9-6,19.9-18.2c0-13.8-12.2-19.1-24.3-19.1
						c-10.3,0-17.7,2.7-23.7,11.3L198.2-63.5z"/>
				</g>
				<g id="g25500" transform="translate(142.2472,134.0216)">
					<path id="path25502" class="st0" d="M261.2-37.1h-17.9v-30.4c0-7.8,0.1-14,9.1-14c3,0,6.2,0.7,9,2.1l0.4-9.2
						c-3.5-1.6-8.1-2.2-11.8-2.2c-14.4,0-16.8,7.8-16.8,20.4v33.4h-13.3v8.6h13.3v17.3h10.1v-17.3l17.9,0V-37.1z"/>
				</g>
				<g id="g25504" transform="translate(233.821,134.0216)">
					<path id="path25506" class="st0" d="M504.8-37.1h-17.9v-30.4c0-7.8,0.1-14,9.1-14c3,0,6.2,0.7,9,2.1l0.4-9.2
						c-3.5-1.6-8.1-2.2-11.8-2.2c-14.4,0-16.8,7.8-16.8,20.4v33.4h-13.3v8.6h13.3v17.3h10.1v-17.3l17.9,0V-37.1z"/>
				</g>
				<g id="g25508" transform="translate(165.7251,136.3681)">
					<path id="path25510" class="st0" d="M323.7-30.9h10.1v-8.8h0.3c5.6,6.5,13,10.4,21.9,10.4c19.1,0,32-13.5,32-32
						c0-18.2-13.4-32-30.4-32c-10.9,0-19.6,5.5-23.4,12.4h-0.3v-34.1h-10.1V-30.9z M355.4-84c13.1,0,21.6,9.9,21.6,22.6
						c0,12.7-8.5,22.6-21.6,22.6c-13.1,0-21.6-9.9-21.6-22.6C333.8-74.1,342.3-84,355.4-84"/>
				</g>
				<g id="g25512" transform="translate(161.6959,136.3681)">
					<path id="path25514" class="st0" d="M313-30.9h-10.1v-8.8h-0.3c-5.6,6.5-13,10.4-21.9,10.4c-19.1,0-32-13.5-32-32
						c0-18.2,13.4-32,30.4-32c10.9,0,19.6,5.5,23.4,12.4h0.3v-10.8H313V-30.9z M281.2-84c-13.1,0-21.6,9.9-21.6,22.6
						c0,12.7,8.5,22.6,21.6,22.6c13.1,0,21.6-9.9,21.6-22.6C302.8-74.1,294.4-84,281.2-84"/>
				</g>
				<g id="g25516" transform="translate(186.1055,132.4233)">
					<path id="path25518" class="st0" d="M377.9-41.4c0,5.6-0.5,10.4-0.5,14.4h9.6c0-3.3,0.3-6.6,0.3-10h0.3
						c2.7,6,10.3,11.6,20.3,11.6c1.3,0,2.7-0.1,4.2-0.6l-0.7-10.3c-1.7,0.5-3.6,0.8-5.5,0.8c-12.4,0-17.8-8.7-17.8-22.6v-29.6h-10.1
						V-41.4z"/>
				</g>
				<g id="g25520" transform="translate(206.0062,132.4233)">
					<path id="path25522" class="st0" d="M430.8-41.4c0,5.6-0.5,10.4-0.5,14.4h9.6c0-3.3,0.3-6.6,0.3-10h0.3
						c2.7,6,10.3,11.6,20.3,11.6c16,0,23.1-10.1,23.1-24.8v-37.6h-10.2v36.5c0,10.1-4.4,16.5-13.9,16.5c-13.1,0-18.9-9.5-18.9-23.4
						v-29.6h-10.1V-41.4z"/>
				</g>
			</g>
		</g>
	</g>
	<path id="path25524" class="st0" d="M579.7,672.9h12.7V749h-12.7V672.9z"/>
	<g id="g25526" transform="matrix(1.25,0,0,-1.25,219.74823,804.71734)">
		<g>
			<g id="g25528">
				<g id="g25534" transform="translate(113.7059,139.6368)">
					<path id="path25536" class="st0" d="M185.3-22.2c0-3.3-2.7-6-6-6c-3.3,0-6,2.7-6,6c0,3.3,2.7,6,6,6
						C182.7-16.2,185.3-18.9,185.3-22.2"/>
				</g>
			</g>
		</g>
	</g>
	<path id="path25538" class="st0" d="M982.1,672.9h12.7V749h-12.7V672.9z"/>
	<g id="g25548" transform="matrix(1.25,0,0,-1.25,471.84373,630.17134)">
		<path id="path25550" class="st0" d="M419.3-22.2c0-3.3-2.7-6-6-6c-3.3,0-6,2.7-6,6c0,3.3,2.7,6,6,6
			C416.6-16.2,419.3-18.9,419.3-22.2"/>
	</g>
	<g id="g25556" transform="matrix(1.25,0,0,-1.25,302.2706,667.44296)">
		<path id="path25558" class="st1" d="M58.5-101.5l35.5,61.6H23L58.5-101.5z"/>
	</g>
	<g id="g25560" transform="matrix(1.25,0,0,-1.25,290.12485,646.41046)">
		<path id="path25562" class="st2" d="M32.7-56.8h71.1L68.2,4.8L32.7-56.8z"/>
	</g>
	<g id="g25564" transform="matrix(1.25,0,0,-1.25,298.9581,619.63859)">
		<path id="path25566" class="st3" d="M51.5,0.2h-71.1l45.2-78.4l35.6,61.6L51.5,0.2z"/>
	</g>
	<g id="g25568" transform="matrix(1.25,0,0,-1.25,305.58185,619.63859)">
		<path id="path25570" class="st1" d="M65.6,0.2l-9.7-16.8l35.5-61.6l45.3,78.4H65.6z"/>
	</g>
</g>
</svg>
