<svg id="Layer_1" data-name="Layer 1" xmlns="http://www.w3.org/2000/svg" viewBox="0 0 720.56 174.03"><defs><style>.cls-1{fill:#007dc2;}.cls-2{fill:#fcba30;}</style></defs><title>walmart</title><path class="cls-1" d="M427.51,100.34c0-17.19-7.35-32.31-32.16-32.31-12.73,0-22.85,3.58-28.37,6.76l4,13.82a41.46,41.46,0,0,1,20.69-5.82c12.59,0,14.64,7.13,14.64,11.72v1.08c-27.44,0-44.78,9.46-44.78,28.82,0,11.82,8.84,22.9,24.19,22.9,9.45,0,17.34-3.77,22.07-9.8h.48s3.13,13.1,20.39,8.09a111.84,111.84,0,0,1-1.19-18.28M407,118.5a14.57,14.57,0,0,1-.51,4.11c-1.58,5.25-7,9.7-13.84,9.7-5.67,0-10.19-3.23-10.19-10C382.48,111.85,394,109,407,109Z"/><path class="cls-1" d="M0,44.62S17.93,118.08,20.79,130c3.34,13.92,9.35,19,26.71,15.59l11.19-45.55c2.84-11.32,4.74-19.38,6.56-30.89h.33c1.28,11.63,3.1,19.61,5.44,30.93,0,0,4.55,20.67,6.89,31.54s8.85,17.7,25.85,14l26.68-101H108.9L99.79,88.28c-2.46,12.7-4.67,22.64-6.39,34.27h-.3c-1.56-11.52-3.53-21-6-33.43l-9.48-44.5H55.15L45,88c-2.88,13.18-5.56,23.83-7.28,35.06h-.3c-1.76-10.58-4.09-24-6.61-36.71,0,0-6-31-8.14-41.72"/><path class="cls-1" d="M191.63,100.34c0-17.19-7.34-32.31-32.15-32.31-12.74,0-22.85,3.58-28.37,6.76l4,13.82a41.46,41.46,0,0,1,20.69-5.82c12.59,0,14.65,7.13,14.65,11.72v1.08c-27.45,0-44.78,9.46-44.78,28.82,0,11.82,8.83,22.9,24.18,22.9,9.44,0,17.34-3.77,22.07-9.8h.46s3.14,13.1,20.42,8.09a110.58,110.58,0,0,1-1.21-18.28m-20.48-8.82a14.21,14.21,0,0,1-.51,4.11c-1.58,5.25-7,9.7-13.83,9.7-5.68,0-10.19-3.23-10.19-10,0-10.42,11.47-13.3,24.53-13.24Z"/><polyline class="cls-1" points="225.82 124.16 225.82 44.61 205.32 44.61 205.32 145.6 225.82 145.6"/><path class="cls-1" d="M494.12,44.62v74.5c0,10.26,1.92,17.46,6.07,21.86,3.6,3.84,9.55,6.33,16.68,6.33a48.54,48.54,0,0,0,14.84-2.2l-.27-16a31.29,31.29,0,0,1-7.78.92c-7,0-9.32-4.47-9.32-13.69V87.82h17.85V68.5H514.34V44.62"/><path class="cls-1" d="M441.18,69.74V145.6h21.14V106.75a28.81,28.81,0,0,1,.47-5.59c1.57-8.14,7.79-13.34,16.73-13.34a38.91,38.91,0,0,1,6.09.54V68.5A19.76,19.76,0,0,0,481,68c-7.9,0-16.88,5.09-20.65,16h-.58V69.74"/><path class="cls-1" d="M240.18,69.74V145.6h20.61V101.11a17.48,17.48,0,0,1,1-6.2c1.71-4.48,5.88-9.73,12.52-9.73,8.32,0,12.21,7,12.21,17.19V145.6h20.59v-45a20.71,20.71,0,0,1,.87-6.16,13,13,0,0,1,12.36-9.24c8.44,0,12.48,6.91,12.48,18.86V145.6h20.61V100.92c0-23.56-12-32.89-25.47-32.89a27.45,27.45,0,0,0-15,4.12,31.9,31.9,0,0,0-9.61,9.45h-.3C299.8,73.42,292.14,68,282.15,68c-12.83,0-18.59,6.5-22.1,12h-.3V69.74"/><path class="cls-2" d="M643,58.58c4.07,0,7.43-2.12,7.88-4.86l4-45.53c0-4.5-5.27-8.19-11.9-8.19s-11.88,3.69-11.88,8.19l4,45.53c.44,2.74,3.8,4.86,7.88,4.86"/><path class="cls-2" d="M618.41,72.8c2-3.52,1.88-7.5-.27-9.26L580.72,37.3c-3.89-2.25-9.72.46-13,6.2s-2.74,12.15,1.15,14.4l41.43,19.29c2.61,1,6.13-.89,8.17-4.4"/><path class="cls-2" d="M667.64,72.79c2.05,3.51,5.56,5.36,8.16,4.4L717.24,57.9c3.9-2.25,4.46-8.66,1.15-14.4s-9.15-8.45-13-6.2L667.92,63.54c-2.14,1.76-2.28,5.74-.26,9.26"/><path class="cls-2" d="M643,115.44c4.07,0,7.43,2.12,7.88,4.85l4,45.54c0,4.5-5.27,8.2-11.9,8.2s-11.88-3.7-11.88-8.2l4-45.54c.44-2.73,3.8-4.85,7.88-4.85"/><path class="cls-2" d="M667.64,101.24c2.05-3.53,5.56-5.37,8.16-4.4l41.44,19.28c3.9,2.26,4.46,8.67,1.15,14.41s-9.15,8.44-13,6.2l-37.43-26.25c-2.14-1.76-2.28-5.74-.26-9.26"/><path class="cls-2" d="M618.41,101.22c2,3.52,1.88,7.49-.27,9.26l-37.42,26.24c-3.89,2.24-9.72-.47-13-6.19s-2.74-12.16,1.15-14.42l41.43-19.27c2.61-1,6.13.86,8.17,4.4"/></svg>